G04 #@! TF.GenerationSoftware,KiCad,Pcbnew,5.1.6-c6e7f7d~87~ubuntu18.04.1*
G04 #@! TF.CreationDate,2020-08-06T18:59:17+02:00*
G04 #@! TF.ProjectId,pcb-business-card,7063622d-6275-4736-996e-6573732d6361,rev?*
G04 #@! TF.SameCoordinates,Original*
G04 #@! TF.FileFunction,Profile,NP*
%FSLAX46Y46*%
G04 Gerber Fmt 4.6, Leading zero omitted, Abs format (unit mm)*
G04 Created by KiCad (PCBNEW 5.1.6-c6e7f7d~87~ubuntu18.04.1) date 2020-08-06 18:59:17*
%MOMM*%
%LPD*%
G01*
G04 APERTURE LIST*
G04 #@! TA.AperFunction,Profile*
%ADD10C,0.150000*%
G04 #@! TD*
G04 #@! TA.AperFunction,Profile*
%ADD11C,0.200000*%
G04 #@! TD*
G04 APERTURE END LIST*
D10*
X159512000Y-72644000D02*
X151892000Y-72644000D01*
X159512000Y-72136000D02*
X159512000Y-72644000D01*
X151892000Y-72136000D02*
X159512000Y-72136000D01*
X151892000Y-72644000D02*
X151892000Y-72136000D01*
X147320000Y-72644000D02*
X140208000Y-72644000D01*
X147320000Y-72136000D02*
X147320000Y-72644000D01*
X140208000Y-72136000D02*
X147320000Y-72136000D01*
X140208000Y-72644000D02*
X140208000Y-72136000D01*
X171704000Y-72136000D02*
X171704000Y-72644000D01*
X163068000Y-72136000D02*
X171704000Y-72136000D01*
X163068000Y-72644000D02*
X163068000Y-72136000D01*
X171704000Y-72644000D02*
X163068000Y-72644000D01*
D11*
X127508000Y-72136000D02*
X127508000Y-72644000D01*
X136652000Y-72136000D02*
X127508000Y-72136000D01*
X136652000Y-72644000D02*
X136652000Y-72136000D01*
X127508000Y-72644000D02*
X136652000Y-72644000D01*
X173981074Y-143185115D02*
X174536079Y-143064192D01*
X123878361Y-58727910D02*
X123543153Y-59118929D01*
X124269380Y-58392702D02*
X123878361Y-58727910D01*
X124692093Y-58140866D02*
X124269380Y-58392702D01*
X176842915Y-137003580D02*
X176842570Y-64020610D01*
X176840848Y-138094986D02*
X176842915Y-137003580D01*
X176827067Y-139017928D02*
X176840848Y-138094986D01*
X176789171Y-139795486D02*
X176827067Y-139017928D01*
X176715791Y-140450054D02*
X176789171Y-139795486D01*
X176594868Y-141005059D02*
X176715791Y-140450054D01*
X176414345Y-141482549D02*
X176594868Y-141005059D01*
X176162508Y-141905607D02*
X176414345Y-141482549D01*
X175827301Y-142296625D02*
X176162508Y-141905607D01*
X175436282Y-142631833D02*
X175827301Y-142296625D01*
X175013569Y-142883669D02*
X175436282Y-142631833D01*
X174536079Y-143064192D02*
X175013569Y-142883669D01*
X173326161Y-143258496D02*
X173981074Y-143185115D01*
X172548603Y-143296392D02*
X173326161Y-143258496D01*
X125169583Y-57960343D02*
X124692093Y-58140866D01*
X125724588Y-57839420D02*
X125169583Y-57960343D01*
X126379501Y-57766040D02*
X125724588Y-57839420D01*
X125169928Y-143064020D02*
X125724932Y-143185115D01*
X124692437Y-142883669D02*
X125169928Y-143064020D01*
X124269380Y-142631660D02*
X124692437Y-142883669D01*
X123878361Y-142296625D02*
X124269380Y-142631660D01*
X123543153Y-141905607D02*
X123878361Y-142296625D01*
X123291317Y-141482721D02*
X123543153Y-141905607D01*
X123110794Y-141005231D02*
X123291317Y-141482721D01*
X122989871Y-140450398D02*
X123110794Y-141005231D01*
X122916491Y-139795486D02*
X122989871Y-140450398D01*
X122878594Y-139017928D02*
X122916491Y-139795486D01*
X122864814Y-138094986D02*
X122878594Y-139017928D01*
X122862747Y-137003752D02*
X122864814Y-138094986D01*
X122862747Y-64020955D02*
X122862747Y-137003752D01*
X122864814Y-62929549D02*
X122862747Y-64020955D01*
X122878594Y-62006608D02*
X122864814Y-62929549D01*
X122916491Y-61229049D02*
X122878594Y-62006608D01*
X122989871Y-60574481D02*
X122916491Y-61229049D01*
X123110794Y-60019476D02*
X122989871Y-60574481D01*
X123291317Y-59541986D02*
X123110794Y-60019476D01*
X123543153Y-59118929D02*
X123291317Y-59541986D01*
X176842570Y-64020610D02*
X176840503Y-62929376D01*
X127157059Y-57728143D02*
X126379501Y-57766040D01*
X128080000Y-57714363D02*
X127157059Y-57728143D01*
X129171061Y-57712296D02*
X128080000Y-57714363D01*
X170533911Y-57712296D02*
X129171061Y-57712296D01*
X171625318Y-57714363D02*
X170533911Y-57712296D01*
X172548259Y-57728143D02*
X171625318Y-57714363D01*
X173325817Y-57765867D02*
X172548259Y-57728143D01*
X173980385Y-57839248D02*
X173325817Y-57765867D01*
X174535390Y-57960343D02*
X173980385Y-57839248D01*
X175012880Y-58140694D02*
X174535390Y-57960343D01*
X175435938Y-58392702D02*
X175012880Y-58140694D01*
X175826956Y-58727738D02*
X175435938Y-58392702D01*
X176162164Y-59118756D02*
X175826956Y-58727738D01*
X176414000Y-59541642D02*
X176162164Y-59118756D01*
X176594523Y-60019132D02*
X176414000Y-59541642D01*
X176715446Y-60573965D02*
X176594523Y-60019132D01*
X176788827Y-61228877D02*
X176715446Y-60573965D01*
X176826723Y-62006435D02*
X176788827Y-61228877D01*
X176840503Y-62929376D02*
X176826723Y-62006435D01*
X127157059Y-143296219D02*
X128080000Y-143310000D01*
X126379501Y-143258496D02*
X127157059Y-143296219D01*
X125724932Y-143185115D02*
X126379501Y-143258496D01*
X171625662Y-143310172D02*
X172548603Y-143296392D01*
X170534600Y-143312239D02*
X171625662Y-143310172D01*
X129171406Y-143312067D02*
X170534600Y-143312239D01*
X128080000Y-143310000D02*
X129171406Y-143312067D01*
M02*
