G04 #@! TF.GenerationSoftware,KiCad,Pcbnew,5.1.6-c6e7f7d~87~ubuntu18.04.1*
G04 #@! TF.CreationDate,2020-08-06T18:59:17+02:00*
G04 #@! TF.ProjectId,pcb-business-card,7063622d-6275-4736-996e-6573732d6361,rev?*
G04 #@! TF.SameCoordinates,Original*
G04 #@! TF.FileFunction,Legend,Top*
G04 #@! TF.FilePolarity,Positive*
%FSLAX46Y46*%
G04 Gerber Fmt 4.6, Leading zero omitted, Abs format (unit mm)*
G04 Created by KiCad (PCBNEW 5.1.6-c6e7f7d~87~ubuntu18.04.1) date 2020-08-06 18:59:17*
%MOMM*%
%LPD*%
G01*
G04 APERTURE LIST*
%ADD10C,0.300000*%
%ADD11C,0.150000*%
G04 APERTURE END LIST*
D10*
X128091857Y-61163285D02*
X128091857Y-61877571D01*
X127591857Y-60377571D02*
X128091857Y-61163285D01*
X128591857Y-60377571D01*
X129306142Y-61877571D02*
X129163285Y-61806142D01*
X129091857Y-61734714D01*
X129020428Y-61591857D01*
X129020428Y-61163285D01*
X129091857Y-61020428D01*
X129163285Y-60949000D01*
X129306142Y-60877571D01*
X129520428Y-60877571D01*
X129663285Y-60949000D01*
X129734714Y-61020428D01*
X129806142Y-61163285D01*
X129806142Y-61591857D01*
X129734714Y-61734714D01*
X129663285Y-61806142D01*
X129520428Y-61877571D01*
X129306142Y-61877571D01*
X131091857Y-60877571D02*
X131091857Y-61877571D01*
X130449000Y-60877571D02*
X130449000Y-61663285D01*
X130520428Y-61806142D01*
X130663285Y-61877571D01*
X130877571Y-61877571D01*
X131020428Y-61806142D01*
X131091857Y-61734714D01*
X131806142Y-61877571D02*
X131806142Y-60877571D01*
X131806142Y-61163285D02*
X131877571Y-61020428D01*
X131949000Y-60949000D01*
X132091857Y-60877571D01*
X132234714Y-60877571D01*
X134520428Y-61877571D02*
X134520428Y-61091857D01*
X134449000Y-60949000D01*
X134306142Y-60877571D01*
X134020428Y-60877571D01*
X133877571Y-60949000D01*
X134520428Y-61806142D02*
X134377571Y-61877571D01*
X134020428Y-61877571D01*
X133877571Y-61806142D01*
X133806142Y-61663285D01*
X133806142Y-61520428D01*
X133877571Y-61377571D01*
X134020428Y-61306142D01*
X134377571Y-61306142D01*
X134520428Y-61234714D01*
X135091857Y-60877571D02*
X135377571Y-61877571D01*
X135663285Y-61163285D01*
X135949000Y-61877571D01*
X136234714Y-60877571D01*
X137377571Y-61806142D02*
X137234714Y-61877571D01*
X136949000Y-61877571D01*
X136806142Y-61806142D01*
X136734714Y-61663285D01*
X136734714Y-61091857D01*
X136806142Y-60949000D01*
X136949000Y-60877571D01*
X137234714Y-60877571D01*
X137377571Y-60949000D01*
X137449000Y-61091857D01*
X137449000Y-61234714D01*
X136734714Y-61377571D01*
X138020428Y-61806142D02*
X138163285Y-61877571D01*
X138449000Y-61877571D01*
X138591857Y-61806142D01*
X138663285Y-61663285D01*
X138663285Y-61591857D01*
X138591857Y-61449000D01*
X138449000Y-61377571D01*
X138234714Y-61377571D01*
X138091857Y-61306142D01*
X138020428Y-61163285D01*
X138020428Y-61091857D01*
X138091857Y-60949000D01*
X138234714Y-60877571D01*
X138449000Y-60877571D01*
X138591857Y-60949000D01*
X139520428Y-61877571D02*
X139377571Y-61806142D01*
X139306142Y-61734714D01*
X139234714Y-61591857D01*
X139234714Y-61163285D01*
X139306142Y-61020428D01*
X139377571Y-60949000D01*
X139520428Y-60877571D01*
X139734714Y-60877571D01*
X139877571Y-60949000D01*
X139949000Y-61020428D01*
X140020428Y-61163285D01*
X140020428Y-61591857D01*
X139949000Y-61734714D01*
X139877571Y-61806142D01*
X139734714Y-61877571D01*
X139520428Y-61877571D01*
X140663285Y-60877571D02*
X140663285Y-61877571D01*
X140663285Y-61020428D02*
X140734714Y-60949000D01*
X140877571Y-60877571D01*
X141091857Y-60877571D01*
X141234714Y-60949000D01*
X141306142Y-61091857D01*
X141306142Y-61877571D01*
X142591857Y-61806142D02*
X142449000Y-61877571D01*
X142163285Y-61877571D01*
X142020428Y-61806142D01*
X141949000Y-61663285D01*
X141949000Y-61091857D01*
X142020428Y-60949000D01*
X142163285Y-60877571D01*
X142449000Y-60877571D01*
X142591857Y-60949000D01*
X142663285Y-61091857D01*
X142663285Y-61234714D01*
X141949000Y-61377571D01*
X127806142Y-64427571D02*
X127806142Y-62927571D01*
X127806142Y-63499000D02*
X127949000Y-63427571D01*
X128234714Y-63427571D01*
X128377571Y-63499000D01*
X128449000Y-63570428D01*
X128520428Y-63713285D01*
X128520428Y-64141857D01*
X128449000Y-64284714D01*
X128377571Y-64356142D01*
X128234714Y-64427571D01*
X127949000Y-64427571D01*
X127806142Y-64356142D01*
X129163285Y-64427571D02*
X129163285Y-63427571D01*
X129163285Y-63713285D02*
X129234714Y-63570428D01*
X129306142Y-63499000D01*
X129449000Y-63427571D01*
X129591857Y-63427571D01*
X130734714Y-64427571D02*
X130734714Y-63641857D01*
X130663285Y-63499000D01*
X130520428Y-63427571D01*
X130234714Y-63427571D01*
X130091857Y-63499000D01*
X130734714Y-64356142D02*
X130591857Y-64427571D01*
X130234714Y-64427571D01*
X130091857Y-64356142D01*
X130020428Y-64213285D01*
X130020428Y-64070428D01*
X130091857Y-63927571D01*
X130234714Y-63856142D01*
X130591857Y-63856142D01*
X130734714Y-63784714D01*
X131449000Y-63427571D02*
X131449000Y-64427571D01*
X131449000Y-63570428D02*
X131520428Y-63499000D01*
X131663285Y-63427571D01*
X131877571Y-63427571D01*
X132020428Y-63499000D01*
X132091857Y-63641857D01*
X132091857Y-64427571D01*
X133449000Y-64427571D02*
X133449000Y-62927571D01*
X133449000Y-64356142D02*
X133306142Y-64427571D01*
X133020428Y-64427571D01*
X132877571Y-64356142D01*
X132806142Y-64284714D01*
X132734714Y-64141857D01*
X132734714Y-63713285D01*
X132806142Y-63570428D01*
X132877571Y-63499000D01*
X133020428Y-63427571D01*
X133306142Y-63427571D01*
X133449000Y-63499000D01*
X136377571Y-62856142D02*
X135091857Y-64784714D01*
X138663285Y-64356142D02*
X138520428Y-64427571D01*
X138234714Y-64427571D01*
X138091857Y-64356142D01*
X138020428Y-64284714D01*
X137949000Y-64141857D01*
X137949000Y-63713285D01*
X138020428Y-63570428D01*
X138091857Y-63499000D01*
X138234714Y-63427571D01*
X138520428Y-63427571D01*
X138663285Y-63499000D01*
X139949000Y-64427571D02*
X139949000Y-63641857D01*
X139877571Y-63499000D01*
X139734714Y-63427571D01*
X139449000Y-63427571D01*
X139306142Y-63499000D01*
X139949000Y-64356142D02*
X139806142Y-64427571D01*
X139449000Y-64427571D01*
X139306142Y-64356142D01*
X139234714Y-64213285D01*
X139234714Y-64070428D01*
X139306142Y-63927571D01*
X139449000Y-63856142D01*
X139806142Y-63856142D01*
X139949000Y-63784714D01*
X140449000Y-63427571D02*
X141020428Y-63427571D01*
X140663285Y-62927571D02*
X140663285Y-64213285D01*
X140734714Y-64356142D01*
X140877571Y-64427571D01*
X141020428Y-64427571D01*
X142163285Y-64356142D02*
X142020428Y-64427571D01*
X141734714Y-64427571D01*
X141591857Y-64356142D01*
X141520428Y-64284714D01*
X141449000Y-64141857D01*
X141449000Y-63713285D01*
X141520428Y-63570428D01*
X141591857Y-63499000D01*
X141734714Y-63427571D01*
X142020428Y-63427571D01*
X142163285Y-63499000D01*
X142806142Y-64427571D02*
X142806142Y-62927571D01*
X143449000Y-64427571D02*
X143449000Y-63641857D01*
X143377571Y-63499000D01*
X143234714Y-63427571D01*
X143020428Y-63427571D01*
X142877571Y-63499000D01*
X142806142Y-63570428D01*
X144163285Y-63427571D02*
X144163285Y-64927571D01*
X144163285Y-63499000D02*
X144306142Y-63427571D01*
X144591857Y-63427571D01*
X144734714Y-63499000D01*
X144806142Y-63570428D01*
X144877571Y-63713285D01*
X144877571Y-64141857D01*
X144806142Y-64284714D01*
X144734714Y-64356142D01*
X144591857Y-64427571D01*
X144306142Y-64427571D01*
X144163285Y-64356142D01*
X145520428Y-64427571D02*
X145520428Y-62927571D01*
X146163285Y-64427571D02*
X146163285Y-63641857D01*
X146091857Y-63499000D01*
X145949000Y-63427571D01*
X145734714Y-63427571D01*
X145591857Y-63499000D01*
X145520428Y-63570428D01*
X146877571Y-64427571D02*
X146877571Y-63427571D01*
X146877571Y-63713285D02*
X146949000Y-63570428D01*
X147020428Y-63499000D01*
X147163285Y-63427571D01*
X147306142Y-63427571D01*
X148449000Y-64427571D02*
X148449000Y-63641857D01*
X148377571Y-63499000D01*
X148234714Y-63427571D01*
X147949000Y-63427571D01*
X147806142Y-63499000D01*
X148449000Y-64356142D02*
X148306142Y-64427571D01*
X147949000Y-64427571D01*
X147806142Y-64356142D01*
X147734714Y-64213285D01*
X147734714Y-64070428D01*
X147806142Y-63927571D01*
X147949000Y-63856142D01*
X148306142Y-63856142D01*
X148449000Y-63784714D01*
X149091857Y-64356142D02*
X149234714Y-64427571D01*
X149520428Y-64427571D01*
X149663285Y-64356142D01*
X149734714Y-64213285D01*
X149734714Y-64141857D01*
X149663285Y-63999000D01*
X149520428Y-63927571D01*
X149306142Y-63927571D01*
X149163285Y-63856142D01*
X149091857Y-63713285D01*
X149091857Y-63641857D01*
X149163285Y-63499000D01*
X149306142Y-63427571D01*
X149520428Y-63427571D01*
X149663285Y-63499000D01*
X150949000Y-64356142D02*
X150806142Y-64427571D01*
X150520428Y-64427571D01*
X150377571Y-64356142D01*
X150306142Y-64213285D01*
X150306142Y-63641857D01*
X150377571Y-63499000D01*
X150520428Y-63427571D01*
X150806142Y-63427571D01*
X150949000Y-63499000D01*
X151020428Y-63641857D01*
X151020428Y-63784714D01*
X150306142Y-63927571D01*
X153877571Y-62856142D02*
X152591857Y-64784714D01*
X156163285Y-64427571D02*
X156163285Y-63641857D01*
X156091857Y-63499000D01*
X155949000Y-63427571D01*
X155663285Y-63427571D01*
X155520428Y-63499000D01*
X156163285Y-64356142D02*
X156020428Y-64427571D01*
X155663285Y-64427571D01*
X155520428Y-64356142D01*
X155449000Y-64213285D01*
X155449000Y-64070428D01*
X155520428Y-63927571D01*
X155663285Y-63856142D01*
X156020428Y-63856142D01*
X156163285Y-63784714D01*
X156877571Y-64427571D02*
X156877571Y-63427571D01*
X156877571Y-63713285D02*
X156949000Y-63570428D01*
X157020428Y-63499000D01*
X157163285Y-63427571D01*
X157306142Y-63427571D01*
X157591857Y-63427571D02*
X158163285Y-63427571D01*
X157806142Y-62927571D02*
X157806142Y-64213285D01*
X157877571Y-64356142D01*
X158020428Y-64427571D01*
X158163285Y-64427571D01*
X158520428Y-63427571D02*
X158806142Y-64427571D01*
X159091857Y-63713285D01*
X159377571Y-64427571D01*
X159663285Y-63427571D01*
X160449000Y-64427571D02*
X160306142Y-64356142D01*
X160234714Y-64284714D01*
X160163285Y-64141857D01*
X160163285Y-63713285D01*
X160234714Y-63570428D01*
X160306142Y-63499000D01*
X160449000Y-63427571D01*
X160663285Y-63427571D01*
X160806142Y-63499000D01*
X160877571Y-63570428D01*
X160949000Y-63713285D01*
X160949000Y-64141857D01*
X160877571Y-64284714D01*
X160806142Y-64356142D01*
X160663285Y-64427571D01*
X160449000Y-64427571D01*
X161591857Y-64427571D02*
X161591857Y-63427571D01*
X161591857Y-63713285D02*
X161663285Y-63570428D01*
X161734714Y-63499000D01*
X161877571Y-63427571D01*
X162020428Y-63427571D01*
X162520428Y-64427571D02*
X162520428Y-62927571D01*
X162663285Y-63856142D02*
X163091857Y-64427571D01*
X163091857Y-63427571D02*
X162520428Y-63999000D01*
X163734714Y-64284714D02*
X163806142Y-64356142D01*
X163734714Y-64427571D01*
X163663285Y-64356142D01*
X163734714Y-64284714D01*
X163734714Y-64427571D01*
X163734714Y-63856142D02*
X163663285Y-62999000D01*
X163734714Y-62927571D01*
X163806142Y-62999000D01*
X163734714Y-63856142D01*
X163734714Y-62927571D01*
X128663285Y-69384714D02*
X128591857Y-69456142D01*
X128377571Y-69527571D01*
X128234714Y-69527571D01*
X128020428Y-69456142D01*
X127877571Y-69313285D01*
X127806142Y-69170428D01*
X127734714Y-68884714D01*
X127734714Y-68670428D01*
X127806142Y-68384714D01*
X127877571Y-68241857D01*
X128020428Y-68099000D01*
X128234714Y-68027571D01*
X128377571Y-68027571D01*
X128591857Y-68099000D01*
X128663285Y-68170428D01*
X129163285Y-68527571D02*
X129520428Y-69527571D01*
X129877571Y-68527571D02*
X129520428Y-69527571D01*
X129377571Y-69884714D01*
X129306142Y-69956142D01*
X129163285Y-70027571D01*
X130449000Y-69527571D02*
X130449000Y-68527571D01*
X130449000Y-68813285D02*
X130520428Y-68670428D01*
X130591857Y-68599000D01*
X130734714Y-68527571D01*
X130877571Y-68527571D01*
X131377571Y-69527571D02*
X131377571Y-68527571D01*
X131377571Y-68027571D02*
X131306142Y-68099000D01*
X131377571Y-68170428D01*
X131449000Y-68099000D01*
X131377571Y-68027571D01*
X131377571Y-68170428D01*
X132306142Y-69527571D02*
X132163285Y-69456142D01*
X132091857Y-69313285D01*
X132091857Y-68027571D01*
X134734714Y-69527571D02*
X134020428Y-69527571D01*
X134020428Y-68027571D01*
X135877571Y-68527571D02*
X135877571Y-69527571D01*
X135234714Y-68527571D02*
X135234714Y-69313285D01*
X135306142Y-69456142D01*
X135449000Y-69527571D01*
X135663285Y-69527571D01*
X135806142Y-69456142D01*
X135877571Y-69384714D01*
X137234714Y-68527571D02*
X137234714Y-69741857D01*
X137163285Y-69884714D01*
X137091857Y-69956142D01*
X136949000Y-70027571D01*
X136734714Y-70027571D01*
X136591857Y-69956142D01*
X137234714Y-69456142D02*
X137091857Y-69527571D01*
X136806142Y-69527571D01*
X136663285Y-69456142D01*
X136591857Y-69384714D01*
X136520428Y-69241857D01*
X136520428Y-68813285D01*
X136591857Y-68670428D01*
X136663285Y-68599000D01*
X136806142Y-68527571D01*
X137091857Y-68527571D01*
X137234714Y-68599000D01*
X138591857Y-69527571D02*
X138591857Y-68741857D01*
X138520428Y-68599000D01*
X138377571Y-68527571D01*
X138091857Y-68527571D01*
X137949000Y-68599000D01*
X138591857Y-69456142D02*
X138449000Y-69527571D01*
X138091857Y-69527571D01*
X137949000Y-69456142D01*
X137877571Y-69313285D01*
X137877571Y-69170428D01*
X137949000Y-69027571D01*
X138091857Y-68956142D01*
X138449000Y-68956142D01*
X138591857Y-68884714D01*
X139306142Y-68527571D02*
X139306142Y-69527571D01*
X139306142Y-68670428D02*
X139377571Y-68599000D01*
X139520428Y-68527571D01*
X139734714Y-68527571D01*
X139877571Y-68599000D01*
X139949000Y-68741857D01*
X139949000Y-69527571D01*
X142234714Y-70099000D02*
X142163285Y-70027571D01*
X142020428Y-69813285D01*
X141949000Y-69670428D01*
X141877571Y-69456142D01*
X141806142Y-69099000D01*
X141806142Y-68813285D01*
X141877571Y-68456142D01*
X141949000Y-68241857D01*
X142020428Y-68099000D01*
X142163285Y-67884714D01*
X142234714Y-67813285D01*
X143663285Y-69384714D02*
X143591857Y-69456142D01*
X143377571Y-69527571D01*
X143234714Y-69527571D01*
X143020428Y-69456142D01*
X142877571Y-69313285D01*
X142806142Y-69170428D01*
X142734714Y-68884714D01*
X142734714Y-68670428D01*
X142806142Y-68384714D01*
X142877571Y-68241857D01*
X143020428Y-68099000D01*
X143234714Y-68027571D01*
X143377571Y-68027571D01*
X143591857Y-68099000D01*
X143663285Y-68170428D01*
X145163285Y-69384714D02*
X145091857Y-69456142D01*
X144877571Y-69527571D01*
X144734714Y-69527571D01*
X144520428Y-69456142D01*
X144377571Y-69313285D01*
X144306142Y-69170428D01*
X144234714Y-68884714D01*
X144234714Y-68670428D01*
X144306142Y-68384714D01*
X144377571Y-68241857D01*
X144520428Y-68099000D01*
X144734714Y-68027571D01*
X144877571Y-68027571D01*
X145091857Y-68099000D01*
X145163285Y-68170428D01*
X145806142Y-68956142D02*
X146949000Y-68956142D01*
X148163285Y-68741857D02*
X148377571Y-68813285D01*
X148449000Y-68884714D01*
X148520428Y-69027571D01*
X148520428Y-69241857D01*
X148449000Y-69384714D01*
X148377571Y-69456142D01*
X148234714Y-69527571D01*
X147663285Y-69527571D01*
X147663285Y-68027571D01*
X148163285Y-68027571D01*
X148306142Y-68099000D01*
X148377571Y-68170428D01*
X148449000Y-68313285D01*
X148449000Y-68456142D01*
X148377571Y-68599000D01*
X148306142Y-68670428D01*
X148163285Y-68741857D01*
X147663285Y-68741857D01*
X149449000Y-68813285D02*
X149449000Y-69527571D01*
X148949000Y-68027571D02*
X149449000Y-68813285D01*
X149949000Y-68027571D01*
X150306142Y-70099000D02*
X150377571Y-70027571D01*
X150520428Y-69813285D01*
X150591857Y-69670428D01*
X150663285Y-69456142D01*
X150734714Y-69099000D01*
X150734714Y-68813285D01*
X150663285Y-68456142D01*
X150591857Y-68241857D01*
X150520428Y-68099000D01*
X150377571Y-67884714D01*
X150306142Y-67813285D01*
D11*
G36*
X177165000Y-143510000D02*
G01*
X144780000Y-143510000D01*
X144780000Y-136525000D01*
X177165000Y-136525000D01*
X177165000Y-143510000D01*
G37*
X177165000Y-143510000D02*
X144780000Y-143510000D01*
X144780000Y-136525000D01*
X177165000Y-136525000D01*
X177165000Y-143510000D01*
M02*
