G04 #@! TF.GenerationSoftware,KiCad,Pcbnew,5.1.6-c6e7f7d~87~ubuntu18.04.1*
G04 #@! TF.CreationDate,2020-08-06T18:59:17+02:00*
G04 #@! TF.ProjectId,pcb-business-card,7063622d-6275-4736-996e-6573732d6361,rev?*
G04 #@! TF.SameCoordinates,Original*
G04 #@! TF.FileFunction,Copper,L1,Top*
G04 #@! TF.FilePolarity,Positive*
%FSLAX46Y46*%
G04 Gerber Fmt 4.6, Leading zero omitted, Abs format (unit mm)*
G04 Created by KiCad (PCBNEW 5.1.6-c6e7f7d~87~ubuntu18.04.1) date 2020-08-06 18:59:17*
%MOMM*%
%LPD*%
G01*
G04 APERTURE LIST*
G04 #@! TA.AperFunction,SMDPad,CuDef*
%ADD10R,1.080000X1.080000*%
G04 #@! TD*
G04 #@! TA.AperFunction,ComponentPad*
%ADD11R,1.080000X1.080000*%
G04 #@! TD*
G04 APERTURE END LIST*
D10*
X161290000Y-82550000D03*
X167640000Y-83820000D03*
X156210000Y-83820000D03*
X162560000Y-83820000D03*
X154940000Y-82550000D03*
X167640000Y-81280000D03*
X156210000Y-81280000D03*
X162560000Y-81280000D03*
X157480000Y-82550000D03*
X160020000Y-82550000D03*
X162560000Y-82550000D03*
X158750000Y-82550000D03*
X153670000Y-82550000D03*
X165100000Y-82550000D03*
X167640000Y-82550000D03*
X156210000Y-82550000D03*
X166370000Y-81280000D03*
X163830000Y-81280000D03*
X153670000Y-81280000D03*
X157480000Y-81280000D03*
X158750000Y-81280000D03*
X163830000Y-83820000D03*
X166370000Y-83820000D03*
X165100000Y-81280000D03*
X152400000Y-82550000D03*
X161290000Y-81280000D03*
X160020000Y-81280000D03*
X154940000Y-81280000D03*
X152400000Y-81280000D03*
X163830000Y-82550000D03*
X165100000Y-83820000D03*
X161290000Y-83820000D03*
X157480000Y-83820000D03*
X158750000Y-83820000D03*
X160020000Y-83820000D03*
X154940000Y-83820000D03*
X152400000Y-83820000D03*
X153670000Y-83820000D03*
X166370000Y-82550000D03*
X167640000Y-80010000D03*
X156210000Y-80010000D03*
X162560000Y-80010000D03*
X154940000Y-78740000D03*
X167640000Y-77470000D03*
X156210000Y-77470000D03*
X162560000Y-77470000D03*
X157480000Y-78740000D03*
X160020000Y-78740000D03*
X162560000Y-78740000D03*
X158750000Y-78740000D03*
X161290000Y-78740000D03*
X156210000Y-78740000D03*
X166370000Y-77470000D03*
X163830000Y-77470000D03*
X168910000Y-77470000D03*
X165100000Y-77470000D03*
X152400000Y-78740000D03*
X161290000Y-77470000D03*
X157480000Y-77470000D03*
X158750000Y-77470000D03*
X160020000Y-77470000D03*
X154940000Y-77470000D03*
X152400000Y-77470000D03*
X153670000Y-77470000D03*
X153670000Y-78740000D03*
X163830000Y-78740000D03*
X166370000Y-78740000D03*
X166370000Y-80010000D03*
X163830000Y-80010000D03*
X165100000Y-80010000D03*
X161290000Y-80010000D03*
X157480000Y-80010000D03*
X158750000Y-80010000D03*
X160020000Y-80010000D03*
X154940000Y-80010000D03*
X152400000Y-80010000D03*
X153670000Y-80010000D03*
X165100000Y-78740000D03*
X167640000Y-78740000D03*
X172720000Y-73660000D03*
X167640000Y-73660000D03*
X156210000Y-73660000D03*
X162560000Y-73660000D03*
X157480000Y-74930000D03*
X124460000Y-74930000D03*
X124460000Y-73660000D03*
X144780000Y-74930000D03*
X146050000Y-74930000D03*
X147320000Y-74930000D03*
X149860000Y-74930000D03*
X148590000Y-74930000D03*
X153670000Y-74930000D03*
X149860000Y-73660000D03*
X148590000Y-73660000D03*
X144780000Y-73660000D03*
X146050000Y-73660000D03*
X147320000Y-73660000D03*
X163830000Y-74930000D03*
X166370000Y-74930000D03*
X168910000Y-74930000D03*
X165100000Y-74930000D03*
X167640000Y-74930000D03*
X160020000Y-74930000D03*
X162560000Y-74930000D03*
X158750000Y-74930000D03*
X161290000Y-74930000D03*
X156210000Y-74930000D03*
X166370000Y-73660000D03*
X163830000Y-73660000D03*
X168910000Y-73660000D03*
X165100000Y-73660000D03*
X125730000Y-74930000D03*
X127000000Y-74930000D03*
X128270000Y-74930000D03*
X130810000Y-74930000D03*
X129540000Y-74930000D03*
X132080000Y-74930000D03*
X133350000Y-74930000D03*
X134620000Y-74930000D03*
X137160000Y-74930000D03*
X135890000Y-74930000D03*
X152400000Y-74930000D03*
X161290000Y-73660000D03*
X125730000Y-73660000D03*
X127000000Y-73660000D03*
X128270000Y-73660000D03*
X130810000Y-73660000D03*
X129540000Y-73660000D03*
X157480000Y-73660000D03*
X170180000Y-73660000D03*
X158750000Y-73660000D03*
X160020000Y-73660000D03*
X154940000Y-73660000D03*
X151130000Y-73660000D03*
X152400000Y-73660000D03*
X153670000Y-73660000D03*
X175260000Y-73660000D03*
X171450000Y-73660000D03*
X173990000Y-73660000D03*
X138430000Y-73660000D03*
X139700000Y-73660000D03*
X140970000Y-73660000D03*
X154940000Y-74930000D03*
X151130000Y-74930000D03*
X138430000Y-74930000D03*
X170180000Y-74930000D03*
X172720000Y-74930000D03*
X175260000Y-74930000D03*
X171450000Y-74930000D03*
X173990000Y-74930000D03*
X139700000Y-74930000D03*
X140970000Y-74930000D03*
X143510000Y-74930000D03*
X142240000Y-74930000D03*
X132080000Y-73660000D03*
X133350000Y-73660000D03*
X134620000Y-73660000D03*
X137160000Y-73660000D03*
X135890000Y-73660000D03*
X143510000Y-73660000D03*
X142240000Y-73660000D03*
X124460000Y-77470000D03*
X124460000Y-76200000D03*
X132080000Y-83820000D03*
X129540000Y-78740000D03*
X129540000Y-81280000D03*
X129540000Y-80010000D03*
X129540000Y-82550000D03*
X129540000Y-83820000D03*
X130810000Y-83820000D03*
X130810000Y-78740000D03*
X130810000Y-81280000D03*
X130810000Y-80010000D03*
X130810000Y-82550000D03*
X132080000Y-81280000D03*
X132080000Y-82550000D03*
X132080000Y-80010000D03*
X133350000Y-80010000D03*
X138430000Y-80010000D03*
X134620000Y-80010000D03*
X137160000Y-80010000D03*
X135890000Y-80010000D03*
X133350000Y-81280000D03*
X138430000Y-81280000D03*
X134620000Y-81280000D03*
X137160000Y-81280000D03*
X135890000Y-81280000D03*
X133350000Y-82550000D03*
X138430000Y-82550000D03*
X134620000Y-82550000D03*
X137160000Y-82550000D03*
X135890000Y-82550000D03*
X137160000Y-83820000D03*
X135890000Y-83820000D03*
X134620000Y-83820000D03*
X133350000Y-83820000D03*
X138430000Y-83820000D03*
X143510000Y-83820000D03*
X142240000Y-83820000D03*
X140970000Y-83820000D03*
X139700000Y-83820000D03*
X140970000Y-82550000D03*
X139700000Y-82550000D03*
X143510000Y-82550000D03*
X142240000Y-82550000D03*
X140970000Y-81280000D03*
X142240000Y-81280000D03*
X143510000Y-81280000D03*
X139700000Y-81280000D03*
X140970000Y-80010000D03*
X142240000Y-80010000D03*
X143510000Y-80010000D03*
X139700000Y-80010000D03*
X132080000Y-78740000D03*
X133350000Y-78740000D03*
X134620000Y-78740000D03*
X137160000Y-78740000D03*
X135890000Y-78740000D03*
X138430000Y-78740000D03*
X139700000Y-78740000D03*
X140970000Y-78740000D03*
X143510000Y-78740000D03*
X142240000Y-78740000D03*
X144780000Y-77470000D03*
X146050000Y-77470000D03*
X147320000Y-77470000D03*
X149860000Y-77470000D03*
X148590000Y-77470000D03*
X138430000Y-77470000D03*
X139700000Y-77470000D03*
X140970000Y-77470000D03*
X143510000Y-77470000D03*
X142240000Y-77470000D03*
X132080000Y-77470000D03*
X133350000Y-77470000D03*
X134620000Y-77470000D03*
X137160000Y-77470000D03*
X135890000Y-77470000D03*
X125730000Y-77470000D03*
X127000000Y-77470000D03*
X128270000Y-77470000D03*
X130810000Y-77470000D03*
X129540000Y-77470000D03*
X125730000Y-76200000D03*
X127000000Y-76200000D03*
X128270000Y-76200000D03*
X130810000Y-76200000D03*
X129540000Y-76200000D03*
X132080000Y-76200000D03*
X133350000Y-76200000D03*
X134620000Y-76200000D03*
X137160000Y-76200000D03*
X135890000Y-76200000D03*
X143510000Y-76200000D03*
X142240000Y-76200000D03*
X138430000Y-76200000D03*
X139700000Y-76200000D03*
X140970000Y-76200000D03*
X149860000Y-76200000D03*
X148590000Y-76200000D03*
X144780000Y-76200000D03*
X146050000Y-76200000D03*
X147320000Y-76200000D03*
X156210000Y-76200000D03*
X154940000Y-76200000D03*
X151130000Y-76200000D03*
X152400000Y-76200000D03*
X153670000Y-76200000D03*
X161290000Y-76200000D03*
X160020000Y-76200000D03*
X157480000Y-76200000D03*
X162560000Y-76200000D03*
X158750000Y-76200000D03*
X166370000Y-76200000D03*
X163830000Y-76200000D03*
X168910000Y-76200000D03*
X165100000Y-76200000D03*
X167640000Y-76200000D03*
X170180000Y-76200000D03*
X172720000Y-76200000D03*
X175260000Y-76200000D03*
X171450000Y-76200000D03*
X173990000Y-76200000D03*
X170180000Y-77470000D03*
X172720000Y-77470000D03*
X175260000Y-77470000D03*
X171450000Y-77470000D03*
X173990000Y-77470000D03*
G04 #@! TA.AperFunction,ComponentPad*
G36*
G01*
X143720000Y-87208000D02*
X143720000Y-85512000D01*
G75*
G02*
X143932000Y-85300000I212000J0D01*
G01*
X145628000Y-85300000D01*
G75*
G02*
X145840000Y-85512000I0J-212000D01*
G01*
X145840000Y-87208000D01*
G75*
G02*
X145628000Y-87420000I-212000J0D01*
G01*
X143932000Y-87420000D01*
G75*
G02*
X143720000Y-87208000I0J212000D01*
G01*
G37*
G04 #@! TD.AperFunction*
G04 #@! TA.AperFunction,ComponentPad*
G36*
G01*
X148800000Y-87208000D02*
X148800000Y-85512000D01*
G75*
G02*
X149012000Y-85300000I212000J0D01*
G01*
X150708000Y-85300000D01*
G75*
G02*
X150920000Y-85512000I0J-212000D01*
G01*
X150920000Y-87208000D01*
G75*
G02*
X150708000Y-87420000I-212000J0D01*
G01*
X149012000Y-87420000D01*
G75*
G02*
X148800000Y-87208000I0J212000D01*
G01*
G37*
G04 #@! TD.AperFunction*
G04 #@! TA.AperFunction,ComponentPad*
G36*
G01*
X141180000Y-87208000D02*
X141180000Y-85512000D01*
G75*
G02*
X141392000Y-85300000I212000J0D01*
G01*
X143088000Y-85300000D01*
G75*
G02*
X143300000Y-85512000I0J-212000D01*
G01*
X143300000Y-87208000D01*
G75*
G02*
X143088000Y-87420000I-212000J0D01*
G01*
X141392000Y-87420000D01*
G75*
G02*
X141180000Y-87208000I0J212000D01*
G01*
G37*
G04 #@! TD.AperFunction*
G04 #@! TA.AperFunction,ComponentPad*
G36*
G01*
X161500000Y-87208000D02*
X161500000Y-85512000D01*
G75*
G02*
X161712000Y-85300000I212000J0D01*
G01*
X163408000Y-85300000D01*
G75*
G02*
X163620000Y-85512000I0J-212000D01*
G01*
X163620000Y-87208000D01*
G75*
G02*
X163408000Y-87420000I-212000J0D01*
G01*
X161712000Y-87420000D01*
G75*
G02*
X161500000Y-87208000I0J212000D01*
G01*
G37*
G04 #@! TD.AperFunction*
G04 #@! TA.AperFunction,ComponentPad*
G36*
G01*
X128480000Y-87208000D02*
X128480000Y-85512000D01*
G75*
G02*
X128692000Y-85300000I212000J0D01*
G01*
X130388000Y-85300000D01*
G75*
G02*
X130600000Y-85512000I0J-212000D01*
G01*
X130600000Y-87208000D01*
G75*
G02*
X130388000Y-87420000I-212000J0D01*
G01*
X128692000Y-87420000D01*
G75*
G02*
X128480000Y-87208000I0J212000D01*
G01*
G37*
G04 #@! TD.AperFunction*
G04 #@! TA.AperFunction,ComponentPad*
G36*
G01*
X125940000Y-87208000D02*
X125940000Y-85512000D01*
G75*
G02*
X126152000Y-85300000I212000J0D01*
G01*
X127848000Y-85300000D01*
G75*
G02*
X128060000Y-85512000I0J-212000D01*
G01*
X128060000Y-87208000D01*
G75*
G02*
X127848000Y-87420000I-212000J0D01*
G01*
X126152000Y-87420000D01*
G75*
G02*
X125940000Y-87208000I0J212000D01*
G01*
G37*
G04 #@! TD.AperFunction*
G04 #@! TA.AperFunction,ComponentPad*
G36*
G01*
X146260000Y-87208000D02*
X146260000Y-85512000D01*
G75*
G02*
X146472000Y-85300000I212000J0D01*
G01*
X148168000Y-85300000D01*
G75*
G02*
X148380000Y-85512000I0J-212000D01*
G01*
X148380000Y-87208000D01*
G75*
G02*
X148168000Y-87420000I-212000J0D01*
G01*
X146472000Y-87420000D01*
G75*
G02*
X146260000Y-87208000I0J212000D01*
G01*
G37*
G04 #@! TD.AperFunction*
G04 #@! TA.AperFunction,ComponentPad*
G36*
G01*
X156420000Y-87208000D02*
X156420000Y-85512000D01*
G75*
G02*
X156632000Y-85300000I212000J0D01*
G01*
X158328000Y-85300000D01*
G75*
G02*
X158540000Y-85512000I0J-212000D01*
G01*
X158540000Y-87208000D01*
G75*
G02*
X158328000Y-87420000I-212000J0D01*
G01*
X156632000Y-87420000D01*
G75*
G02*
X156420000Y-87208000I0J212000D01*
G01*
G37*
G04 #@! TD.AperFunction*
G04 #@! TA.AperFunction,ComponentPad*
G36*
G01*
X138640000Y-87208000D02*
X138640000Y-85512000D01*
G75*
G02*
X138852000Y-85300000I212000J0D01*
G01*
X140548000Y-85300000D01*
G75*
G02*
X140760000Y-85512000I0J-212000D01*
G01*
X140760000Y-87208000D01*
G75*
G02*
X140548000Y-87420000I-212000J0D01*
G01*
X138852000Y-87420000D01*
G75*
G02*
X138640000Y-87208000I0J212000D01*
G01*
G37*
G04 #@! TD.AperFunction*
G04 #@! TA.AperFunction,ComponentPad*
G36*
G01*
X153880000Y-87208000D02*
X153880000Y-85512000D01*
G75*
G02*
X154092000Y-85300000I212000J0D01*
G01*
X155788000Y-85300000D01*
G75*
G02*
X156000000Y-85512000I0J-212000D01*
G01*
X156000000Y-87208000D01*
G75*
G02*
X155788000Y-87420000I-212000J0D01*
G01*
X154092000Y-87420000D01*
G75*
G02*
X153880000Y-87208000I0J212000D01*
G01*
G37*
G04 #@! TD.AperFunction*
G04 #@! TA.AperFunction,ComponentPad*
G36*
G01*
X151340000Y-87208000D02*
X151340000Y-85512000D01*
G75*
G02*
X151552000Y-85300000I212000J0D01*
G01*
X153248000Y-85300000D01*
G75*
G02*
X153460000Y-85512000I0J-212000D01*
G01*
X153460000Y-87208000D01*
G75*
G02*
X153248000Y-87420000I-212000J0D01*
G01*
X151552000Y-87420000D01*
G75*
G02*
X151340000Y-87208000I0J212000D01*
G01*
G37*
G04 #@! TD.AperFunction*
G04 #@! TA.AperFunction,ComponentPad*
G36*
G01*
X158960000Y-87208000D02*
X158960000Y-85512000D01*
G75*
G02*
X159172000Y-85300000I212000J0D01*
G01*
X160868000Y-85300000D01*
G75*
G02*
X161080000Y-85512000I0J-212000D01*
G01*
X161080000Y-87208000D01*
G75*
G02*
X160868000Y-87420000I-212000J0D01*
G01*
X159172000Y-87420000D01*
G75*
G02*
X158960000Y-87208000I0J212000D01*
G01*
G37*
G04 #@! TD.AperFunction*
G04 #@! TA.AperFunction,ComponentPad*
G36*
G01*
X133560000Y-87208000D02*
X133560000Y-85512000D01*
G75*
G02*
X133772000Y-85300000I212000J0D01*
G01*
X135468000Y-85300000D01*
G75*
G02*
X135680000Y-85512000I0J-212000D01*
G01*
X135680000Y-87208000D01*
G75*
G02*
X135468000Y-87420000I-212000J0D01*
G01*
X133772000Y-87420000D01*
G75*
G02*
X133560000Y-87208000I0J212000D01*
G01*
G37*
G04 #@! TD.AperFunction*
G04 #@! TA.AperFunction,ComponentPad*
G36*
G01*
X136100000Y-87208000D02*
X136100000Y-85512000D01*
G75*
G02*
X136312000Y-85300000I212000J0D01*
G01*
X138008000Y-85300000D01*
G75*
G02*
X138220000Y-85512000I0J-212000D01*
G01*
X138220000Y-87208000D01*
G75*
G02*
X138008000Y-87420000I-212000J0D01*
G01*
X136312000Y-87420000D01*
G75*
G02*
X136100000Y-87208000I0J212000D01*
G01*
G37*
G04 #@! TD.AperFunction*
G04 #@! TA.AperFunction,ComponentPad*
G36*
G01*
X131020000Y-87208000D02*
X131020000Y-85512000D01*
G75*
G02*
X131232000Y-85300000I212000J0D01*
G01*
X132928000Y-85300000D01*
G75*
G02*
X133140000Y-85512000I0J-212000D01*
G01*
X133140000Y-87208000D01*
G75*
G02*
X132928000Y-87420000I-212000J0D01*
G01*
X131232000Y-87420000D01*
G75*
G02*
X131020000Y-87208000I0J212000D01*
G01*
G37*
G04 #@! TD.AperFunction*
G04 #@! TA.AperFunction,ComponentPad*
G36*
G01*
X164040000Y-87208000D02*
X164040000Y-85512000D01*
G75*
G02*
X164252000Y-85300000I212000J0D01*
G01*
X165948000Y-85300000D01*
G75*
G02*
X166160000Y-85512000I0J-212000D01*
G01*
X166160000Y-87208000D01*
G75*
G02*
X165948000Y-87420000I-212000J0D01*
G01*
X164252000Y-87420000D01*
G75*
G02*
X164040000Y-87208000I0J212000D01*
G01*
G37*
G04 #@! TD.AperFunction*
G04 #@! TA.AperFunction,ComponentPad*
G36*
G01*
X123400000Y-87208000D02*
X123400000Y-85512000D01*
G75*
G02*
X123612000Y-85300000I212000J0D01*
G01*
X125308000Y-85300000D01*
G75*
G02*
X125520000Y-85512000I0J-212000D01*
G01*
X125520000Y-87208000D01*
G75*
G02*
X125308000Y-87420000I-212000J0D01*
G01*
X123612000Y-87420000D01*
G75*
G02*
X123400000Y-87208000I0J212000D01*
G01*
G37*
G04 #@! TD.AperFunction*
G04 #@! TA.AperFunction,ComponentPad*
G36*
G01*
X123400000Y-89748000D02*
X123400000Y-88052000D01*
G75*
G02*
X123612000Y-87840000I212000J0D01*
G01*
X125308000Y-87840000D01*
G75*
G02*
X125520000Y-88052000I0J-212000D01*
G01*
X125520000Y-89748000D01*
G75*
G02*
X125308000Y-89960000I-212000J0D01*
G01*
X123612000Y-89960000D01*
G75*
G02*
X123400000Y-89748000I0J212000D01*
G01*
G37*
G04 #@! TD.AperFunction*
G04 #@! TA.AperFunction,ComponentPad*
G36*
G01*
X123400000Y-92288000D02*
X123400000Y-90592000D01*
G75*
G02*
X123612000Y-90380000I212000J0D01*
G01*
X125308000Y-90380000D01*
G75*
G02*
X125520000Y-90592000I0J-212000D01*
G01*
X125520000Y-92288000D01*
G75*
G02*
X125308000Y-92500000I-212000J0D01*
G01*
X123612000Y-92500000D01*
G75*
G02*
X123400000Y-92288000I0J212000D01*
G01*
G37*
G04 #@! TD.AperFunction*
G04 #@! TA.AperFunction,ComponentPad*
G36*
G01*
X125940000Y-92288000D02*
X125940000Y-90592000D01*
G75*
G02*
X126152000Y-90380000I212000J0D01*
G01*
X127848000Y-90380000D01*
G75*
G02*
X128060000Y-90592000I0J-212000D01*
G01*
X128060000Y-92288000D01*
G75*
G02*
X127848000Y-92500000I-212000J0D01*
G01*
X126152000Y-92500000D01*
G75*
G02*
X125940000Y-92288000I0J212000D01*
G01*
G37*
G04 #@! TD.AperFunction*
G04 #@! TA.AperFunction,ComponentPad*
G36*
G01*
X125940000Y-89748000D02*
X125940000Y-88052000D01*
G75*
G02*
X126152000Y-87840000I212000J0D01*
G01*
X127848000Y-87840000D01*
G75*
G02*
X128060000Y-88052000I0J-212000D01*
G01*
X128060000Y-89748000D01*
G75*
G02*
X127848000Y-89960000I-212000J0D01*
G01*
X126152000Y-89960000D01*
G75*
G02*
X125940000Y-89748000I0J212000D01*
G01*
G37*
G04 #@! TD.AperFunction*
G04 #@! TA.AperFunction,ComponentPad*
G36*
G01*
X141180000Y-89748000D02*
X141180000Y-88052000D01*
G75*
G02*
X141392000Y-87840000I212000J0D01*
G01*
X143088000Y-87840000D01*
G75*
G02*
X143300000Y-88052000I0J-212000D01*
G01*
X143300000Y-89748000D01*
G75*
G02*
X143088000Y-89960000I-212000J0D01*
G01*
X141392000Y-89960000D01*
G75*
G02*
X141180000Y-89748000I0J212000D01*
G01*
G37*
G04 #@! TD.AperFunction*
G04 #@! TA.AperFunction,ComponentPad*
G36*
G01*
X161500000Y-89748000D02*
X161500000Y-88052000D01*
G75*
G02*
X161712000Y-87840000I212000J0D01*
G01*
X163408000Y-87840000D01*
G75*
G02*
X163620000Y-88052000I0J-212000D01*
G01*
X163620000Y-89748000D01*
G75*
G02*
X163408000Y-89960000I-212000J0D01*
G01*
X161712000Y-89960000D01*
G75*
G02*
X161500000Y-89748000I0J212000D01*
G01*
G37*
G04 #@! TD.AperFunction*
G04 #@! TA.AperFunction,ComponentPad*
G36*
G01*
X128480000Y-89748000D02*
X128480000Y-88052000D01*
G75*
G02*
X128692000Y-87840000I212000J0D01*
G01*
X130388000Y-87840000D01*
G75*
G02*
X130600000Y-88052000I0J-212000D01*
G01*
X130600000Y-89748000D01*
G75*
G02*
X130388000Y-89960000I-212000J0D01*
G01*
X128692000Y-89960000D01*
G75*
G02*
X128480000Y-89748000I0J212000D01*
G01*
G37*
G04 #@! TD.AperFunction*
G04 #@! TA.AperFunction,ComponentPad*
G36*
G01*
X143720000Y-89748000D02*
X143720000Y-88052000D01*
G75*
G02*
X143932000Y-87840000I212000J0D01*
G01*
X145628000Y-87840000D01*
G75*
G02*
X145840000Y-88052000I0J-212000D01*
G01*
X145840000Y-89748000D01*
G75*
G02*
X145628000Y-89960000I-212000J0D01*
G01*
X143932000Y-89960000D01*
G75*
G02*
X143720000Y-89748000I0J212000D01*
G01*
G37*
G04 #@! TD.AperFunction*
G04 #@! TA.AperFunction,ComponentPad*
G36*
G01*
X148800000Y-89748000D02*
X148800000Y-88052000D01*
G75*
G02*
X149012000Y-87840000I212000J0D01*
G01*
X150708000Y-87840000D01*
G75*
G02*
X150920000Y-88052000I0J-212000D01*
G01*
X150920000Y-89748000D01*
G75*
G02*
X150708000Y-89960000I-212000J0D01*
G01*
X149012000Y-89960000D01*
G75*
G02*
X148800000Y-89748000I0J212000D01*
G01*
G37*
G04 #@! TD.AperFunction*
G04 #@! TA.AperFunction,ComponentPad*
G36*
G01*
X164040000Y-89748000D02*
X164040000Y-88052000D01*
G75*
G02*
X164252000Y-87840000I212000J0D01*
G01*
X165948000Y-87840000D01*
G75*
G02*
X166160000Y-88052000I0J-212000D01*
G01*
X166160000Y-89748000D01*
G75*
G02*
X165948000Y-89960000I-212000J0D01*
G01*
X164252000Y-89960000D01*
G75*
G02*
X164040000Y-89748000I0J212000D01*
G01*
G37*
G04 #@! TD.AperFunction*
G04 #@! TA.AperFunction,ComponentPad*
G36*
G01*
X136100000Y-89748000D02*
X136100000Y-88052000D01*
G75*
G02*
X136312000Y-87840000I212000J0D01*
G01*
X138008000Y-87840000D01*
G75*
G02*
X138220000Y-88052000I0J-212000D01*
G01*
X138220000Y-89748000D01*
G75*
G02*
X138008000Y-89960000I-212000J0D01*
G01*
X136312000Y-89960000D01*
G75*
G02*
X136100000Y-89748000I0J212000D01*
G01*
G37*
G04 #@! TD.AperFunction*
G04 #@! TA.AperFunction,ComponentPad*
G36*
G01*
X146260000Y-89748000D02*
X146260000Y-88052000D01*
G75*
G02*
X146472000Y-87840000I212000J0D01*
G01*
X148168000Y-87840000D01*
G75*
G02*
X148380000Y-88052000I0J-212000D01*
G01*
X148380000Y-89748000D01*
G75*
G02*
X148168000Y-89960000I-212000J0D01*
G01*
X146472000Y-89960000D01*
G75*
G02*
X146260000Y-89748000I0J212000D01*
G01*
G37*
G04 #@! TD.AperFunction*
G04 #@! TA.AperFunction,ComponentPad*
G36*
G01*
X156420000Y-89748000D02*
X156420000Y-88052000D01*
G75*
G02*
X156632000Y-87840000I212000J0D01*
G01*
X158328000Y-87840000D01*
G75*
G02*
X158540000Y-88052000I0J-212000D01*
G01*
X158540000Y-89748000D01*
G75*
G02*
X158328000Y-89960000I-212000J0D01*
G01*
X156632000Y-89960000D01*
G75*
G02*
X156420000Y-89748000I0J212000D01*
G01*
G37*
G04 #@! TD.AperFunction*
G04 #@! TA.AperFunction,ComponentPad*
G36*
G01*
X131020000Y-89748000D02*
X131020000Y-88052000D01*
G75*
G02*
X131232000Y-87840000I212000J0D01*
G01*
X132928000Y-87840000D01*
G75*
G02*
X133140000Y-88052000I0J-212000D01*
G01*
X133140000Y-89748000D01*
G75*
G02*
X132928000Y-89960000I-212000J0D01*
G01*
X131232000Y-89960000D01*
G75*
G02*
X131020000Y-89748000I0J212000D01*
G01*
G37*
G04 #@! TD.AperFunction*
G04 #@! TA.AperFunction,ComponentPad*
G36*
G01*
X151340000Y-89748000D02*
X151340000Y-88052000D01*
G75*
G02*
X151552000Y-87840000I212000J0D01*
G01*
X153248000Y-87840000D01*
G75*
G02*
X153460000Y-88052000I0J-212000D01*
G01*
X153460000Y-89748000D01*
G75*
G02*
X153248000Y-89960000I-212000J0D01*
G01*
X151552000Y-89960000D01*
G75*
G02*
X151340000Y-89748000I0J212000D01*
G01*
G37*
G04 #@! TD.AperFunction*
G04 #@! TA.AperFunction,ComponentPad*
G36*
G01*
X138640000Y-89748000D02*
X138640000Y-88052000D01*
G75*
G02*
X138852000Y-87840000I212000J0D01*
G01*
X140548000Y-87840000D01*
G75*
G02*
X140760000Y-88052000I0J-212000D01*
G01*
X140760000Y-89748000D01*
G75*
G02*
X140548000Y-89960000I-212000J0D01*
G01*
X138852000Y-89960000D01*
G75*
G02*
X138640000Y-89748000I0J212000D01*
G01*
G37*
G04 #@! TD.AperFunction*
G04 #@! TA.AperFunction,ComponentPad*
G36*
G01*
X153880000Y-89748000D02*
X153880000Y-88052000D01*
G75*
G02*
X154092000Y-87840000I212000J0D01*
G01*
X155788000Y-87840000D01*
G75*
G02*
X156000000Y-88052000I0J-212000D01*
G01*
X156000000Y-89748000D01*
G75*
G02*
X155788000Y-89960000I-212000J0D01*
G01*
X154092000Y-89960000D01*
G75*
G02*
X153880000Y-89748000I0J212000D01*
G01*
G37*
G04 #@! TD.AperFunction*
G04 #@! TA.AperFunction,ComponentPad*
G36*
G01*
X158960000Y-89748000D02*
X158960000Y-88052000D01*
G75*
G02*
X159172000Y-87840000I212000J0D01*
G01*
X160868000Y-87840000D01*
G75*
G02*
X161080000Y-88052000I0J-212000D01*
G01*
X161080000Y-89748000D01*
G75*
G02*
X160868000Y-89960000I-212000J0D01*
G01*
X159172000Y-89960000D01*
G75*
G02*
X158960000Y-89748000I0J212000D01*
G01*
G37*
G04 #@! TD.AperFunction*
G04 #@! TA.AperFunction,ComponentPad*
G36*
G01*
X133560000Y-89748000D02*
X133560000Y-88052000D01*
G75*
G02*
X133772000Y-87840000I212000J0D01*
G01*
X135468000Y-87840000D01*
G75*
G02*
X135680000Y-88052000I0J-212000D01*
G01*
X135680000Y-89748000D01*
G75*
G02*
X135468000Y-89960000I-212000J0D01*
G01*
X133772000Y-89960000D01*
G75*
G02*
X133560000Y-89748000I0J212000D01*
G01*
G37*
G04 #@! TD.AperFunction*
G04 #@! TA.AperFunction,ComponentPad*
G36*
G01*
X141180000Y-92288000D02*
X141180000Y-90592000D01*
G75*
G02*
X141392000Y-90380000I212000J0D01*
G01*
X143088000Y-90380000D01*
G75*
G02*
X143300000Y-90592000I0J-212000D01*
G01*
X143300000Y-92288000D01*
G75*
G02*
X143088000Y-92500000I-212000J0D01*
G01*
X141392000Y-92500000D01*
G75*
G02*
X141180000Y-92288000I0J212000D01*
G01*
G37*
G04 #@! TD.AperFunction*
G04 #@! TA.AperFunction,ComponentPad*
G36*
G01*
X161500000Y-92288000D02*
X161500000Y-90592000D01*
G75*
G02*
X161712000Y-90380000I212000J0D01*
G01*
X163408000Y-90380000D01*
G75*
G02*
X163620000Y-90592000I0J-212000D01*
G01*
X163620000Y-92288000D01*
G75*
G02*
X163408000Y-92500000I-212000J0D01*
G01*
X161712000Y-92500000D01*
G75*
G02*
X161500000Y-92288000I0J212000D01*
G01*
G37*
G04 #@! TD.AperFunction*
G04 #@! TA.AperFunction,ComponentPad*
G36*
G01*
X128480000Y-92288000D02*
X128480000Y-90592000D01*
G75*
G02*
X128692000Y-90380000I212000J0D01*
G01*
X130388000Y-90380000D01*
G75*
G02*
X130600000Y-90592000I0J-212000D01*
G01*
X130600000Y-92288000D01*
G75*
G02*
X130388000Y-92500000I-212000J0D01*
G01*
X128692000Y-92500000D01*
G75*
G02*
X128480000Y-92288000I0J212000D01*
G01*
G37*
G04 #@! TD.AperFunction*
G04 #@! TA.AperFunction,ComponentPad*
G36*
G01*
X143720000Y-92288000D02*
X143720000Y-90592000D01*
G75*
G02*
X143932000Y-90380000I212000J0D01*
G01*
X145628000Y-90380000D01*
G75*
G02*
X145840000Y-90592000I0J-212000D01*
G01*
X145840000Y-92288000D01*
G75*
G02*
X145628000Y-92500000I-212000J0D01*
G01*
X143932000Y-92500000D01*
G75*
G02*
X143720000Y-92288000I0J212000D01*
G01*
G37*
G04 #@! TD.AperFunction*
G04 #@! TA.AperFunction,ComponentPad*
G36*
G01*
X148800000Y-92288000D02*
X148800000Y-90592000D01*
G75*
G02*
X149012000Y-90380000I212000J0D01*
G01*
X150708000Y-90380000D01*
G75*
G02*
X150920000Y-90592000I0J-212000D01*
G01*
X150920000Y-92288000D01*
G75*
G02*
X150708000Y-92500000I-212000J0D01*
G01*
X149012000Y-92500000D01*
G75*
G02*
X148800000Y-92288000I0J212000D01*
G01*
G37*
G04 #@! TD.AperFunction*
G04 #@! TA.AperFunction,ComponentPad*
G36*
G01*
X136100000Y-92288000D02*
X136100000Y-90592000D01*
G75*
G02*
X136312000Y-90380000I212000J0D01*
G01*
X138008000Y-90380000D01*
G75*
G02*
X138220000Y-90592000I0J-212000D01*
G01*
X138220000Y-92288000D01*
G75*
G02*
X138008000Y-92500000I-212000J0D01*
G01*
X136312000Y-92500000D01*
G75*
G02*
X136100000Y-92288000I0J212000D01*
G01*
G37*
G04 #@! TD.AperFunction*
G04 #@! TA.AperFunction,ComponentPad*
G36*
G01*
X146260000Y-92288000D02*
X146260000Y-90592000D01*
G75*
G02*
X146472000Y-90380000I212000J0D01*
G01*
X148168000Y-90380000D01*
G75*
G02*
X148380000Y-90592000I0J-212000D01*
G01*
X148380000Y-92288000D01*
G75*
G02*
X148168000Y-92500000I-212000J0D01*
G01*
X146472000Y-92500000D01*
G75*
G02*
X146260000Y-92288000I0J212000D01*
G01*
G37*
G04 #@! TD.AperFunction*
G04 #@! TA.AperFunction,ComponentPad*
G36*
G01*
X156420000Y-92288000D02*
X156420000Y-90592000D01*
G75*
G02*
X156632000Y-90380000I212000J0D01*
G01*
X158328000Y-90380000D01*
G75*
G02*
X158540000Y-90592000I0J-212000D01*
G01*
X158540000Y-92288000D01*
G75*
G02*
X158328000Y-92500000I-212000J0D01*
G01*
X156632000Y-92500000D01*
G75*
G02*
X156420000Y-92288000I0J212000D01*
G01*
G37*
G04 #@! TD.AperFunction*
G04 #@! TA.AperFunction,ComponentPad*
G36*
G01*
X131020000Y-92288000D02*
X131020000Y-90592000D01*
G75*
G02*
X131232000Y-90380000I212000J0D01*
G01*
X132928000Y-90380000D01*
G75*
G02*
X133140000Y-90592000I0J-212000D01*
G01*
X133140000Y-92288000D01*
G75*
G02*
X132928000Y-92500000I-212000J0D01*
G01*
X131232000Y-92500000D01*
G75*
G02*
X131020000Y-92288000I0J212000D01*
G01*
G37*
G04 #@! TD.AperFunction*
G04 #@! TA.AperFunction,ComponentPad*
G36*
G01*
X151340000Y-92288000D02*
X151340000Y-90592000D01*
G75*
G02*
X151552000Y-90380000I212000J0D01*
G01*
X153248000Y-90380000D01*
G75*
G02*
X153460000Y-90592000I0J-212000D01*
G01*
X153460000Y-92288000D01*
G75*
G02*
X153248000Y-92500000I-212000J0D01*
G01*
X151552000Y-92500000D01*
G75*
G02*
X151340000Y-92288000I0J212000D01*
G01*
G37*
G04 #@! TD.AperFunction*
G04 #@! TA.AperFunction,ComponentPad*
G36*
G01*
X138640000Y-92288000D02*
X138640000Y-90592000D01*
G75*
G02*
X138852000Y-90380000I212000J0D01*
G01*
X140548000Y-90380000D01*
G75*
G02*
X140760000Y-90592000I0J-212000D01*
G01*
X140760000Y-92288000D01*
G75*
G02*
X140548000Y-92500000I-212000J0D01*
G01*
X138852000Y-92500000D01*
G75*
G02*
X138640000Y-92288000I0J212000D01*
G01*
G37*
G04 #@! TD.AperFunction*
G04 #@! TA.AperFunction,ComponentPad*
G36*
G01*
X153880000Y-92288000D02*
X153880000Y-90592000D01*
G75*
G02*
X154092000Y-90380000I212000J0D01*
G01*
X155788000Y-90380000D01*
G75*
G02*
X156000000Y-90592000I0J-212000D01*
G01*
X156000000Y-92288000D01*
G75*
G02*
X155788000Y-92500000I-212000J0D01*
G01*
X154092000Y-92500000D01*
G75*
G02*
X153880000Y-92288000I0J212000D01*
G01*
G37*
G04 #@! TD.AperFunction*
G04 #@! TA.AperFunction,ComponentPad*
G36*
G01*
X158960000Y-92288000D02*
X158960000Y-90592000D01*
G75*
G02*
X159172000Y-90380000I212000J0D01*
G01*
X160868000Y-90380000D01*
G75*
G02*
X161080000Y-90592000I0J-212000D01*
G01*
X161080000Y-92288000D01*
G75*
G02*
X160868000Y-92500000I-212000J0D01*
G01*
X159172000Y-92500000D01*
G75*
G02*
X158960000Y-92288000I0J212000D01*
G01*
G37*
G04 #@! TD.AperFunction*
G04 #@! TA.AperFunction,ComponentPad*
G36*
G01*
X133560000Y-92288000D02*
X133560000Y-90592000D01*
G75*
G02*
X133772000Y-90380000I212000J0D01*
G01*
X135468000Y-90380000D01*
G75*
G02*
X135680000Y-90592000I0J-212000D01*
G01*
X135680000Y-92288000D01*
G75*
G02*
X135468000Y-92500000I-212000J0D01*
G01*
X133772000Y-92500000D01*
G75*
G02*
X133560000Y-92288000I0J212000D01*
G01*
G37*
G04 #@! TD.AperFunction*
G04 #@! TA.AperFunction,ComponentPad*
G36*
G01*
X164040000Y-92288000D02*
X164040000Y-90592000D01*
G75*
G02*
X164252000Y-90380000I212000J0D01*
G01*
X165948000Y-90380000D01*
G75*
G02*
X166160000Y-90592000I0J-212000D01*
G01*
X166160000Y-92288000D01*
G75*
G02*
X165948000Y-92500000I-212000J0D01*
G01*
X164252000Y-92500000D01*
G75*
G02*
X164040000Y-92288000I0J212000D01*
G01*
G37*
G04 #@! TD.AperFunction*
D11*
X129540000Y-137160000D03*
X129540000Y-142240000D03*
X129540000Y-139700000D03*
X129540000Y-138430000D03*
X129540000Y-140970000D03*
X133350000Y-137160000D03*
X130810000Y-137160000D03*
X130810000Y-142240000D03*
X133350000Y-142240000D03*
X134620000Y-142240000D03*
X133350000Y-139700000D03*
X130810000Y-139700000D03*
X134620000Y-139700000D03*
X132080000Y-139700000D03*
X132080000Y-138430000D03*
X133350000Y-138430000D03*
X130810000Y-138430000D03*
X133350000Y-140970000D03*
X132080000Y-142240000D03*
X130810000Y-140970000D03*
X134620000Y-138430000D03*
X134620000Y-140970000D03*
X132080000Y-140970000D03*
X132080000Y-137160000D03*
X134620000Y-137160000D03*
X135890000Y-142240000D03*
X138430000Y-142240000D03*
X139700000Y-142240000D03*
X138430000Y-139700000D03*
X135890000Y-139700000D03*
X139700000Y-139700000D03*
X137160000Y-139700000D03*
X137160000Y-138430000D03*
X138430000Y-138430000D03*
X135890000Y-138430000D03*
X138430000Y-140970000D03*
X137160000Y-142240000D03*
X135890000Y-140970000D03*
X139700000Y-138430000D03*
X139700000Y-140970000D03*
X137160000Y-140970000D03*
X137160000Y-137160000D03*
X138430000Y-137160000D03*
X135890000Y-137160000D03*
X139700000Y-137160000D03*
X140970000Y-142240000D03*
X142240000Y-137160000D03*
X143510000Y-137160000D03*
X140970000Y-137160000D03*
X143510000Y-138430000D03*
X140970000Y-138430000D03*
X142240000Y-138430000D03*
X143510000Y-139700000D03*
X140970000Y-139700000D03*
X142240000Y-139700000D03*
X142240000Y-140970000D03*
X143510000Y-140970000D03*
X140970000Y-140970000D03*
X142240000Y-142240000D03*
X143510000Y-142240000D03*
G04 #@! TA.AperFunction,ComponentPad*
G36*
G01*
X143720000Y-130388000D02*
X143720000Y-128692000D01*
G75*
G02*
X143932000Y-128480000I212000J0D01*
G01*
X145628000Y-128480000D01*
G75*
G02*
X145840000Y-128692000I0J-212000D01*
G01*
X145840000Y-130388000D01*
G75*
G02*
X145628000Y-130600000I-212000J0D01*
G01*
X143932000Y-130600000D01*
G75*
G02*
X143720000Y-130388000I0J212000D01*
G01*
G37*
G04 #@! TD.AperFunction*
G04 #@! TA.AperFunction,ComponentPad*
G36*
G01*
X143720000Y-135468000D02*
X143720000Y-133772000D01*
G75*
G02*
X143932000Y-133560000I212000J0D01*
G01*
X145628000Y-133560000D01*
G75*
G02*
X145840000Y-133772000I0J-212000D01*
G01*
X145840000Y-135468000D01*
G75*
G02*
X145628000Y-135680000I-212000J0D01*
G01*
X143932000Y-135680000D01*
G75*
G02*
X143720000Y-135468000I0J212000D01*
G01*
G37*
G04 #@! TD.AperFunction*
G04 #@! TA.AperFunction,ComponentPad*
G36*
G01*
X143720000Y-132928000D02*
X143720000Y-131232000D01*
G75*
G02*
X143932000Y-131020000I212000J0D01*
G01*
X145628000Y-131020000D01*
G75*
G02*
X145840000Y-131232000I0J-212000D01*
G01*
X145840000Y-132928000D01*
G75*
G02*
X145628000Y-133140000I-212000J0D01*
G01*
X143932000Y-133140000D01*
G75*
G02*
X143720000Y-132928000I0J212000D01*
G01*
G37*
G04 #@! TD.AperFunction*
G04 #@! TA.AperFunction,ComponentPad*
G36*
G01*
X148800000Y-130388000D02*
X148800000Y-128692000D01*
G75*
G02*
X149012000Y-128480000I212000J0D01*
G01*
X150708000Y-128480000D01*
G75*
G02*
X150920000Y-128692000I0J-212000D01*
G01*
X150920000Y-130388000D01*
G75*
G02*
X150708000Y-130600000I-212000J0D01*
G01*
X149012000Y-130600000D01*
G75*
G02*
X148800000Y-130388000I0J212000D01*
G01*
G37*
G04 #@! TD.AperFunction*
G04 #@! TA.AperFunction,ComponentPad*
G36*
G01*
X148800000Y-135468000D02*
X148800000Y-133772000D01*
G75*
G02*
X149012000Y-133560000I212000J0D01*
G01*
X150708000Y-133560000D01*
G75*
G02*
X150920000Y-133772000I0J-212000D01*
G01*
X150920000Y-135468000D01*
G75*
G02*
X150708000Y-135680000I-212000J0D01*
G01*
X149012000Y-135680000D01*
G75*
G02*
X148800000Y-135468000I0J212000D01*
G01*
G37*
G04 #@! TD.AperFunction*
G04 #@! TA.AperFunction,ComponentPad*
G36*
G01*
X148800000Y-132928000D02*
X148800000Y-131232000D01*
G75*
G02*
X149012000Y-131020000I212000J0D01*
G01*
X150708000Y-131020000D01*
G75*
G02*
X150920000Y-131232000I0J-212000D01*
G01*
X150920000Y-132928000D01*
G75*
G02*
X150708000Y-133140000I-212000J0D01*
G01*
X149012000Y-133140000D01*
G75*
G02*
X148800000Y-132928000I0J212000D01*
G01*
G37*
G04 #@! TD.AperFunction*
G04 #@! TA.AperFunction,ComponentPad*
G36*
G01*
X153880000Y-135468000D02*
X153880000Y-133772000D01*
G75*
G02*
X154092000Y-133560000I212000J0D01*
G01*
X155788000Y-133560000D01*
G75*
G02*
X156000000Y-133772000I0J-212000D01*
G01*
X156000000Y-135468000D01*
G75*
G02*
X155788000Y-135680000I-212000J0D01*
G01*
X154092000Y-135680000D01*
G75*
G02*
X153880000Y-135468000I0J212000D01*
G01*
G37*
G04 #@! TD.AperFunction*
G04 #@! TA.AperFunction,ComponentPad*
G36*
G01*
X153880000Y-132928000D02*
X153880000Y-131232000D01*
G75*
G02*
X154092000Y-131020000I212000J0D01*
G01*
X155788000Y-131020000D01*
G75*
G02*
X156000000Y-131232000I0J-212000D01*
G01*
X156000000Y-132928000D01*
G75*
G02*
X155788000Y-133140000I-212000J0D01*
G01*
X154092000Y-133140000D01*
G75*
G02*
X153880000Y-132928000I0J212000D01*
G01*
G37*
G04 #@! TD.AperFunction*
G04 #@! TA.AperFunction,ComponentPad*
G36*
G01*
X153880000Y-130388000D02*
X153880000Y-128692000D01*
G75*
G02*
X154092000Y-128480000I212000J0D01*
G01*
X155788000Y-128480000D01*
G75*
G02*
X156000000Y-128692000I0J-212000D01*
G01*
X156000000Y-130388000D01*
G75*
G02*
X155788000Y-130600000I-212000J0D01*
G01*
X154092000Y-130600000D01*
G75*
G02*
X153880000Y-130388000I0J212000D01*
G01*
G37*
G04 #@! TD.AperFunction*
G04 #@! TA.AperFunction,ComponentPad*
G36*
G01*
X141180000Y-130388000D02*
X141180000Y-128692000D01*
G75*
G02*
X141392000Y-128480000I212000J0D01*
G01*
X143088000Y-128480000D01*
G75*
G02*
X143300000Y-128692000I0J-212000D01*
G01*
X143300000Y-130388000D01*
G75*
G02*
X143088000Y-130600000I-212000J0D01*
G01*
X141392000Y-130600000D01*
G75*
G02*
X141180000Y-130388000I0J212000D01*
G01*
G37*
G04 #@! TD.AperFunction*
G04 #@! TA.AperFunction,ComponentPad*
G36*
G01*
X133560000Y-130388000D02*
X133560000Y-128692000D01*
G75*
G02*
X133772000Y-128480000I212000J0D01*
G01*
X135468000Y-128480000D01*
G75*
G02*
X135680000Y-128692000I0J-212000D01*
G01*
X135680000Y-130388000D01*
G75*
G02*
X135468000Y-130600000I-212000J0D01*
G01*
X133772000Y-130600000D01*
G75*
G02*
X133560000Y-130388000I0J212000D01*
G01*
G37*
G04 #@! TD.AperFunction*
G04 #@! TA.AperFunction,ComponentPad*
G36*
G01*
X133560000Y-135468000D02*
X133560000Y-133772000D01*
G75*
G02*
X133772000Y-133560000I212000J0D01*
G01*
X135468000Y-133560000D01*
G75*
G02*
X135680000Y-133772000I0J-212000D01*
G01*
X135680000Y-135468000D01*
G75*
G02*
X135468000Y-135680000I-212000J0D01*
G01*
X133772000Y-135680000D01*
G75*
G02*
X133560000Y-135468000I0J212000D01*
G01*
G37*
G04 #@! TD.AperFunction*
G04 #@! TA.AperFunction,ComponentPad*
G36*
G01*
X164040000Y-132928000D02*
X164040000Y-131232000D01*
G75*
G02*
X164252000Y-131020000I212000J0D01*
G01*
X165948000Y-131020000D01*
G75*
G02*
X166160000Y-131232000I0J-212000D01*
G01*
X166160000Y-132928000D01*
G75*
G02*
X165948000Y-133140000I-212000J0D01*
G01*
X164252000Y-133140000D01*
G75*
G02*
X164040000Y-132928000I0J212000D01*
G01*
G37*
G04 #@! TD.AperFunction*
G04 #@! TA.AperFunction,ComponentPad*
G36*
G01*
X164040000Y-130388000D02*
X164040000Y-128692000D01*
G75*
G02*
X164252000Y-128480000I212000J0D01*
G01*
X165948000Y-128480000D01*
G75*
G02*
X166160000Y-128692000I0J-212000D01*
G01*
X166160000Y-130388000D01*
G75*
G02*
X165948000Y-130600000I-212000J0D01*
G01*
X164252000Y-130600000D01*
G75*
G02*
X164040000Y-130388000I0J212000D01*
G01*
G37*
G04 #@! TD.AperFunction*
G04 #@! TA.AperFunction,ComponentPad*
G36*
G01*
X164040000Y-135468000D02*
X164040000Y-133772000D01*
G75*
G02*
X164252000Y-133560000I212000J0D01*
G01*
X165948000Y-133560000D01*
G75*
G02*
X166160000Y-133772000I0J-212000D01*
G01*
X166160000Y-135468000D01*
G75*
G02*
X165948000Y-135680000I-212000J0D01*
G01*
X164252000Y-135680000D01*
G75*
G02*
X164040000Y-135468000I0J212000D01*
G01*
G37*
G04 #@! TD.AperFunction*
G04 #@! TA.AperFunction,ComponentPad*
G36*
G01*
X136100000Y-130388000D02*
X136100000Y-128692000D01*
G75*
G02*
X136312000Y-128480000I212000J0D01*
G01*
X138008000Y-128480000D01*
G75*
G02*
X138220000Y-128692000I0J-212000D01*
G01*
X138220000Y-130388000D01*
G75*
G02*
X138008000Y-130600000I-212000J0D01*
G01*
X136312000Y-130600000D01*
G75*
G02*
X136100000Y-130388000I0J212000D01*
G01*
G37*
G04 #@! TD.AperFunction*
G04 #@! TA.AperFunction,ComponentPad*
G36*
G01*
X156420000Y-135468000D02*
X156420000Y-133772000D01*
G75*
G02*
X156632000Y-133560000I212000J0D01*
G01*
X158328000Y-133560000D01*
G75*
G02*
X158540000Y-133772000I0J-212000D01*
G01*
X158540000Y-135468000D01*
G75*
G02*
X158328000Y-135680000I-212000J0D01*
G01*
X156632000Y-135680000D01*
G75*
G02*
X156420000Y-135468000I0J212000D01*
G01*
G37*
G04 #@! TD.AperFunction*
G04 #@! TA.AperFunction,ComponentPad*
G36*
G01*
X156420000Y-132928000D02*
X156420000Y-131232000D01*
G75*
G02*
X156632000Y-131020000I212000J0D01*
G01*
X158328000Y-131020000D01*
G75*
G02*
X158540000Y-131232000I0J-212000D01*
G01*
X158540000Y-132928000D01*
G75*
G02*
X158328000Y-133140000I-212000J0D01*
G01*
X156632000Y-133140000D01*
G75*
G02*
X156420000Y-132928000I0J212000D01*
G01*
G37*
G04 #@! TD.AperFunction*
G04 #@! TA.AperFunction,ComponentPad*
G36*
G01*
X156420000Y-130388000D02*
X156420000Y-128692000D01*
G75*
G02*
X156632000Y-128480000I212000J0D01*
G01*
X158328000Y-128480000D01*
G75*
G02*
X158540000Y-128692000I0J-212000D01*
G01*
X158540000Y-130388000D01*
G75*
G02*
X158328000Y-130600000I-212000J0D01*
G01*
X156632000Y-130600000D01*
G75*
G02*
X156420000Y-130388000I0J212000D01*
G01*
G37*
G04 #@! TD.AperFunction*
G04 #@! TA.AperFunction,ComponentPad*
G36*
G01*
X136100000Y-135468000D02*
X136100000Y-133772000D01*
G75*
G02*
X136312000Y-133560000I212000J0D01*
G01*
X138008000Y-133560000D01*
G75*
G02*
X138220000Y-133772000I0J-212000D01*
G01*
X138220000Y-135468000D01*
G75*
G02*
X138008000Y-135680000I-212000J0D01*
G01*
X136312000Y-135680000D01*
G75*
G02*
X136100000Y-135468000I0J212000D01*
G01*
G37*
G04 #@! TD.AperFunction*
G04 #@! TA.AperFunction,ComponentPad*
G36*
G01*
X136100000Y-132928000D02*
X136100000Y-131232000D01*
G75*
G02*
X136312000Y-131020000I212000J0D01*
G01*
X138008000Y-131020000D01*
G75*
G02*
X138220000Y-131232000I0J-212000D01*
G01*
X138220000Y-132928000D01*
G75*
G02*
X138008000Y-133140000I-212000J0D01*
G01*
X136312000Y-133140000D01*
G75*
G02*
X136100000Y-132928000I0J212000D01*
G01*
G37*
G04 #@! TD.AperFunction*
G04 #@! TA.AperFunction,ComponentPad*
G36*
G01*
X146260000Y-130388000D02*
X146260000Y-128692000D01*
G75*
G02*
X146472000Y-128480000I212000J0D01*
G01*
X148168000Y-128480000D01*
G75*
G02*
X148380000Y-128692000I0J-212000D01*
G01*
X148380000Y-130388000D01*
G75*
G02*
X148168000Y-130600000I-212000J0D01*
G01*
X146472000Y-130600000D01*
G75*
G02*
X146260000Y-130388000I0J212000D01*
G01*
G37*
G04 #@! TD.AperFunction*
G04 #@! TA.AperFunction,ComponentPad*
G36*
G01*
X146260000Y-135468000D02*
X146260000Y-133772000D01*
G75*
G02*
X146472000Y-133560000I212000J0D01*
G01*
X148168000Y-133560000D01*
G75*
G02*
X148380000Y-133772000I0J-212000D01*
G01*
X148380000Y-135468000D01*
G75*
G02*
X148168000Y-135680000I-212000J0D01*
G01*
X146472000Y-135680000D01*
G75*
G02*
X146260000Y-135468000I0J212000D01*
G01*
G37*
G04 #@! TD.AperFunction*
G04 #@! TA.AperFunction,ComponentPad*
G36*
G01*
X146260000Y-132928000D02*
X146260000Y-131232000D01*
G75*
G02*
X146472000Y-131020000I212000J0D01*
G01*
X148168000Y-131020000D01*
G75*
G02*
X148380000Y-131232000I0J-212000D01*
G01*
X148380000Y-132928000D01*
G75*
G02*
X148168000Y-133140000I-212000J0D01*
G01*
X146472000Y-133140000D01*
G75*
G02*
X146260000Y-132928000I0J212000D01*
G01*
G37*
G04 #@! TD.AperFunction*
G04 #@! TA.AperFunction,ComponentPad*
G36*
G01*
X158960000Y-135468000D02*
X158960000Y-133772000D01*
G75*
G02*
X159172000Y-133560000I212000J0D01*
G01*
X160868000Y-133560000D01*
G75*
G02*
X161080000Y-133772000I0J-212000D01*
G01*
X161080000Y-135468000D01*
G75*
G02*
X160868000Y-135680000I-212000J0D01*
G01*
X159172000Y-135680000D01*
G75*
G02*
X158960000Y-135468000I0J212000D01*
G01*
G37*
G04 #@! TD.AperFunction*
G04 #@! TA.AperFunction,ComponentPad*
G36*
G01*
X158960000Y-132928000D02*
X158960000Y-131232000D01*
G75*
G02*
X159172000Y-131020000I212000J0D01*
G01*
X160868000Y-131020000D01*
G75*
G02*
X161080000Y-131232000I0J-212000D01*
G01*
X161080000Y-132928000D01*
G75*
G02*
X160868000Y-133140000I-212000J0D01*
G01*
X159172000Y-133140000D01*
G75*
G02*
X158960000Y-132928000I0J212000D01*
G01*
G37*
G04 #@! TD.AperFunction*
G04 #@! TA.AperFunction,ComponentPad*
G36*
G01*
X158960000Y-130388000D02*
X158960000Y-128692000D01*
G75*
G02*
X159172000Y-128480000I212000J0D01*
G01*
X160868000Y-128480000D01*
G75*
G02*
X161080000Y-128692000I0J-212000D01*
G01*
X161080000Y-130388000D01*
G75*
G02*
X160868000Y-130600000I-212000J0D01*
G01*
X159172000Y-130600000D01*
G75*
G02*
X158960000Y-130388000I0J212000D01*
G01*
G37*
G04 #@! TD.AperFunction*
G04 #@! TA.AperFunction,ComponentPad*
G36*
G01*
X161500000Y-132928000D02*
X161500000Y-131232000D01*
G75*
G02*
X161712000Y-131020000I212000J0D01*
G01*
X163408000Y-131020000D01*
G75*
G02*
X163620000Y-131232000I0J-212000D01*
G01*
X163620000Y-132928000D01*
G75*
G02*
X163408000Y-133140000I-212000J0D01*
G01*
X161712000Y-133140000D01*
G75*
G02*
X161500000Y-132928000I0J212000D01*
G01*
G37*
G04 #@! TD.AperFunction*
G04 #@! TA.AperFunction,ComponentPad*
G36*
G01*
X161500000Y-130388000D02*
X161500000Y-128692000D01*
G75*
G02*
X161712000Y-128480000I212000J0D01*
G01*
X163408000Y-128480000D01*
G75*
G02*
X163620000Y-128692000I0J-212000D01*
G01*
X163620000Y-130388000D01*
G75*
G02*
X163408000Y-130600000I-212000J0D01*
G01*
X161712000Y-130600000D01*
G75*
G02*
X161500000Y-130388000I0J212000D01*
G01*
G37*
G04 #@! TD.AperFunction*
G04 #@! TA.AperFunction,ComponentPad*
G36*
G01*
X161500000Y-135468000D02*
X161500000Y-133772000D01*
G75*
G02*
X161712000Y-133560000I212000J0D01*
G01*
X163408000Y-133560000D01*
G75*
G02*
X163620000Y-133772000I0J-212000D01*
G01*
X163620000Y-135468000D01*
G75*
G02*
X163408000Y-135680000I-212000J0D01*
G01*
X161712000Y-135680000D01*
G75*
G02*
X161500000Y-135468000I0J212000D01*
G01*
G37*
G04 #@! TD.AperFunction*
G04 #@! TA.AperFunction,ComponentPad*
G36*
G01*
X133560000Y-132928000D02*
X133560000Y-131232000D01*
G75*
G02*
X133772000Y-131020000I212000J0D01*
G01*
X135468000Y-131020000D01*
G75*
G02*
X135680000Y-131232000I0J-212000D01*
G01*
X135680000Y-132928000D01*
G75*
G02*
X135468000Y-133140000I-212000J0D01*
G01*
X133772000Y-133140000D01*
G75*
G02*
X133560000Y-132928000I0J212000D01*
G01*
G37*
G04 #@! TD.AperFunction*
G04 #@! TA.AperFunction,ComponentPad*
G36*
G01*
X131020000Y-135468000D02*
X131020000Y-133772000D01*
G75*
G02*
X131232000Y-133560000I212000J0D01*
G01*
X132928000Y-133560000D01*
G75*
G02*
X133140000Y-133772000I0J-212000D01*
G01*
X133140000Y-135468000D01*
G75*
G02*
X132928000Y-135680000I-212000J0D01*
G01*
X131232000Y-135680000D01*
G75*
G02*
X131020000Y-135468000I0J212000D01*
G01*
G37*
G04 #@! TD.AperFunction*
G04 #@! TA.AperFunction,ComponentPad*
G36*
G01*
X141180000Y-135468000D02*
X141180000Y-133772000D01*
G75*
G02*
X141392000Y-133560000I212000J0D01*
G01*
X143088000Y-133560000D01*
G75*
G02*
X143300000Y-133772000I0J-212000D01*
G01*
X143300000Y-135468000D01*
G75*
G02*
X143088000Y-135680000I-212000J0D01*
G01*
X141392000Y-135680000D01*
G75*
G02*
X141180000Y-135468000I0J212000D01*
G01*
G37*
G04 #@! TD.AperFunction*
G04 #@! TA.AperFunction,ComponentPad*
G36*
G01*
X141180000Y-132928000D02*
X141180000Y-131232000D01*
G75*
G02*
X141392000Y-131020000I212000J0D01*
G01*
X143088000Y-131020000D01*
G75*
G02*
X143300000Y-131232000I0J-212000D01*
G01*
X143300000Y-132928000D01*
G75*
G02*
X143088000Y-133140000I-212000J0D01*
G01*
X141392000Y-133140000D01*
G75*
G02*
X141180000Y-132928000I0J212000D01*
G01*
G37*
G04 #@! TD.AperFunction*
G04 #@! TA.AperFunction,ComponentPad*
G36*
G01*
X131020000Y-132928000D02*
X131020000Y-131232000D01*
G75*
G02*
X131232000Y-131020000I212000J0D01*
G01*
X132928000Y-131020000D01*
G75*
G02*
X133140000Y-131232000I0J-212000D01*
G01*
X133140000Y-132928000D01*
G75*
G02*
X132928000Y-133140000I-212000J0D01*
G01*
X131232000Y-133140000D01*
G75*
G02*
X131020000Y-132928000I0J212000D01*
G01*
G37*
G04 #@! TD.AperFunction*
G04 #@! TA.AperFunction,ComponentPad*
G36*
G01*
X138640000Y-130388000D02*
X138640000Y-128692000D01*
G75*
G02*
X138852000Y-128480000I212000J0D01*
G01*
X140548000Y-128480000D01*
G75*
G02*
X140760000Y-128692000I0J-212000D01*
G01*
X140760000Y-130388000D01*
G75*
G02*
X140548000Y-130600000I-212000J0D01*
G01*
X138852000Y-130600000D01*
G75*
G02*
X138640000Y-130388000I0J212000D01*
G01*
G37*
G04 #@! TD.AperFunction*
G04 #@! TA.AperFunction,ComponentPad*
G36*
G01*
X131020000Y-130388000D02*
X131020000Y-128692000D01*
G75*
G02*
X131232000Y-128480000I212000J0D01*
G01*
X132928000Y-128480000D01*
G75*
G02*
X133140000Y-128692000I0J-212000D01*
G01*
X133140000Y-130388000D01*
G75*
G02*
X132928000Y-130600000I-212000J0D01*
G01*
X131232000Y-130600000D01*
G75*
G02*
X131020000Y-130388000I0J212000D01*
G01*
G37*
G04 #@! TD.AperFunction*
G04 #@! TA.AperFunction,ComponentPad*
G36*
G01*
X128480000Y-135468000D02*
X128480000Y-133772000D01*
G75*
G02*
X128692000Y-133560000I212000J0D01*
G01*
X130388000Y-133560000D01*
G75*
G02*
X130600000Y-133772000I0J-212000D01*
G01*
X130600000Y-135468000D01*
G75*
G02*
X130388000Y-135680000I-212000J0D01*
G01*
X128692000Y-135680000D01*
G75*
G02*
X128480000Y-135468000I0J212000D01*
G01*
G37*
G04 #@! TD.AperFunction*
G04 #@! TA.AperFunction,ComponentPad*
G36*
G01*
X128480000Y-132928000D02*
X128480000Y-131232000D01*
G75*
G02*
X128692000Y-131020000I212000J0D01*
G01*
X130388000Y-131020000D01*
G75*
G02*
X130600000Y-131232000I0J-212000D01*
G01*
X130600000Y-132928000D01*
G75*
G02*
X130388000Y-133140000I-212000J0D01*
G01*
X128692000Y-133140000D01*
G75*
G02*
X128480000Y-132928000I0J212000D01*
G01*
G37*
G04 #@! TD.AperFunction*
G04 #@! TA.AperFunction,ComponentPad*
G36*
G01*
X128480000Y-130388000D02*
X128480000Y-128692000D01*
G75*
G02*
X128692000Y-128480000I212000J0D01*
G01*
X130388000Y-128480000D01*
G75*
G02*
X130600000Y-128692000I0J-212000D01*
G01*
X130600000Y-130388000D01*
G75*
G02*
X130388000Y-130600000I-212000J0D01*
G01*
X128692000Y-130600000D01*
G75*
G02*
X128480000Y-130388000I0J212000D01*
G01*
G37*
G04 #@! TD.AperFunction*
G04 #@! TA.AperFunction,ComponentPad*
G36*
G01*
X138640000Y-135468000D02*
X138640000Y-133772000D01*
G75*
G02*
X138852000Y-133560000I212000J0D01*
G01*
X140548000Y-133560000D01*
G75*
G02*
X140760000Y-133772000I0J-212000D01*
G01*
X140760000Y-135468000D01*
G75*
G02*
X140548000Y-135680000I-212000J0D01*
G01*
X138852000Y-135680000D01*
G75*
G02*
X138640000Y-135468000I0J212000D01*
G01*
G37*
G04 #@! TD.AperFunction*
G04 #@! TA.AperFunction,ComponentPad*
G36*
G01*
X151340000Y-130388000D02*
X151340000Y-128692000D01*
G75*
G02*
X151552000Y-128480000I212000J0D01*
G01*
X153248000Y-128480000D01*
G75*
G02*
X153460000Y-128692000I0J-212000D01*
G01*
X153460000Y-130388000D01*
G75*
G02*
X153248000Y-130600000I-212000J0D01*
G01*
X151552000Y-130600000D01*
G75*
G02*
X151340000Y-130388000I0J212000D01*
G01*
G37*
G04 #@! TD.AperFunction*
G04 #@! TA.AperFunction,ComponentPad*
G36*
G01*
X138640000Y-132928000D02*
X138640000Y-131232000D01*
G75*
G02*
X138852000Y-131020000I212000J0D01*
G01*
X140548000Y-131020000D01*
G75*
G02*
X140760000Y-131232000I0J-212000D01*
G01*
X140760000Y-132928000D01*
G75*
G02*
X140548000Y-133140000I-212000J0D01*
G01*
X138852000Y-133140000D01*
G75*
G02*
X138640000Y-132928000I0J212000D01*
G01*
G37*
G04 #@! TD.AperFunction*
G04 #@! TA.AperFunction,ComponentPad*
G36*
G01*
X151340000Y-135468000D02*
X151340000Y-133772000D01*
G75*
G02*
X151552000Y-133560000I212000J0D01*
G01*
X153248000Y-133560000D01*
G75*
G02*
X153460000Y-133772000I0J-212000D01*
G01*
X153460000Y-135468000D01*
G75*
G02*
X153248000Y-135680000I-212000J0D01*
G01*
X151552000Y-135680000D01*
G75*
G02*
X151340000Y-135468000I0J212000D01*
G01*
G37*
G04 #@! TD.AperFunction*
G04 #@! TA.AperFunction,ComponentPad*
G36*
G01*
X151340000Y-132928000D02*
X151340000Y-131232000D01*
G75*
G02*
X151552000Y-131020000I212000J0D01*
G01*
X153248000Y-131020000D01*
G75*
G02*
X153460000Y-131232000I0J-212000D01*
G01*
X153460000Y-132928000D01*
G75*
G02*
X153248000Y-133140000I-212000J0D01*
G01*
X151552000Y-133140000D01*
G75*
G02*
X151340000Y-132928000I0J212000D01*
G01*
G37*
G04 #@! TD.AperFunction*
G04 #@! TA.AperFunction,ComponentPad*
G36*
G01*
X128480000Y-97368000D02*
X128480000Y-95672000D01*
G75*
G02*
X128692000Y-95460000I212000J0D01*
G01*
X130388000Y-95460000D01*
G75*
G02*
X130600000Y-95672000I0J-212000D01*
G01*
X130600000Y-97368000D01*
G75*
G02*
X130388000Y-97580000I-212000J0D01*
G01*
X128692000Y-97580000D01*
G75*
G02*
X128480000Y-97368000I0J212000D01*
G01*
G37*
G04 #@! TD.AperFunction*
G04 #@! TA.AperFunction,ComponentPad*
G36*
G01*
X128480000Y-94828000D02*
X128480000Y-93132000D01*
G75*
G02*
X128692000Y-92920000I212000J0D01*
G01*
X130388000Y-92920000D01*
G75*
G02*
X130600000Y-93132000I0J-212000D01*
G01*
X130600000Y-94828000D01*
G75*
G02*
X130388000Y-95040000I-212000J0D01*
G01*
X128692000Y-95040000D01*
G75*
G02*
X128480000Y-94828000I0J212000D01*
G01*
G37*
G04 #@! TD.AperFunction*
G04 #@! TA.AperFunction,ComponentPad*
G36*
G01*
X128480000Y-104988000D02*
X128480000Y-103292000D01*
G75*
G02*
X128692000Y-103080000I212000J0D01*
G01*
X130388000Y-103080000D01*
G75*
G02*
X130600000Y-103292000I0J-212000D01*
G01*
X130600000Y-104988000D01*
G75*
G02*
X130388000Y-105200000I-212000J0D01*
G01*
X128692000Y-105200000D01*
G75*
G02*
X128480000Y-104988000I0J212000D01*
G01*
G37*
G04 #@! TD.AperFunction*
G04 #@! TA.AperFunction,ComponentPad*
G36*
G01*
X128480000Y-102448000D02*
X128480000Y-100752000D01*
G75*
G02*
X128692000Y-100540000I212000J0D01*
G01*
X130388000Y-100540000D01*
G75*
G02*
X130600000Y-100752000I0J-212000D01*
G01*
X130600000Y-102448000D01*
G75*
G02*
X130388000Y-102660000I-212000J0D01*
G01*
X128692000Y-102660000D01*
G75*
G02*
X128480000Y-102448000I0J212000D01*
G01*
G37*
G04 #@! TD.AperFunction*
G04 #@! TA.AperFunction,ComponentPad*
G36*
G01*
X128480000Y-99908000D02*
X128480000Y-98212000D01*
G75*
G02*
X128692000Y-98000000I212000J0D01*
G01*
X130388000Y-98000000D01*
G75*
G02*
X130600000Y-98212000I0J-212000D01*
G01*
X130600000Y-99908000D01*
G75*
G02*
X130388000Y-100120000I-212000J0D01*
G01*
X128692000Y-100120000D01*
G75*
G02*
X128480000Y-99908000I0J212000D01*
G01*
G37*
G04 #@! TD.AperFunction*
G04 #@! TA.AperFunction,ComponentPad*
G36*
G01*
X128480000Y-112608000D02*
X128480000Y-110912000D01*
G75*
G02*
X128692000Y-110700000I212000J0D01*
G01*
X130388000Y-110700000D01*
G75*
G02*
X130600000Y-110912000I0J-212000D01*
G01*
X130600000Y-112608000D01*
G75*
G02*
X130388000Y-112820000I-212000J0D01*
G01*
X128692000Y-112820000D01*
G75*
G02*
X128480000Y-112608000I0J212000D01*
G01*
G37*
G04 #@! TD.AperFunction*
G04 #@! TA.AperFunction,ComponentPad*
G36*
G01*
X128480000Y-110068000D02*
X128480000Y-108372000D01*
G75*
G02*
X128692000Y-108160000I212000J0D01*
G01*
X130388000Y-108160000D01*
G75*
G02*
X130600000Y-108372000I0J-212000D01*
G01*
X130600000Y-110068000D01*
G75*
G02*
X130388000Y-110280000I-212000J0D01*
G01*
X128692000Y-110280000D01*
G75*
G02*
X128480000Y-110068000I0J212000D01*
G01*
G37*
G04 #@! TD.AperFunction*
G04 #@! TA.AperFunction,ComponentPad*
G36*
G01*
X128480000Y-107528000D02*
X128480000Y-105832000D01*
G75*
G02*
X128692000Y-105620000I212000J0D01*
G01*
X130388000Y-105620000D01*
G75*
G02*
X130600000Y-105832000I0J-212000D01*
G01*
X130600000Y-107528000D01*
G75*
G02*
X130388000Y-107740000I-212000J0D01*
G01*
X128692000Y-107740000D01*
G75*
G02*
X128480000Y-107528000I0J212000D01*
G01*
G37*
G04 #@! TD.AperFunction*
G04 #@! TA.AperFunction,ComponentPad*
G36*
G01*
X128480000Y-117688000D02*
X128480000Y-115992000D01*
G75*
G02*
X128692000Y-115780000I212000J0D01*
G01*
X130388000Y-115780000D01*
G75*
G02*
X130600000Y-115992000I0J-212000D01*
G01*
X130600000Y-117688000D01*
G75*
G02*
X130388000Y-117900000I-212000J0D01*
G01*
X128692000Y-117900000D01*
G75*
G02*
X128480000Y-117688000I0J212000D01*
G01*
G37*
G04 #@! TD.AperFunction*
G04 #@! TA.AperFunction,ComponentPad*
G36*
G01*
X128480000Y-120228000D02*
X128480000Y-118532000D01*
G75*
G02*
X128692000Y-118320000I212000J0D01*
G01*
X130388000Y-118320000D01*
G75*
G02*
X130600000Y-118532000I0J-212000D01*
G01*
X130600000Y-120228000D01*
G75*
G02*
X130388000Y-120440000I-212000J0D01*
G01*
X128692000Y-120440000D01*
G75*
G02*
X128480000Y-120228000I0J212000D01*
G01*
G37*
G04 #@! TD.AperFunction*
G04 #@! TA.AperFunction,ComponentPad*
G36*
G01*
X128480000Y-115148000D02*
X128480000Y-113452000D01*
G75*
G02*
X128692000Y-113240000I212000J0D01*
G01*
X130388000Y-113240000D01*
G75*
G02*
X130600000Y-113452000I0J-212000D01*
G01*
X130600000Y-115148000D01*
G75*
G02*
X130388000Y-115360000I-212000J0D01*
G01*
X128692000Y-115360000D01*
G75*
G02*
X128480000Y-115148000I0J212000D01*
G01*
G37*
G04 #@! TD.AperFunction*
G04 #@! TA.AperFunction,ComponentPad*
G36*
G01*
X128480000Y-127848000D02*
X128480000Y-126152000D01*
G75*
G02*
X128692000Y-125940000I212000J0D01*
G01*
X130388000Y-125940000D01*
G75*
G02*
X130600000Y-126152000I0J-212000D01*
G01*
X130600000Y-127848000D01*
G75*
G02*
X130388000Y-128060000I-212000J0D01*
G01*
X128692000Y-128060000D01*
G75*
G02*
X128480000Y-127848000I0J212000D01*
G01*
G37*
G04 #@! TD.AperFunction*
G04 #@! TA.AperFunction,ComponentPad*
G36*
G01*
X128480000Y-125308000D02*
X128480000Y-123612000D01*
G75*
G02*
X128692000Y-123400000I212000J0D01*
G01*
X130388000Y-123400000D01*
G75*
G02*
X130600000Y-123612000I0J-212000D01*
G01*
X130600000Y-125308000D01*
G75*
G02*
X130388000Y-125520000I-212000J0D01*
G01*
X128692000Y-125520000D01*
G75*
G02*
X128480000Y-125308000I0J212000D01*
G01*
G37*
G04 #@! TD.AperFunction*
G04 #@! TA.AperFunction,ComponentPad*
G36*
G01*
X128480000Y-122768000D02*
X128480000Y-121072000D01*
G75*
G02*
X128692000Y-120860000I212000J0D01*
G01*
X130388000Y-120860000D01*
G75*
G02*
X130600000Y-121072000I0J-212000D01*
G01*
X130600000Y-122768000D01*
G75*
G02*
X130388000Y-122980000I-212000J0D01*
G01*
X128692000Y-122980000D01*
G75*
G02*
X128480000Y-122768000I0J212000D01*
G01*
G37*
G04 #@! TD.AperFunction*
G04 #@! TA.AperFunction,ComponentPad*
G36*
G01*
X131020000Y-122768000D02*
X131020000Y-121072000D01*
G75*
G02*
X131232000Y-120860000I212000J0D01*
G01*
X132928000Y-120860000D01*
G75*
G02*
X133140000Y-121072000I0J-212000D01*
G01*
X133140000Y-122768000D01*
G75*
G02*
X132928000Y-122980000I-212000J0D01*
G01*
X131232000Y-122980000D01*
G75*
G02*
X131020000Y-122768000I0J212000D01*
G01*
G37*
G04 #@! TD.AperFunction*
G04 #@! TA.AperFunction,ComponentPad*
G36*
G01*
X131020000Y-117688000D02*
X131020000Y-115992000D01*
G75*
G02*
X131232000Y-115780000I212000J0D01*
G01*
X132928000Y-115780000D01*
G75*
G02*
X133140000Y-115992000I0J-212000D01*
G01*
X133140000Y-117688000D01*
G75*
G02*
X132928000Y-117900000I-212000J0D01*
G01*
X131232000Y-117900000D01*
G75*
G02*
X131020000Y-117688000I0J212000D01*
G01*
G37*
G04 #@! TD.AperFunction*
G04 #@! TA.AperFunction,ComponentPad*
G36*
G01*
X131020000Y-127848000D02*
X131020000Y-126152000D01*
G75*
G02*
X131232000Y-125940000I212000J0D01*
G01*
X132928000Y-125940000D01*
G75*
G02*
X133140000Y-126152000I0J-212000D01*
G01*
X133140000Y-127848000D01*
G75*
G02*
X132928000Y-128060000I-212000J0D01*
G01*
X131232000Y-128060000D01*
G75*
G02*
X131020000Y-127848000I0J212000D01*
G01*
G37*
G04 #@! TD.AperFunction*
G04 #@! TA.AperFunction,ComponentPad*
G36*
G01*
X131020000Y-120228000D02*
X131020000Y-118532000D01*
G75*
G02*
X131232000Y-118320000I212000J0D01*
G01*
X132928000Y-118320000D01*
G75*
G02*
X133140000Y-118532000I0J-212000D01*
G01*
X133140000Y-120228000D01*
G75*
G02*
X132928000Y-120440000I-212000J0D01*
G01*
X131232000Y-120440000D01*
G75*
G02*
X131020000Y-120228000I0J212000D01*
G01*
G37*
G04 #@! TD.AperFunction*
G04 #@! TA.AperFunction,ComponentPad*
G36*
G01*
X131020000Y-125308000D02*
X131020000Y-123612000D01*
G75*
G02*
X131232000Y-123400000I212000J0D01*
G01*
X132928000Y-123400000D01*
G75*
G02*
X133140000Y-123612000I0J-212000D01*
G01*
X133140000Y-125308000D01*
G75*
G02*
X132928000Y-125520000I-212000J0D01*
G01*
X131232000Y-125520000D01*
G75*
G02*
X131020000Y-125308000I0J212000D01*
G01*
G37*
G04 #@! TD.AperFunction*
G04 #@! TA.AperFunction,ComponentPad*
G36*
G01*
X131020000Y-115148000D02*
X131020000Y-113452000D01*
G75*
G02*
X131232000Y-113240000I212000J0D01*
G01*
X132928000Y-113240000D01*
G75*
G02*
X133140000Y-113452000I0J-212000D01*
G01*
X133140000Y-115148000D01*
G75*
G02*
X132928000Y-115360000I-212000J0D01*
G01*
X131232000Y-115360000D01*
G75*
G02*
X131020000Y-115148000I0J212000D01*
G01*
G37*
G04 #@! TD.AperFunction*
G04 #@! TA.AperFunction,ComponentPad*
G36*
G01*
X133560000Y-122768000D02*
X133560000Y-121072000D01*
G75*
G02*
X133772000Y-120860000I212000J0D01*
G01*
X135468000Y-120860000D01*
G75*
G02*
X135680000Y-121072000I0J-212000D01*
G01*
X135680000Y-122768000D01*
G75*
G02*
X135468000Y-122980000I-212000J0D01*
G01*
X133772000Y-122980000D01*
G75*
G02*
X133560000Y-122768000I0J212000D01*
G01*
G37*
G04 #@! TD.AperFunction*
G04 #@! TA.AperFunction,ComponentPad*
G36*
G01*
X133560000Y-117688000D02*
X133560000Y-115992000D01*
G75*
G02*
X133772000Y-115780000I212000J0D01*
G01*
X135468000Y-115780000D01*
G75*
G02*
X135680000Y-115992000I0J-212000D01*
G01*
X135680000Y-117688000D01*
G75*
G02*
X135468000Y-117900000I-212000J0D01*
G01*
X133772000Y-117900000D01*
G75*
G02*
X133560000Y-117688000I0J212000D01*
G01*
G37*
G04 #@! TD.AperFunction*
G04 #@! TA.AperFunction,ComponentPad*
G36*
G01*
X133560000Y-127848000D02*
X133560000Y-126152000D01*
G75*
G02*
X133772000Y-125940000I212000J0D01*
G01*
X135468000Y-125940000D01*
G75*
G02*
X135680000Y-126152000I0J-212000D01*
G01*
X135680000Y-127848000D01*
G75*
G02*
X135468000Y-128060000I-212000J0D01*
G01*
X133772000Y-128060000D01*
G75*
G02*
X133560000Y-127848000I0J212000D01*
G01*
G37*
G04 #@! TD.AperFunction*
G04 #@! TA.AperFunction,ComponentPad*
G36*
G01*
X133560000Y-120228000D02*
X133560000Y-118532000D01*
G75*
G02*
X133772000Y-118320000I212000J0D01*
G01*
X135468000Y-118320000D01*
G75*
G02*
X135680000Y-118532000I0J-212000D01*
G01*
X135680000Y-120228000D01*
G75*
G02*
X135468000Y-120440000I-212000J0D01*
G01*
X133772000Y-120440000D01*
G75*
G02*
X133560000Y-120228000I0J212000D01*
G01*
G37*
G04 #@! TD.AperFunction*
G04 #@! TA.AperFunction,ComponentPad*
G36*
G01*
X133560000Y-125308000D02*
X133560000Y-123612000D01*
G75*
G02*
X133772000Y-123400000I212000J0D01*
G01*
X135468000Y-123400000D01*
G75*
G02*
X135680000Y-123612000I0J-212000D01*
G01*
X135680000Y-125308000D01*
G75*
G02*
X135468000Y-125520000I-212000J0D01*
G01*
X133772000Y-125520000D01*
G75*
G02*
X133560000Y-125308000I0J212000D01*
G01*
G37*
G04 #@! TD.AperFunction*
G04 #@! TA.AperFunction,ComponentPad*
G36*
G01*
X133560000Y-115148000D02*
X133560000Y-113452000D01*
G75*
G02*
X133772000Y-113240000I212000J0D01*
G01*
X135468000Y-113240000D01*
G75*
G02*
X135680000Y-113452000I0J-212000D01*
G01*
X135680000Y-115148000D01*
G75*
G02*
X135468000Y-115360000I-212000J0D01*
G01*
X133772000Y-115360000D01*
G75*
G02*
X133560000Y-115148000I0J212000D01*
G01*
G37*
G04 #@! TD.AperFunction*
G04 #@! TA.AperFunction,ComponentPad*
G36*
G01*
X136100000Y-122768000D02*
X136100000Y-121072000D01*
G75*
G02*
X136312000Y-120860000I212000J0D01*
G01*
X138008000Y-120860000D01*
G75*
G02*
X138220000Y-121072000I0J-212000D01*
G01*
X138220000Y-122768000D01*
G75*
G02*
X138008000Y-122980000I-212000J0D01*
G01*
X136312000Y-122980000D01*
G75*
G02*
X136100000Y-122768000I0J212000D01*
G01*
G37*
G04 #@! TD.AperFunction*
G04 #@! TA.AperFunction,ComponentPad*
G36*
G01*
X136100000Y-115148000D02*
X136100000Y-113452000D01*
G75*
G02*
X136312000Y-113240000I212000J0D01*
G01*
X138008000Y-113240000D01*
G75*
G02*
X138220000Y-113452000I0J-212000D01*
G01*
X138220000Y-115148000D01*
G75*
G02*
X138008000Y-115360000I-212000J0D01*
G01*
X136312000Y-115360000D01*
G75*
G02*
X136100000Y-115148000I0J212000D01*
G01*
G37*
G04 #@! TD.AperFunction*
G04 #@! TA.AperFunction,ComponentPad*
G36*
G01*
X136100000Y-117688000D02*
X136100000Y-115992000D01*
G75*
G02*
X136312000Y-115780000I212000J0D01*
G01*
X138008000Y-115780000D01*
G75*
G02*
X138220000Y-115992000I0J-212000D01*
G01*
X138220000Y-117688000D01*
G75*
G02*
X138008000Y-117900000I-212000J0D01*
G01*
X136312000Y-117900000D01*
G75*
G02*
X136100000Y-117688000I0J212000D01*
G01*
G37*
G04 #@! TD.AperFunction*
G04 #@! TA.AperFunction,ComponentPad*
G36*
G01*
X136100000Y-127848000D02*
X136100000Y-126152000D01*
G75*
G02*
X136312000Y-125940000I212000J0D01*
G01*
X138008000Y-125940000D01*
G75*
G02*
X138220000Y-126152000I0J-212000D01*
G01*
X138220000Y-127848000D01*
G75*
G02*
X138008000Y-128060000I-212000J0D01*
G01*
X136312000Y-128060000D01*
G75*
G02*
X136100000Y-127848000I0J212000D01*
G01*
G37*
G04 #@! TD.AperFunction*
G04 #@! TA.AperFunction,ComponentPad*
G36*
G01*
X136100000Y-120228000D02*
X136100000Y-118532000D01*
G75*
G02*
X136312000Y-118320000I212000J0D01*
G01*
X138008000Y-118320000D01*
G75*
G02*
X138220000Y-118532000I0J-212000D01*
G01*
X138220000Y-120228000D01*
G75*
G02*
X138008000Y-120440000I-212000J0D01*
G01*
X136312000Y-120440000D01*
G75*
G02*
X136100000Y-120228000I0J212000D01*
G01*
G37*
G04 #@! TD.AperFunction*
G04 #@! TA.AperFunction,ComponentPad*
G36*
G01*
X136100000Y-125308000D02*
X136100000Y-123612000D01*
G75*
G02*
X136312000Y-123400000I212000J0D01*
G01*
X138008000Y-123400000D01*
G75*
G02*
X138220000Y-123612000I0J-212000D01*
G01*
X138220000Y-125308000D01*
G75*
G02*
X138008000Y-125520000I-212000J0D01*
G01*
X136312000Y-125520000D01*
G75*
G02*
X136100000Y-125308000I0J212000D01*
G01*
G37*
G04 #@! TD.AperFunction*
G04 #@! TA.AperFunction,ComponentPad*
G36*
G01*
X138640000Y-122768000D02*
X138640000Y-121072000D01*
G75*
G02*
X138852000Y-120860000I212000J0D01*
G01*
X140548000Y-120860000D01*
G75*
G02*
X140760000Y-121072000I0J-212000D01*
G01*
X140760000Y-122768000D01*
G75*
G02*
X140548000Y-122980000I-212000J0D01*
G01*
X138852000Y-122980000D01*
G75*
G02*
X138640000Y-122768000I0J212000D01*
G01*
G37*
G04 #@! TD.AperFunction*
G04 #@! TA.AperFunction,ComponentPad*
G36*
G01*
X138640000Y-115148000D02*
X138640000Y-113452000D01*
G75*
G02*
X138852000Y-113240000I212000J0D01*
G01*
X140548000Y-113240000D01*
G75*
G02*
X140760000Y-113452000I0J-212000D01*
G01*
X140760000Y-115148000D01*
G75*
G02*
X140548000Y-115360000I-212000J0D01*
G01*
X138852000Y-115360000D01*
G75*
G02*
X138640000Y-115148000I0J212000D01*
G01*
G37*
G04 #@! TD.AperFunction*
G04 #@! TA.AperFunction,ComponentPad*
G36*
G01*
X138640000Y-117688000D02*
X138640000Y-115992000D01*
G75*
G02*
X138852000Y-115780000I212000J0D01*
G01*
X140548000Y-115780000D01*
G75*
G02*
X140760000Y-115992000I0J-212000D01*
G01*
X140760000Y-117688000D01*
G75*
G02*
X140548000Y-117900000I-212000J0D01*
G01*
X138852000Y-117900000D01*
G75*
G02*
X138640000Y-117688000I0J212000D01*
G01*
G37*
G04 #@! TD.AperFunction*
G04 #@! TA.AperFunction,ComponentPad*
G36*
G01*
X138640000Y-127848000D02*
X138640000Y-126152000D01*
G75*
G02*
X138852000Y-125940000I212000J0D01*
G01*
X140548000Y-125940000D01*
G75*
G02*
X140760000Y-126152000I0J-212000D01*
G01*
X140760000Y-127848000D01*
G75*
G02*
X140548000Y-128060000I-212000J0D01*
G01*
X138852000Y-128060000D01*
G75*
G02*
X138640000Y-127848000I0J212000D01*
G01*
G37*
G04 #@! TD.AperFunction*
G04 #@! TA.AperFunction,ComponentPad*
G36*
G01*
X138640000Y-120228000D02*
X138640000Y-118532000D01*
G75*
G02*
X138852000Y-118320000I212000J0D01*
G01*
X140548000Y-118320000D01*
G75*
G02*
X140760000Y-118532000I0J-212000D01*
G01*
X140760000Y-120228000D01*
G75*
G02*
X140548000Y-120440000I-212000J0D01*
G01*
X138852000Y-120440000D01*
G75*
G02*
X138640000Y-120228000I0J212000D01*
G01*
G37*
G04 #@! TD.AperFunction*
G04 #@! TA.AperFunction,ComponentPad*
G36*
G01*
X138640000Y-125308000D02*
X138640000Y-123612000D01*
G75*
G02*
X138852000Y-123400000I212000J0D01*
G01*
X140548000Y-123400000D01*
G75*
G02*
X140760000Y-123612000I0J-212000D01*
G01*
X140760000Y-125308000D01*
G75*
G02*
X140548000Y-125520000I-212000J0D01*
G01*
X138852000Y-125520000D01*
G75*
G02*
X138640000Y-125308000I0J212000D01*
G01*
G37*
G04 #@! TD.AperFunction*
G04 #@! TA.AperFunction,ComponentPad*
G36*
G01*
X141180000Y-122768000D02*
X141180000Y-121072000D01*
G75*
G02*
X141392000Y-120860000I212000J0D01*
G01*
X143088000Y-120860000D01*
G75*
G02*
X143300000Y-121072000I0J-212000D01*
G01*
X143300000Y-122768000D01*
G75*
G02*
X143088000Y-122980000I-212000J0D01*
G01*
X141392000Y-122980000D01*
G75*
G02*
X141180000Y-122768000I0J212000D01*
G01*
G37*
G04 #@! TD.AperFunction*
G04 #@! TA.AperFunction,ComponentPad*
G36*
G01*
X141180000Y-115148000D02*
X141180000Y-113452000D01*
G75*
G02*
X141392000Y-113240000I212000J0D01*
G01*
X143088000Y-113240000D01*
G75*
G02*
X143300000Y-113452000I0J-212000D01*
G01*
X143300000Y-115148000D01*
G75*
G02*
X143088000Y-115360000I-212000J0D01*
G01*
X141392000Y-115360000D01*
G75*
G02*
X141180000Y-115148000I0J212000D01*
G01*
G37*
G04 #@! TD.AperFunction*
G04 #@! TA.AperFunction,ComponentPad*
G36*
G01*
X141180000Y-117688000D02*
X141180000Y-115992000D01*
G75*
G02*
X141392000Y-115780000I212000J0D01*
G01*
X143088000Y-115780000D01*
G75*
G02*
X143300000Y-115992000I0J-212000D01*
G01*
X143300000Y-117688000D01*
G75*
G02*
X143088000Y-117900000I-212000J0D01*
G01*
X141392000Y-117900000D01*
G75*
G02*
X141180000Y-117688000I0J212000D01*
G01*
G37*
G04 #@! TD.AperFunction*
G04 #@! TA.AperFunction,ComponentPad*
G36*
G01*
X141180000Y-127848000D02*
X141180000Y-126152000D01*
G75*
G02*
X141392000Y-125940000I212000J0D01*
G01*
X143088000Y-125940000D01*
G75*
G02*
X143300000Y-126152000I0J-212000D01*
G01*
X143300000Y-127848000D01*
G75*
G02*
X143088000Y-128060000I-212000J0D01*
G01*
X141392000Y-128060000D01*
G75*
G02*
X141180000Y-127848000I0J212000D01*
G01*
G37*
G04 #@! TD.AperFunction*
G04 #@! TA.AperFunction,ComponentPad*
G36*
G01*
X141180000Y-120228000D02*
X141180000Y-118532000D01*
G75*
G02*
X141392000Y-118320000I212000J0D01*
G01*
X143088000Y-118320000D01*
G75*
G02*
X143300000Y-118532000I0J-212000D01*
G01*
X143300000Y-120228000D01*
G75*
G02*
X143088000Y-120440000I-212000J0D01*
G01*
X141392000Y-120440000D01*
G75*
G02*
X141180000Y-120228000I0J212000D01*
G01*
G37*
G04 #@! TD.AperFunction*
G04 #@! TA.AperFunction,ComponentPad*
G36*
G01*
X141180000Y-125308000D02*
X141180000Y-123612000D01*
G75*
G02*
X141392000Y-123400000I212000J0D01*
G01*
X143088000Y-123400000D01*
G75*
G02*
X143300000Y-123612000I0J-212000D01*
G01*
X143300000Y-125308000D01*
G75*
G02*
X143088000Y-125520000I-212000J0D01*
G01*
X141392000Y-125520000D01*
G75*
G02*
X141180000Y-125308000I0J212000D01*
G01*
G37*
G04 #@! TD.AperFunction*
G04 #@! TA.AperFunction,ComponentPad*
G36*
G01*
X143720000Y-122768000D02*
X143720000Y-121072000D01*
G75*
G02*
X143932000Y-120860000I212000J0D01*
G01*
X145628000Y-120860000D01*
G75*
G02*
X145840000Y-121072000I0J-212000D01*
G01*
X145840000Y-122768000D01*
G75*
G02*
X145628000Y-122980000I-212000J0D01*
G01*
X143932000Y-122980000D01*
G75*
G02*
X143720000Y-122768000I0J212000D01*
G01*
G37*
G04 #@! TD.AperFunction*
G04 #@! TA.AperFunction,ComponentPad*
G36*
G01*
X143720000Y-115148000D02*
X143720000Y-113452000D01*
G75*
G02*
X143932000Y-113240000I212000J0D01*
G01*
X145628000Y-113240000D01*
G75*
G02*
X145840000Y-113452000I0J-212000D01*
G01*
X145840000Y-115148000D01*
G75*
G02*
X145628000Y-115360000I-212000J0D01*
G01*
X143932000Y-115360000D01*
G75*
G02*
X143720000Y-115148000I0J212000D01*
G01*
G37*
G04 #@! TD.AperFunction*
G04 #@! TA.AperFunction,ComponentPad*
G36*
G01*
X143720000Y-117688000D02*
X143720000Y-115992000D01*
G75*
G02*
X143932000Y-115780000I212000J0D01*
G01*
X145628000Y-115780000D01*
G75*
G02*
X145840000Y-115992000I0J-212000D01*
G01*
X145840000Y-117688000D01*
G75*
G02*
X145628000Y-117900000I-212000J0D01*
G01*
X143932000Y-117900000D01*
G75*
G02*
X143720000Y-117688000I0J212000D01*
G01*
G37*
G04 #@! TD.AperFunction*
G04 #@! TA.AperFunction,ComponentPad*
G36*
G01*
X143720000Y-127848000D02*
X143720000Y-126152000D01*
G75*
G02*
X143932000Y-125940000I212000J0D01*
G01*
X145628000Y-125940000D01*
G75*
G02*
X145840000Y-126152000I0J-212000D01*
G01*
X145840000Y-127848000D01*
G75*
G02*
X145628000Y-128060000I-212000J0D01*
G01*
X143932000Y-128060000D01*
G75*
G02*
X143720000Y-127848000I0J212000D01*
G01*
G37*
G04 #@! TD.AperFunction*
G04 #@! TA.AperFunction,ComponentPad*
G36*
G01*
X143720000Y-120228000D02*
X143720000Y-118532000D01*
G75*
G02*
X143932000Y-118320000I212000J0D01*
G01*
X145628000Y-118320000D01*
G75*
G02*
X145840000Y-118532000I0J-212000D01*
G01*
X145840000Y-120228000D01*
G75*
G02*
X145628000Y-120440000I-212000J0D01*
G01*
X143932000Y-120440000D01*
G75*
G02*
X143720000Y-120228000I0J212000D01*
G01*
G37*
G04 #@! TD.AperFunction*
G04 #@! TA.AperFunction,ComponentPad*
G36*
G01*
X143720000Y-125308000D02*
X143720000Y-123612000D01*
G75*
G02*
X143932000Y-123400000I212000J0D01*
G01*
X145628000Y-123400000D01*
G75*
G02*
X145840000Y-123612000I0J-212000D01*
G01*
X145840000Y-125308000D01*
G75*
G02*
X145628000Y-125520000I-212000J0D01*
G01*
X143932000Y-125520000D01*
G75*
G02*
X143720000Y-125308000I0J212000D01*
G01*
G37*
G04 #@! TD.AperFunction*
G04 #@! TA.AperFunction,ComponentPad*
G36*
G01*
X146260000Y-122768000D02*
X146260000Y-121072000D01*
G75*
G02*
X146472000Y-120860000I212000J0D01*
G01*
X148168000Y-120860000D01*
G75*
G02*
X148380000Y-121072000I0J-212000D01*
G01*
X148380000Y-122768000D01*
G75*
G02*
X148168000Y-122980000I-212000J0D01*
G01*
X146472000Y-122980000D01*
G75*
G02*
X146260000Y-122768000I0J212000D01*
G01*
G37*
G04 #@! TD.AperFunction*
G04 #@! TA.AperFunction,ComponentPad*
G36*
G01*
X146260000Y-115148000D02*
X146260000Y-113452000D01*
G75*
G02*
X146472000Y-113240000I212000J0D01*
G01*
X148168000Y-113240000D01*
G75*
G02*
X148380000Y-113452000I0J-212000D01*
G01*
X148380000Y-115148000D01*
G75*
G02*
X148168000Y-115360000I-212000J0D01*
G01*
X146472000Y-115360000D01*
G75*
G02*
X146260000Y-115148000I0J212000D01*
G01*
G37*
G04 #@! TD.AperFunction*
G04 #@! TA.AperFunction,ComponentPad*
G36*
G01*
X146260000Y-117688000D02*
X146260000Y-115992000D01*
G75*
G02*
X146472000Y-115780000I212000J0D01*
G01*
X148168000Y-115780000D01*
G75*
G02*
X148380000Y-115992000I0J-212000D01*
G01*
X148380000Y-117688000D01*
G75*
G02*
X148168000Y-117900000I-212000J0D01*
G01*
X146472000Y-117900000D01*
G75*
G02*
X146260000Y-117688000I0J212000D01*
G01*
G37*
G04 #@! TD.AperFunction*
G04 #@! TA.AperFunction,ComponentPad*
G36*
G01*
X146260000Y-127848000D02*
X146260000Y-126152000D01*
G75*
G02*
X146472000Y-125940000I212000J0D01*
G01*
X148168000Y-125940000D01*
G75*
G02*
X148380000Y-126152000I0J-212000D01*
G01*
X148380000Y-127848000D01*
G75*
G02*
X148168000Y-128060000I-212000J0D01*
G01*
X146472000Y-128060000D01*
G75*
G02*
X146260000Y-127848000I0J212000D01*
G01*
G37*
G04 #@! TD.AperFunction*
G04 #@! TA.AperFunction,ComponentPad*
G36*
G01*
X146260000Y-120228000D02*
X146260000Y-118532000D01*
G75*
G02*
X146472000Y-118320000I212000J0D01*
G01*
X148168000Y-118320000D01*
G75*
G02*
X148380000Y-118532000I0J-212000D01*
G01*
X148380000Y-120228000D01*
G75*
G02*
X148168000Y-120440000I-212000J0D01*
G01*
X146472000Y-120440000D01*
G75*
G02*
X146260000Y-120228000I0J212000D01*
G01*
G37*
G04 #@! TD.AperFunction*
G04 #@! TA.AperFunction,ComponentPad*
G36*
G01*
X146260000Y-125308000D02*
X146260000Y-123612000D01*
G75*
G02*
X146472000Y-123400000I212000J0D01*
G01*
X148168000Y-123400000D01*
G75*
G02*
X148380000Y-123612000I0J-212000D01*
G01*
X148380000Y-125308000D01*
G75*
G02*
X148168000Y-125520000I-212000J0D01*
G01*
X146472000Y-125520000D01*
G75*
G02*
X146260000Y-125308000I0J212000D01*
G01*
G37*
G04 #@! TD.AperFunction*
G04 #@! TA.AperFunction,ComponentPad*
G36*
G01*
X148800000Y-122768000D02*
X148800000Y-121072000D01*
G75*
G02*
X149012000Y-120860000I212000J0D01*
G01*
X150708000Y-120860000D01*
G75*
G02*
X150920000Y-121072000I0J-212000D01*
G01*
X150920000Y-122768000D01*
G75*
G02*
X150708000Y-122980000I-212000J0D01*
G01*
X149012000Y-122980000D01*
G75*
G02*
X148800000Y-122768000I0J212000D01*
G01*
G37*
G04 #@! TD.AperFunction*
G04 #@! TA.AperFunction,ComponentPad*
G36*
G01*
X148800000Y-115148000D02*
X148800000Y-113452000D01*
G75*
G02*
X149012000Y-113240000I212000J0D01*
G01*
X150708000Y-113240000D01*
G75*
G02*
X150920000Y-113452000I0J-212000D01*
G01*
X150920000Y-115148000D01*
G75*
G02*
X150708000Y-115360000I-212000J0D01*
G01*
X149012000Y-115360000D01*
G75*
G02*
X148800000Y-115148000I0J212000D01*
G01*
G37*
G04 #@! TD.AperFunction*
G04 #@! TA.AperFunction,ComponentPad*
G36*
G01*
X148800000Y-117688000D02*
X148800000Y-115992000D01*
G75*
G02*
X149012000Y-115780000I212000J0D01*
G01*
X150708000Y-115780000D01*
G75*
G02*
X150920000Y-115992000I0J-212000D01*
G01*
X150920000Y-117688000D01*
G75*
G02*
X150708000Y-117900000I-212000J0D01*
G01*
X149012000Y-117900000D01*
G75*
G02*
X148800000Y-117688000I0J212000D01*
G01*
G37*
G04 #@! TD.AperFunction*
G04 #@! TA.AperFunction,ComponentPad*
G36*
G01*
X148800000Y-127848000D02*
X148800000Y-126152000D01*
G75*
G02*
X149012000Y-125940000I212000J0D01*
G01*
X150708000Y-125940000D01*
G75*
G02*
X150920000Y-126152000I0J-212000D01*
G01*
X150920000Y-127848000D01*
G75*
G02*
X150708000Y-128060000I-212000J0D01*
G01*
X149012000Y-128060000D01*
G75*
G02*
X148800000Y-127848000I0J212000D01*
G01*
G37*
G04 #@! TD.AperFunction*
G04 #@! TA.AperFunction,ComponentPad*
G36*
G01*
X148800000Y-120228000D02*
X148800000Y-118532000D01*
G75*
G02*
X149012000Y-118320000I212000J0D01*
G01*
X150708000Y-118320000D01*
G75*
G02*
X150920000Y-118532000I0J-212000D01*
G01*
X150920000Y-120228000D01*
G75*
G02*
X150708000Y-120440000I-212000J0D01*
G01*
X149012000Y-120440000D01*
G75*
G02*
X148800000Y-120228000I0J212000D01*
G01*
G37*
G04 #@! TD.AperFunction*
G04 #@! TA.AperFunction,ComponentPad*
G36*
G01*
X148800000Y-125308000D02*
X148800000Y-123612000D01*
G75*
G02*
X149012000Y-123400000I212000J0D01*
G01*
X150708000Y-123400000D01*
G75*
G02*
X150920000Y-123612000I0J-212000D01*
G01*
X150920000Y-125308000D01*
G75*
G02*
X150708000Y-125520000I-212000J0D01*
G01*
X149012000Y-125520000D01*
G75*
G02*
X148800000Y-125308000I0J212000D01*
G01*
G37*
G04 #@! TD.AperFunction*
G04 #@! TA.AperFunction,ComponentPad*
G36*
G01*
X151340000Y-127848000D02*
X151340000Y-126152000D01*
G75*
G02*
X151552000Y-125940000I212000J0D01*
G01*
X153248000Y-125940000D01*
G75*
G02*
X153460000Y-126152000I0J-212000D01*
G01*
X153460000Y-127848000D01*
G75*
G02*
X153248000Y-128060000I-212000J0D01*
G01*
X151552000Y-128060000D01*
G75*
G02*
X151340000Y-127848000I0J212000D01*
G01*
G37*
G04 #@! TD.AperFunction*
G04 #@! TA.AperFunction,ComponentPad*
G36*
G01*
X151340000Y-120228000D02*
X151340000Y-118532000D01*
G75*
G02*
X151552000Y-118320000I212000J0D01*
G01*
X153248000Y-118320000D01*
G75*
G02*
X153460000Y-118532000I0J-212000D01*
G01*
X153460000Y-120228000D01*
G75*
G02*
X153248000Y-120440000I-212000J0D01*
G01*
X151552000Y-120440000D01*
G75*
G02*
X151340000Y-120228000I0J212000D01*
G01*
G37*
G04 #@! TD.AperFunction*
G04 #@! TA.AperFunction,ComponentPad*
G36*
G01*
X151340000Y-125308000D02*
X151340000Y-123612000D01*
G75*
G02*
X151552000Y-123400000I212000J0D01*
G01*
X153248000Y-123400000D01*
G75*
G02*
X153460000Y-123612000I0J-212000D01*
G01*
X153460000Y-125308000D01*
G75*
G02*
X153248000Y-125520000I-212000J0D01*
G01*
X151552000Y-125520000D01*
G75*
G02*
X151340000Y-125308000I0J212000D01*
G01*
G37*
G04 #@! TD.AperFunction*
G04 #@! TA.AperFunction,ComponentPad*
G36*
G01*
X151340000Y-122768000D02*
X151340000Y-121072000D01*
G75*
G02*
X151552000Y-120860000I212000J0D01*
G01*
X153248000Y-120860000D01*
G75*
G02*
X153460000Y-121072000I0J-212000D01*
G01*
X153460000Y-122768000D01*
G75*
G02*
X153248000Y-122980000I-212000J0D01*
G01*
X151552000Y-122980000D01*
G75*
G02*
X151340000Y-122768000I0J212000D01*
G01*
G37*
G04 #@! TD.AperFunction*
G04 #@! TA.AperFunction,ComponentPad*
G36*
G01*
X151340000Y-115148000D02*
X151340000Y-113452000D01*
G75*
G02*
X151552000Y-113240000I212000J0D01*
G01*
X153248000Y-113240000D01*
G75*
G02*
X153460000Y-113452000I0J-212000D01*
G01*
X153460000Y-115148000D01*
G75*
G02*
X153248000Y-115360000I-212000J0D01*
G01*
X151552000Y-115360000D01*
G75*
G02*
X151340000Y-115148000I0J212000D01*
G01*
G37*
G04 #@! TD.AperFunction*
G04 #@! TA.AperFunction,ComponentPad*
G36*
G01*
X151340000Y-117688000D02*
X151340000Y-115992000D01*
G75*
G02*
X151552000Y-115780000I212000J0D01*
G01*
X153248000Y-115780000D01*
G75*
G02*
X153460000Y-115992000I0J-212000D01*
G01*
X153460000Y-117688000D01*
G75*
G02*
X153248000Y-117900000I-212000J0D01*
G01*
X151552000Y-117900000D01*
G75*
G02*
X151340000Y-117688000I0J212000D01*
G01*
G37*
G04 #@! TD.AperFunction*
G04 #@! TA.AperFunction,ComponentPad*
G36*
G01*
X153880000Y-127848000D02*
X153880000Y-126152000D01*
G75*
G02*
X154092000Y-125940000I212000J0D01*
G01*
X155788000Y-125940000D01*
G75*
G02*
X156000000Y-126152000I0J-212000D01*
G01*
X156000000Y-127848000D01*
G75*
G02*
X155788000Y-128060000I-212000J0D01*
G01*
X154092000Y-128060000D01*
G75*
G02*
X153880000Y-127848000I0J212000D01*
G01*
G37*
G04 #@! TD.AperFunction*
G04 #@! TA.AperFunction,ComponentPad*
G36*
G01*
X153880000Y-120228000D02*
X153880000Y-118532000D01*
G75*
G02*
X154092000Y-118320000I212000J0D01*
G01*
X155788000Y-118320000D01*
G75*
G02*
X156000000Y-118532000I0J-212000D01*
G01*
X156000000Y-120228000D01*
G75*
G02*
X155788000Y-120440000I-212000J0D01*
G01*
X154092000Y-120440000D01*
G75*
G02*
X153880000Y-120228000I0J212000D01*
G01*
G37*
G04 #@! TD.AperFunction*
G04 #@! TA.AperFunction,ComponentPad*
G36*
G01*
X153880000Y-125308000D02*
X153880000Y-123612000D01*
G75*
G02*
X154092000Y-123400000I212000J0D01*
G01*
X155788000Y-123400000D01*
G75*
G02*
X156000000Y-123612000I0J-212000D01*
G01*
X156000000Y-125308000D01*
G75*
G02*
X155788000Y-125520000I-212000J0D01*
G01*
X154092000Y-125520000D01*
G75*
G02*
X153880000Y-125308000I0J212000D01*
G01*
G37*
G04 #@! TD.AperFunction*
G04 #@! TA.AperFunction,ComponentPad*
G36*
G01*
X153880000Y-122768000D02*
X153880000Y-121072000D01*
G75*
G02*
X154092000Y-120860000I212000J0D01*
G01*
X155788000Y-120860000D01*
G75*
G02*
X156000000Y-121072000I0J-212000D01*
G01*
X156000000Y-122768000D01*
G75*
G02*
X155788000Y-122980000I-212000J0D01*
G01*
X154092000Y-122980000D01*
G75*
G02*
X153880000Y-122768000I0J212000D01*
G01*
G37*
G04 #@! TD.AperFunction*
G04 #@! TA.AperFunction,ComponentPad*
G36*
G01*
X153880000Y-115148000D02*
X153880000Y-113452000D01*
G75*
G02*
X154092000Y-113240000I212000J0D01*
G01*
X155788000Y-113240000D01*
G75*
G02*
X156000000Y-113452000I0J-212000D01*
G01*
X156000000Y-115148000D01*
G75*
G02*
X155788000Y-115360000I-212000J0D01*
G01*
X154092000Y-115360000D01*
G75*
G02*
X153880000Y-115148000I0J212000D01*
G01*
G37*
G04 #@! TD.AperFunction*
G04 #@! TA.AperFunction,ComponentPad*
G36*
G01*
X153880000Y-117688000D02*
X153880000Y-115992000D01*
G75*
G02*
X154092000Y-115780000I212000J0D01*
G01*
X155788000Y-115780000D01*
G75*
G02*
X156000000Y-115992000I0J-212000D01*
G01*
X156000000Y-117688000D01*
G75*
G02*
X155788000Y-117900000I-212000J0D01*
G01*
X154092000Y-117900000D01*
G75*
G02*
X153880000Y-117688000I0J212000D01*
G01*
G37*
G04 #@! TD.AperFunction*
G04 #@! TA.AperFunction,ComponentPad*
G36*
G01*
X156420000Y-127848000D02*
X156420000Y-126152000D01*
G75*
G02*
X156632000Y-125940000I212000J0D01*
G01*
X158328000Y-125940000D01*
G75*
G02*
X158540000Y-126152000I0J-212000D01*
G01*
X158540000Y-127848000D01*
G75*
G02*
X158328000Y-128060000I-212000J0D01*
G01*
X156632000Y-128060000D01*
G75*
G02*
X156420000Y-127848000I0J212000D01*
G01*
G37*
G04 #@! TD.AperFunction*
G04 #@! TA.AperFunction,ComponentPad*
G36*
G01*
X156420000Y-120228000D02*
X156420000Y-118532000D01*
G75*
G02*
X156632000Y-118320000I212000J0D01*
G01*
X158328000Y-118320000D01*
G75*
G02*
X158540000Y-118532000I0J-212000D01*
G01*
X158540000Y-120228000D01*
G75*
G02*
X158328000Y-120440000I-212000J0D01*
G01*
X156632000Y-120440000D01*
G75*
G02*
X156420000Y-120228000I0J212000D01*
G01*
G37*
G04 #@! TD.AperFunction*
G04 #@! TA.AperFunction,ComponentPad*
G36*
G01*
X156420000Y-125308000D02*
X156420000Y-123612000D01*
G75*
G02*
X156632000Y-123400000I212000J0D01*
G01*
X158328000Y-123400000D01*
G75*
G02*
X158540000Y-123612000I0J-212000D01*
G01*
X158540000Y-125308000D01*
G75*
G02*
X158328000Y-125520000I-212000J0D01*
G01*
X156632000Y-125520000D01*
G75*
G02*
X156420000Y-125308000I0J212000D01*
G01*
G37*
G04 #@! TD.AperFunction*
G04 #@! TA.AperFunction,ComponentPad*
G36*
G01*
X156420000Y-122768000D02*
X156420000Y-121072000D01*
G75*
G02*
X156632000Y-120860000I212000J0D01*
G01*
X158328000Y-120860000D01*
G75*
G02*
X158540000Y-121072000I0J-212000D01*
G01*
X158540000Y-122768000D01*
G75*
G02*
X158328000Y-122980000I-212000J0D01*
G01*
X156632000Y-122980000D01*
G75*
G02*
X156420000Y-122768000I0J212000D01*
G01*
G37*
G04 #@! TD.AperFunction*
G04 #@! TA.AperFunction,ComponentPad*
G36*
G01*
X156420000Y-115148000D02*
X156420000Y-113452000D01*
G75*
G02*
X156632000Y-113240000I212000J0D01*
G01*
X158328000Y-113240000D01*
G75*
G02*
X158540000Y-113452000I0J-212000D01*
G01*
X158540000Y-115148000D01*
G75*
G02*
X158328000Y-115360000I-212000J0D01*
G01*
X156632000Y-115360000D01*
G75*
G02*
X156420000Y-115148000I0J212000D01*
G01*
G37*
G04 #@! TD.AperFunction*
G04 #@! TA.AperFunction,ComponentPad*
G36*
G01*
X156420000Y-117688000D02*
X156420000Y-115992000D01*
G75*
G02*
X156632000Y-115780000I212000J0D01*
G01*
X158328000Y-115780000D01*
G75*
G02*
X158540000Y-115992000I0J-212000D01*
G01*
X158540000Y-117688000D01*
G75*
G02*
X158328000Y-117900000I-212000J0D01*
G01*
X156632000Y-117900000D01*
G75*
G02*
X156420000Y-117688000I0J212000D01*
G01*
G37*
G04 #@! TD.AperFunction*
G04 #@! TA.AperFunction,ComponentPad*
G36*
G01*
X158960000Y-125308000D02*
X158960000Y-123612000D01*
G75*
G02*
X159172000Y-123400000I212000J0D01*
G01*
X160868000Y-123400000D01*
G75*
G02*
X161080000Y-123612000I0J-212000D01*
G01*
X161080000Y-125308000D01*
G75*
G02*
X160868000Y-125520000I-212000J0D01*
G01*
X159172000Y-125520000D01*
G75*
G02*
X158960000Y-125308000I0J212000D01*
G01*
G37*
G04 #@! TD.AperFunction*
G04 #@! TA.AperFunction,ComponentPad*
G36*
G01*
X158960000Y-122768000D02*
X158960000Y-121072000D01*
G75*
G02*
X159172000Y-120860000I212000J0D01*
G01*
X160868000Y-120860000D01*
G75*
G02*
X161080000Y-121072000I0J-212000D01*
G01*
X161080000Y-122768000D01*
G75*
G02*
X160868000Y-122980000I-212000J0D01*
G01*
X159172000Y-122980000D01*
G75*
G02*
X158960000Y-122768000I0J212000D01*
G01*
G37*
G04 #@! TD.AperFunction*
G04 #@! TA.AperFunction,ComponentPad*
G36*
G01*
X158960000Y-127848000D02*
X158960000Y-126152000D01*
G75*
G02*
X159172000Y-125940000I212000J0D01*
G01*
X160868000Y-125940000D01*
G75*
G02*
X161080000Y-126152000I0J-212000D01*
G01*
X161080000Y-127848000D01*
G75*
G02*
X160868000Y-128060000I-212000J0D01*
G01*
X159172000Y-128060000D01*
G75*
G02*
X158960000Y-127848000I0J212000D01*
G01*
G37*
G04 #@! TD.AperFunction*
G04 #@! TA.AperFunction,ComponentPad*
G36*
G01*
X158960000Y-120228000D02*
X158960000Y-118532000D01*
G75*
G02*
X159172000Y-118320000I212000J0D01*
G01*
X160868000Y-118320000D01*
G75*
G02*
X161080000Y-118532000I0J-212000D01*
G01*
X161080000Y-120228000D01*
G75*
G02*
X160868000Y-120440000I-212000J0D01*
G01*
X159172000Y-120440000D01*
G75*
G02*
X158960000Y-120228000I0J212000D01*
G01*
G37*
G04 #@! TD.AperFunction*
G04 #@! TA.AperFunction,ComponentPad*
G36*
G01*
X158960000Y-115148000D02*
X158960000Y-113452000D01*
G75*
G02*
X159172000Y-113240000I212000J0D01*
G01*
X160868000Y-113240000D01*
G75*
G02*
X161080000Y-113452000I0J-212000D01*
G01*
X161080000Y-115148000D01*
G75*
G02*
X160868000Y-115360000I-212000J0D01*
G01*
X159172000Y-115360000D01*
G75*
G02*
X158960000Y-115148000I0J212000D01*
G01*
G37*
G04 #@! TD.AperFunction*
G04 #@! TA.AperFunction,ComponentPad*
G36*
G01*
X158960000Y-117688000D02*
X158960000Y-115992000D01*
G75*
G02*
X159172000Y-115780000I212000J0D01*
G01*
X160868000Y-115780000D01*
G75*
G02*
X161080000Y-115992000I0J-212000D01*
G01*
X161080000Y-117688000D01*
G75*
G02*
X160868000Y-117900000I-212000J0D01*
G01*
X159172000Y-117900000D01*
G75*
G02*
X158960000Y-117688000I0J212000D01*
G01*
G37*
G04 #@! TD.AperFunction*
G04 #@! TA.AperFunction,ComponentPad*
G36*
G01*
X161500000Y-125308000D02*
X161500000Y-123612000D01*
G75*
G02*
X161712000Y-123400000I212000J0D01*
G01*
X163408000Y-123400000D01*
G75*
G02*
X163620000Y-123612000I0J-212000D01*
G01*
X163620000Y-125308000D01*
G75*
G02*
X163408000Y-125520000I-212000J0D01*
G01*
X161712000Y-125520000D01*
G75*
G02*
X161500000Y-125308000I0J212000D01*
G01*
G37*
G04 #@! TD.AperFunction*
G04 #@! TA.AperFunction,ComponentPad*
G36*
G01*
X161500000Y-122768000D02*
X161500000Y-121072000D01*
G75*
G02*
X161712000Y-120860000I212000J0D01*
G01*
X163408000Y-120860000D01*
G75*
G02*
X163620000Y-121072000I0J-212000D01*
G01*
X163620000Y-122768000D01*
G75*
G02*
X163408000Y-122980000I-212000J0D01*
G01*
X161712000Y-122980000D01*
G75*
G02*
X161500000Y-122768000I0J212000D01*
G01*
G37*
G04 #@! TD.AperFunction*
G04 #@! TA.AperFunction,ComponentPad*
G36*
G01*
X161500000Y-127848000D02*
X161500000Y-126152000D01*
G75*
G02*
X161712000Y-125940000I212000J0D01*
G01*
X163408000Y-125940000D01*
G75*
G02*
X163620000Y-126152000I0J-212000D01*
G01*
X163620000Y-127848000D01*
G75*
G02*
X163408000Y-128060000I-212000J0D01*
G01*
X161712000Y-128060000D01*
G75*
G02*
X161500000Y-127848000I0J212000D01*
G01*
G37*
G04 #@! TD.AperFunction*
G04 #@! TA.AperFunction,ComponentPad*
G36*
G01*
X161500000Y-120228000D02*
X161500000Y-118532000D01*
G75*
G02*
X161712000Y-118320000I212000J0D01*
G01*
X163408000Y-118320000D01*
G75*
G02*
X163620000Y-118532000I0J-212000D01*
G01*
X163620000Y-120228000D01*
G75*
G02*
X163408000Y-120440000I-212000J0D01*
G01*
X161712000Y-120440000D01*
G75*
G02*
X161500000Y-120228000I0J212000D01*
G01*
G37*
G04 #@! TD.AperFunction*
G04 #@! TA.AperFunction,ComponentPad*
G36*
G01*
X161500000Y-115148000D02*
X161500000Y-113452000D01*
G75*
G02*
X161712000Y-113240000I212000J0D01*
G01*
X163408000Y-113240000D01*
G75*
G02*
X163620000Y-113452000I0J-212000D01*
G01*
X163620000Y-115148000D01*
G75*
G02*
X163408000Y-115360000I-212000J0D01*
G01*
X161712000Y-115360000D01*
G75*
G02*
X161500000Y-115148000I0J212000D01*
G01*
G37*
G04 #@! TD.AperFunction*
G04 #@! TA.AperFunction,ComponentPad*
G36*
G01*
X161500000Y-117688000D02*
X161500000Y-115992000D01*
G75*
G02*
X161712000Y-115780000I212000J0D01*
G01*
X163408000Y-115780000D01*
G75*
G02*
X163620000Y-115992000I0J-212000D01*
G01*
X163620000Y-117688000D01*
G75*
G02*
X163408000Y-117900000I-212000J0D01*
G01*
X161712000Y-117900000D01*
G75*
G02*
X161500000Y-117688000I0J212000D01*
G01*
G37*
G04 #@! TD.AperFunction*
G04 #@! TA.AperFunction,ComponentPad*
G36*
G01*
X123400000Y-139426000D02*
X123400000Y-137942000D01*
G75*
G02*
X123718000Y-137624000I318000J0D01*
G01*
X127322000Y-137624000D01*
G75*
G02*
X127640000Y-137942000I0J-318000D01*
G01*
X127640000Y-139426000D01*
G75*
G02*
X127322000Y-139744000I-318000J0D01*
G01*
X123718000Y-139744000D01*
G75*
G02*
X123400000Y-139426000I0J318000D01*
G01*
G37*
G04 #@! TD.AperFunction*
G04 #@! TA.AperFunction,ComponentPad*
G36*
G01*
X125940000Y-139426000D02*
X125940000Y-137942000D01*
G75*
G02*
X126258000Y-137624000I318000J0D01*
G01*
X127742000Y-137624000D01*
G75*
G02*
X128060000Y-137942000I0J-318000D01*
G01*
X128060000Y-139426000D01*
G75*
G02*
X127742000Y-139744000I-318000J0D01*
G01*
X126258000Y-139744000D01*
G75*
G02*
X125940000Y-139426000I0J318000D01*
G01*
G37*
G04 #@! TD.AperFunction*
G04 #@! TA.AperFunction,ComponentPad*
G36*
G01*
X125940000Y-136886000D02*
X125940000Y-135402000D01*
G75*
G02*
X126258000Y-135084000I318000J0D01*
G01*
X127742000Y-135084000D01*
G75*
G02*
X128060000Y-135402000I0J-318000D01*
G01*
X128060000Y-136886000D01*
G75*
G02*
X127742000Y-137204000I-318000J0D01*
G01*
X126258000Y-137204000D01*
G75*
G02*
X125940000Y-136886000I0J318000D01*
G01*
G37*
G04 #@! TD.AperFunction*
G04 #@! TA.AperFunction,ComponentPad*
G36*
G01*
X123400000Y-136886000D02*
X123400000Y-135402000D01*
G75*
G02*
X123718000Y-135084000I318000J0D01*
G01*
X127322000Y-135084000D01*
G75*
G02*
X127640000Y-135402000I0J-318000D01*
G01*
X127640000Y-136886000D01*
G75*
G02*
X127322000Y-137204000I-318000J0D01*
G01*
X123718000Y-137204000D01*
G75*
G02*
X123400000Y-136886000I0J318000D01*
G01*
G37*
G04 #@! TD.AperFunction*
G04 #@! TA.AperFunction,ComponentPad*
G36*
G01*
X125940000Y-129266000D02*
X125940000Y-127782000D01*
G75*
G02*
X126258000Y-127464000I318000J0D01*
G01*
X127742000Y-127464000D01*
G75*
G02*
X128060000Y-127782000I0J-318000D01*
G01*
X128060000Y-129266000D01*
G75*
G02*
X127742000Y-129584000I-318000J0D01*
G01*
X126258000Y-129584000D01*
G75*
G02*
X125940000Y-129266000I0J318000D01*
G01*
G37*
G04 #@! TD.AperFunction*
G04 #@! TA.AperFunction,ComponentPad*
G36*
G01*
X123400000Y-129266000D02*
X123400000Y-127782000D01*
G75*
G02*
X123718000Y-127464000I318000J0D01*
G01*
X127322000Y-127464000D01*
G75*
G02*
X127640000Y-127782000I0J-318000D01*
G01*
X127640000Y-129266000D01*
G75*
G02*
X127322000Y-129584000I-318000J0D01*
G01*
X123718000Y-129584000D01*
G75*
G02*
X123400000Y-129266000I0J318000D01*
G01*
G37*
G04 #@! TD.AperFunction*
G04 #@! TA.AperFunction,ComponentPad*
G36*
G01*
X123400000Y-126726000D02*
X123400000Y-125242000D01*
G75*
G02*
X123718000Y-124924000I318000J0D01*
G01*
X127322000Y-124924000D01*
G75*
G02*
X127640000Y-125242000I0J-318000D01*
G01*
X127640000Y-126726000D01*
G75*
G02*
X127322000Y-127044000I-318000J0D01*
G01*
X123718000Y-127044000D01*
G75*
G02*
X123400000Y-126726000I0J318000D01*
G01*
G37*
G04 #@! TD.AperFunction*
G04 #@! TA.AperFunction,ComponentPad*
G36*
G01*
X125940000Y-126726000D02*
X125940000Y-125242000D01*
G75*
G02*
X126258000Y-124924000I318000J0D01*
G01*
X127742000Y-124924000D01*
G75*
G02*
X128060000Y-125242000I0J-318000D01*
G01*
X128060000Y-126726000D01*
G75*
G02*
X127742000Y-127044000I-318000J0D01*
G01*
X126258000Y-127044000D01*
G75*
G02*
X125940000Y-126726000I0J318000D01*
G01*
G37*
G04 #@! TD.AperFunction*
G04 #@! TA.AperFunction,ComponentPad*
G36*
G01*
X125940000Y-134346000D02*
X125940000Y-132862000D01*
G75*
G02*
X126258000Y-132544000I318000J0D01*
G01*
X127742000Y-132544000D01*
G75*
G02*
X128060000Y-132862000I0J-318000D01*
G01*
X128060000Y-134346000D01*
G75*
G02*
X127742000Y-134664000I-318000J0D01*
G01*
X126258000Y-134664000D01*
G75*
G02*
X125940000Y-134346000I0J318000D01*
G01*
G37*
G04 #@! TD.AperFunction*
G04 #@! TA.AperFunction,ComponentPad*
G36*
G01*
X123400000Y-134346000D02*
X123400000Y-132862000D01*
G75*
G02*
X123718000Y-132544000I318000J0D01*
G01*
X127322000Y-132544000D01*
G75*
G02*
X127640000Y-132862000I0J-318000D01*
G01*
X127640000Y-134346000D01*
G75*
G02*
X127322000Y-134664000I-318000J0D01*
G01*
X123718000Y-134664000D01*
G75*
G02*
X123400000Y-134346000I0J318000D01*
G01*
G37*
G04 #@! TD.AperFunction*
G04 #@! TA.AperFunction,ComponentPad*
G36*
G01*
X123400000Y-131806000D02*
X123400000Y-130322000D01*
G75*
G02*
X123718000Y-130004000I318000J0D01*
G01*
X127322000Y-130004000D01*
G75*
G02*
X127640000Y-130322000I0J-318000D01*
G01*
X127640000Y-131806000D01*
G75*
G02*
X127322000Y-132124000I-318000J0D01*
G01*
X123718000Y-132124000D01*
G75*
G02*
X123400000Y-131806000I0J318000D01*
G01*
G37*
G04 #@! TD.AperFunction*
G04 #@! TA.AperFunction,ComponentPad*
G36*
G01*
X125940000Y-131806000D02*
X125940000Y-130322000D01*
G75*
G02*
X126258000Y-130004000I318000J0D01*
G01*
X127742000Y-130004000D01*
G75*
G02*
X128060000Y-130322000I0J-318000D01*
G01*
X128060000Y-131806000D01*
G75*
G02*
X127742000Y-132124000I-318000J0D01*
G01*
X126258000Y-132124000D01*
G75*
G02*
X125940000Y-131806000I0J318000D01*
G01*
G37*
G04 #@! TD.AperFunction*
G04 #@! TA.AperFunction,ComponentPad*
G36*
G01*
X123400000Y-119106000D02*
X123400000Y-117622000D01*
G75*
G02*
X123718000Y-117304000I318000J0D01*
G01*
X127322000Y-117304000D01*
G75*
G02*
X127640000Y-117622000I0J-318000D01*
G01*
X127640000Y-119106000D01*
G75*
G02*
X127322000Y-119424000I-318000J0D01*
G01*
X123718000Y-119424000D01*
G75*
G02*
X123400000Y-119106000I0J318000D01*
G01*
G37*
G04 #@! TD.AperFunction*
G04 #@! TA.AperFunction,ComponentPad*
G36*
G01*
X125940000Y-119106000D02*
X125940000Y-117622000D01*
G75*
G02*
X126258000Y-117304000I318000J0D01*
G01*
X127742000Y-117304000D01*
G75*
G02*
X128060000Y-117622000I0J-318000D01*
G01*
X128060000Y-119106000D01*
G75*
G02*
X127742000Y-119424000I-318000J0D01*
G01*
X126258000Y-119424000D01*
G75*
G02*
X125940000Y-119106000I0J318000D01*
G01*
G37*
G04 #@! TD.AperFunction*
G04 #@! TA.AperFunction,ComponentPad*
G36*
G01*
X125940000Y-116566000D02*
X125940000Y-115082000D01*
G75*
G02*
X126258000Y-114764000I318000J0D01*
G01*
X127742000Y-114764000D01*
G75*
G02*
X128060000Y-115082000I0J-318000D01*
G01*
X128060000Y-116566000D01*
G75*
G02*
X127742000Y-116884000I-318000J0D01*
G01*
X126258000Y-116884000D01*
G75*
G02*
X125940000Y-116566000I0J318000D01*
G01*
G37*
G04 #@! TD.AperFunction*
G04 #@! TA.AperFunction,ComponentPad*
G36*
G01*
X123400000Y-116566000D02*
X123400000Y-115082000D01*
G75*
G02*
X123718000Y-114764000I318000J0D01*
G01*
X127322000Y-114764000D01*
G75*
G02*
X127640000Y-115082000I0J-318000D01*
G01*
X127640000Y-116566000D01*
G75*
G02*
X127322000Y-116884000I-318000J0D01*
G01*
X123718000Y-116884000D01*
G75*
G02*
X123400000Y-116566000I0J318000D01*
G01*
G37*
G04 #@! TD.AperFunction*
G04 #@! TA.AperFunction,ComponentPad*
G36*
G01*
X123400000Y-124186000D02*
X123400000Y-122702000D01*
G75*
G02*
X123718000Y-122384000I318000J0D01*
G01*
X127322000Y-122384000D01*
G75*
G02*
X127640000Y-122702000I0J-318000D01*
G01*
X127640000Y-124186000D01*
G75*
G02*
X127322000Y-124504000I-318000J0D01*
G01*
X123718000Y-124504000D01*
G75*
G02*
X123400000Y-124186000I0J318000D01*
G01*
G37*
G04 #@! TD.AperFunction*
G04 #@! TA.AperFunction,ComponentPad*
G36*
G01*
X125940000Y-124186000D02*
X125940000Y-122702000D01*
G75*
G02*
X126258000Y-122384000I318000J0D01*
G01*
X127742000Y-122384000D01*
G75*
G02*
X128060000Y-122702000I0J-318000D01*
G01*
X128060000Y-124186000D01*
G75*
G02*
X127742000Y-124504000I-318000J0D01*
G01*
X126258000Y-124504000D01*
G75*
G02*
X125940000Y-124186000I0J318000D01*
G01*
G37*
G04 #@! TD.AperFunction*
G04 #@! TA.AperFunction,ComponentPad*
G36*
G01*
X125940000Y-121646000D02*
X125940000Y-120162000D01*
G75*
G02*
X126258000Y-119844000I318000J0D01*
G01*
X127742000Y-119844000D01*
G75*
G02*
X128060000Y-120162000I0J-318000D01*
G01*
X128060000Y-121646000D01*
G75*
G02*
X127742000Y-121964000I-318000J0D01*
G01*
X126258000Y-121964000D01*
G75*
G02*
X125940000Y-121646000I0J318000D01*
G01*
G37*
G04 #@! TD.AperFunction*
G04 #@! TA.AperFunction,ComponentPad*
G36*
G01*
X123400000Y-121646000D02*
X123400000Y-120162000D01*
G75*
G02*
X123718000Y-119844000I318000J0D01*
G01*
X127322000Y-119844000D01*
G75*
G02*
X127640000Y-120162000I0J-318000D01*
G01*
X127640000Y-121646000D01*
G75*
G02*
X127322000Y-121964000I-318000J0D01*
G01*
X123718000Y-121964000D01*
G75*
G02*
X123400000Y-121646000I0J318000D01*
G01*
G37*
G04 #@! TD.AperFunction*
G04 #@! TA.AperFunction,ComponentPad*
G36*
G01*
X125940000Y-112502000D02*
X125940000Y-111018000D01*
G75*
G02*
X126258000Y-110700000I318000J0D01*
G01*
X127742000Y-110700000D01*
G75*
G02*
X128060000Y-111018000I0J-318000D01*
G01*
X128060000Y-112502000D01*
G75*
G02*
X127742000Y-112820000I-318000J0D01*
G01*
X126258000Y-112820000D01*
G75*
G02*
X125940000Y-112502000I0J318000D01*
G01*
G37*
G04 #@! TD.AperFunction*
G04 #@! TA.AperFunction,ComponentPad*
G36*
G01*
X123400000Y-112502000D02*
X123400000Y-111018000D01*
G75*
G02*
X123718000Y-110700000I318000J0D01*
G01*
X127322000Y-110700000D01*
G75*
G02*
X127640000Y-111018000I0J-318000D01*
G01*
X127640000Y-112502000D01*
G75*
G02*
X127322000Y-112820000I-318000J0D01*
G01*
X123718000Y-112820000D01*
G75*
G02*
X123400000Y-112502000I0J318000D01*
G01*
G37*
G04 #@! TD.AperFunction*
G04 #@! TA.AperFunction,ComponentPad*
G36*
G01*
X123400000Y-109962000D02*
X123400000Y-108478000D01*
G75*
G02*
X123718000Y-108160000I318000J0D01*
G01*
X127322000Y-108160000D01*
G75*
G02*
X127640000Y-108478000I0J-318000D01*
G01*
X127640000Y-109962000D01*
G75*
G02*
X127322000Y-110280000I-318000J0D01*
G01*
X123718000Y-110280000D01*
G75*
G02*
X123400000Y-109962000I0J318000D01*
G01*
G37*
G04 #@! TD.AperFunction*
G04 #@! TA.AperFunction,ComponentPad*
G36*
G01*
X125940000Y-109962000D02*
X125940000Y-108478000D01*
G75*
G02*
X126258000Y-108160000I318000J0D01*
G01*
X127742000Y-108160000D01*
G75*
G02*
X128060000Y-108478000I0J-318000D01*
G01*
X128060000Y-109962000D01*
G75*
G02*
X127742000Y-110280000I-318000J0D01*
G01*
X126258000Y-110280000D01*
G75*
G02*
X125940000Y-109962000I0J318000D01*
G01*
G37*
G04 #@! TD.AperFunction*
G04 #@! TA.AperFunction,ComponentPad*
G36*
G01*
X125940000Y-107422000D02*
X125940000Y-105938000D01*
G75*
G02*
X126258000Y-105620000I318000J0D01*
G01*
X127742000Y-105620000D01*
G75*
G02*
X128060000Y-105938000I0J-318000D01*
G01*
X128060000Y-107422000D01*
G75*
G02*
X127742000Y-107740000I-318000J0D01*
G01*
X126258000Y-107740000D01*
G75*
G02*
X125940000Y-107422000I0J318000D01*
G01*
G37*
G04 #@! TD.AperFunction*
G04 #@! TA.AperFunction,ComponentPad*
G36*
G01*
X123400000Y-107422000D02*
X123400000Y-105938000D01*
G75*
G02*
X123718000Y-105620000I318000J0D01*
G01*
X127322000Y-105620000D01*
G75*
G02*
X127640000Y-105938000I0J-318000D01*
G01*
X127640000Y-107422000D01*
G75*
G02*
X127322000Y-107740000I-318000J0D01*
G01*
X123718000Y-107740000D01*
G75*
G02*
X123400000Y-107422000I0J318000D01*
G01*
G37*
G04 #@! TD.AperFunction*
G04 #@! TA.AperFunction,ComponentPad*
G36*
G01*
X123400000Y-104882000D02*
X123400000Y-103398000D01*
G75*
G02*
X123718000Y-103080000I318000J0D01*
G01*
X127322000Y-103080000D01*
G75*
G02*
X127640000Y-103398000I0J-318000D01*
G01*
X127640000Y-104882000D01*
G75*
G02*
X127322000Y-105200000I-318000J0D01*
G01*
X123718000Y-105200000D01*
G75*
G02*
X123400000Y-104882000I0J318000D01*
G01*
G37*
G04 #@! TD.AperFunction*
G04 #@! TA.AperFunction,ComponentPad*
G36*
G01*
X125940000Y-104882000D02*
X125940000Y-103398000D01*
G75*
G02*
X126258000Y-103080000I318000J0D01*
G01*
X127742000Y-103080000D01*
G75*
G02*
X128060000Y-103398000I0J-318000D01*
G01*
X128060000Y-104882000D01*
G75*
G02*
X127742000Y-105200000I-318000J0D01*
G01*
X126258000Y-105200000D01*
G75*
G02*
X125940000Y-104882000I0J318000D01*
G01*
G37*
G04 #@! TD.AperFunction*
G04 #@! TA.AperFunction,ComponentPad*
G36*
G01*
X123400000Y-102342000D02*
X123400000Y-100858000D01*
G75*
G02*
X123718000Y-100540000I318000J0D01*
G01*
X127322000Y-100540000D01*
G75*
G02*
X127640000Y-100858000I0J-318000D01*
G01*
X127640000Y-102342000D01*
G75*
G02*
X127322000Y-102660000I-318000J0D01*
G01*
X123718000Y-102660000D01*
G75*
G02*
X123400000Y-102342000I0J318000D01*
G01*
G37*
G04 #@! TD.AperFunction*
G04 #@! TA.AperFunction,ComponentPad*
G36*
G01*
X125940000Y-102342000D02*
X125940000Y-100858000D01*
G75*
G02*
X126258000Y-100540000I318000J0D01*
G01*
X127742000Y-100540000D01*
G75*
G02*
X128060000Y-100858000I0J-318000D01*
G01*
X128060000Y-102342000D01*
G75*
G02*
X127742000Y-102660000I-318000J0D01*
G01*
X126258000Y-102660000D01*
G75*
G02*
X125940000Y-102342000I0J318000D01*
G01*
G37*
G04 #@! TD.AperFunction*
G04 #@! TA.AperFunction,ComponentPad*
G36*
G01*
X125940000Y-99802000D02*
X125940000Y-98318000D01*
G75*
G02*
X126258000Y-98000000I318000J0D01*
G01*
X127742000Y-98000000D01*
G75*
G02*
X128060000Y-98318000I0J-318000D01*
G01*
X128060000Y-99802000D01*
G75*
G02*
X127742000Y-100120000I-318000J0D01*
G01*
X126258000Y-100120000D01*
G75*
G02*
X125940000Y-99802000I0J318000D01*
G01*
G37*
G04 #@! TD.AperFunction*
G04 #@! TA.AperFunction,ComponentPad*
G36*
G01*
X123400000Y-99802000D02*
X123400000Y-98318000D01*
G75*
G02*
X123718000Y-98000000I318000J0D01*
G01*
X127322000Y-98000000D01*
G75*
G02*
X127640000Y-98318000I0J-318000D01*
G01*
X127640000Y-99802000D01*
G75*
G02*
X127322000Y-100120000I-318000J0D01*
G01*
X123718000Y-100120000D01*
G75*
G02*
X123400000Y-99802000I0J318000D01*
G01*
G37*
G04 #@! TD.AperFunction*
G04 #@! TA.AperFunction,ComponentPad*
G36*
G01*
X123400000Y-97262000D02*
X123400000Y-95778000D01*
G75*
G02*
X123718000Y-95460000I318000J0D01*
G01*
X127322000Y-95460000D01*
G75*
G02*
X127640000Y-95778000I0J-318000D01*
G01*
X127640000Y-97262000D01*
G75*
G02*
X127322000Y-97580000I-318000J0D01*
G01*
X123718000Y-97580000D01*
G75*
G02*
X123400000Y-97262000I0J318000D01*
G01*
G37*
G04 #@! TD.AperFunction*
G04 #@! TA.AperFunction,ComponentPad*
G36*
G01*
X125940000Y-97262000D02*
X125940000Y-95778000D01*
G75*
G02*
X126258000Y-95460000I318000J0D01*
G01*
X127742000Y-95460000D01*
G75*
G02*
X128060000Y-95778000I0J-318000D01*
G01*
X128060000Y-97262000D01*
G75*
G02*
X127742000Y-97580000I-318000J0D01*
G01*
X126258000Y-97580000D01*
G75*
G02*
X125940000Y-97262000I0J318000D01*
G01*
G37*
G04 #@! TD.AperFunction*
G04 #@! TA.AperFunction,ComponentPad*
G36*
G01*
X131020000Y-107528000D02*
X131020000Y-105832000D01*
G75*
G02*
X131232000Y-105620000I212000J0D01*
G01*
X132928000Y-105620000D01*
G75*
G02*
X133140000Y-105832000I0J-212000D01*
G01*
X133140000Y-107528000D01*
G75*
G02*
X132928000Y-107740000I-212000J0D01*
G01*
X131232000Y-107740000D01*
G75*
G02*
X131020000Y-107528000I0J212000D01*
G01*
G37*
G04 #@! TD.AperFunction*
G04 #@! TA.AperFunction,ComponentPad*
G36*
G01*
X131020000Y-97368000D02*
X131020000Y-95672000D01*
G75*
G02*
X131232000Y-95460000I212000J0D01*
G01*
X132928000Y-95460000D01*
G75*
G02*
X133140000Y-95672000I0J-212000D01*
G01*
X133140000Y-97368000D01*
G75*
G02*
X132928000Y-97580000I-212000J0D01*
G01*
X131232000Y-97580000D01*
G75*
G02*
X131020000Y-97368000I0J212000D01*
G01*
G37*
G04 #@! TD.AperFunction*
G04 #@! TA.AperFunction,ComponentPad*
G36*
G01*
X131020000Y-104988000D02*
X131020000Y-103292000D01*
G75*
G02*
X131232000Y-103080000I212000J0D01*
G01*
X132928000Y-103080000D01*
G75*
G02*
X133140000Y-103292000I0J-212000D01*
G01*
X133140000Y-104988000D01*
G75*
G02*
X132928000Y-105200000I-212000J0D01*
G01*
X131232000Y-105200000D01*
G75*
G02*
X131020000Y-104988000I0J212000D01*
G01*
G37*
G04 #@! TD.AperFunction*
G04 #@! TA.AperFunction,ComponentPad*
G36*
G01*
X131020000Y-94828000D02*
X131020000Y-93132000D01*
G75*
G02*
X131232000Y-92920000I212000J0D01*
G01*
X132928000Y-92920000D01*
G75*
G02*
X133140000Y-93132000I0J-212000D01*
G01*
X133140000Y-94828000D01*
G75*
G02*
X132928000Y-95040000I-212000J0D01*
G01*
X131232000Y-95040000D01*
G75*
G02*
X131020000Y-94828000I0J212000D01*
G01*
G37*
G04 #@! TD.AperFunction*
G04 #@! TA.AperFunction,ComponentPad*
G36*
G01*
X131020000Y-112608000D02*
X131020000Y-110912000D01*
G75*
G02*
X131232000Y-110700000I212000J0D01*
G01*
X132928000Y-110700000D01*
G75*
G02*
X133140000Y-110912000I0J-212000D01*
G01*
X133140000Y-112608000D01*
G75*
G02*
X132928000Y-112820000I-212000J0D01*
G01*
X131232000Y-112820000D01*
G75*
G02*
X131020000Y-112608000I0J212000D01*
G01*
G37*
G04 #@! TD.AperFunction*
G04 #@! TA.AperFunction,ComponentPad*
G36*
G01*
X131020000Y-110068000D02*
X131020000Y-108372000D01*
G75*
G02*
X131232000Y-108160000I212000J0D01*
G01*
X132928000Y-108160000D01*
G75*
G02*
X133140000Y-108372000I0J-212000D01*
G01*
X133140000Y-110068000D01*
G75*
G02*
X132928000Y-110280000I-212000J0D01*
G01*
X131232000Y-110280000D01*
G75*
G02*
X131020000Y-110068000I0J212000D01*
G01*
G37*
G04 #@! TD.AperFunction*
G04 #@! TA.AperFunction,ComponentPad*
G36*
G01*
X131020000Y-99908000D02*
X131020000Y-98212000D01*
G75*
G02*
X131232000Y-98000000I212000J0D01*
G01*
X132928000Y-98000000D01*
G75*
G02*
X133140000Y-98212000I0J-212000D01*
G01*
X133140000Y-99908000D01*
G75*
G02*
X132928000Y-100120000I-212000J0D01*
G01*
X131232000Y-100120000D01*
G75*
G02*
X131020000Y-99908000I0J212000D01*
G01*
G37*
G04 #@! TD.AperFunction*
G04 #@! TA.AperFunction,ComponentPad*
G36*
G01*
X131020000Y-102448000D02*
X131020000Y-100752000D01*
G75*
G02*
X131232000Y-100540000I212000J0D01*
G01*
X132928000Y-100540000D01*
G75*
G02*
X133140000Y-100752000I0J-212000D01*
G01*
X133140000Y-102448000D01*
G75*
G02*
X132928000Y-102660000I-212000J0D01*
G01*
X131232000Y-102660000D01*
G75*
G02*
X131020000Y-102448000I0J212000D01*
G01*
G37*
G04 #@! TD.AperFunction*
G04 #@! TA.AperFunction,ComponentPad*
G36*
G01*
X133560000Y-94828000D02*
X133560000Y-93132000D01*
G75*
G02*
X133772000Y-92920000I212000J0D01*
G01*
X135468000Y-92920000D01*
G75*
G02*
X135680000Y-93132000I0J-212000D01*
G01*
X135680000Y-94828000D01*
G75*
G02*
X135468000Y-95040000I-212000J0D01*
G01*
X133772000Y-95040000D01*
G75*
G02*
X133560000Y-94828000I0J212000D01*
G01*
G37*
G04 #@! TD.AperFunction*
G04 #@! TA.AperFunction,ComponentPad*
G36*
G01*
X133560000Y-112608000D02*
X133560000Y-110912000D01*
G75*
G02*
X133772000Y-110700000I212000J0D01*
G01*
X135468000Y-110700000D01*
G75*
G02*
X135680000Y-110912000I0J-212000D01*
G01*
X135680000Y-112608000D01*
G75*
G02*
X135468000Y-112820000I-212000J0D01*
G01*
X133772000Y-112820000D01*
G75*
G02*
X133560000Y-112608000I0J212000D01*
G01*
G37*
G04 #@! TD.AperFunction*
G04 #@! TA.AperFunction,ComponentPad*
G36*
G01*
X133560000Y-110068000D02*
X133560000Y-108372000D01*
G75*
G02*
X133772000Y-108160000I212000J0D01*
G01*
X135468000Y-108160000D01*
G75*
G02*
X135680000Y-108372000I0J-212000D01*
G01*
X135680000Y-110068000D01*
G75*
G02*
X135468000Y-110280000I-212000J0D01*
G01*
X133772000Y-110280000D01*
G75*
G02*
X133560000Y-110068000I0J212000D01*
G01*
G37*
G04 #@! TD.AperFunction*
G04 #@! TA.AperFunction,ComponentPad*
G36*
G01*
X133560000Y-99908000D02*
X133560000Y-98212000D01*
G75*
G02*
X133772000Y-98000000I212000J0D01*
G01*
X135468000Y-98000000D01*
G75*
G02*
X135680000Y-98212000I0J-212000D01*
G01*
X135680000Y-99908000D01*
G75*
G02*
X135468000Y-100120000I-212000J0D01*
G01*
X133772000Y-100120000D01*
G75*
G02*
X133560000Y-99908000I0J212000D01*
G01*
G37*
G04 #@! TD.AperFunction*
G04 #@! TA.AperFunction,ComponentPad*
G36*
G01*
X133560000Y-102448000D02*
X133560000Y-100752000D01*
G75*
G02*
X133772000Y-100540000I212000J0D01*
G01*
X135468000Y-100540000D01*
G75*
G02*
X135680000Y-100752000I0J-212000D01*
G01*
X135680000Y-102448000D01*
G75*
G02*
X135468000Y-102660000I-212000J0D01*
G01*
X133772000Y-102660000D01*
G75*
G02*
X133560000Y-102448000I0J212000D01*
G01*
G37*
G04 #@! TD.AperFunction*
G04 #@! TA.AperFunction,ComponentPad*
G36*
G01*
X133560000Y-107528000D02*
X133560000Y-105832000D01*
G75*
G02*
X133772000Y-105620000I212000J0D01*
G01*
X135468000Y-105620000D01*
G75*
G02*
X135680000Y-105832000I0J-212000D01*
G01*
X135680000Y-107528000D01*
G75*
G02*
X135468000Y-107740000I-212000J0D01*
G01*
X133772000Y-107740000D01*
G75*
G02*
X133560000Y-107528000I0J212000D01*
G01*
G37*
G04 #@! TD.AperFunction*
G04 #@! TA.AperFunction,ComponentPad*
G36*
G01*
X133560000Y-97368000D02*
X133560000Y-95672000D01*
G75*
G02*
X133772000Y-95460000I212000J0D01*
G01*
X135468000Y-95460000D01*
G75*
G02*
X135680000Y-95672000I0J-212000D01*
G01*
X135680000Y-97368000D01*
G75*
G02*
X135468000Y-97580000I-212000J0D01*
G01*
X133772000Y-97580000D01*
G75*
G02*
X133560000Y-97368000I0J212000D01*
G01*
G37*
G04 #@! TD.AperFunction*
G04 #@! TA.AperFunction,ComponentPad*
G36*
G01*
X133560000Y-104988000D02*
X133560000Y-103292000D01*
G75*
G02*
X133772000Y-103080000I212000J0D01*
G01*
X135468000Y-103080000D01*
G75*
G02*
X135680000Y-103292000I0J-212000D01*
G01*
X135680000Y-104988000D01*
G75*
G02*
X135468000Y-105200000I-212000J0D01*
G01*
X133772000Y-105200000D01*
G75*
G02*
X133560000Y-104988000I0J212000D01*
G01*
G37*
G04 #@! TD.AperFunction*
G04 #@! TA.AperFunction,ComponentPad*
G36*
G01*
X136100000Y-94828000D02*
X136100000Y-93132000D01*
G75*
G02*
X136312000Y-92920000I212000J0D01*
G01*
X138008000Y-92920000D01*
G75*
G02*
X138220000Y-93132000I0J-212000D01*
G01*
X138220000Y-94828000D01*
G75*
G02*
X138008000Y-95040000I-212000J0D01*
G01*
X136312000Y-95040000D01*
G75*
G02*
X136100000Y-94828000I0J212000D01*
G01*
G37*
G04 #@! TD.AperFunction*
G04 #@! TA.AperFunction,ComponentPad*
G36*
G01*
X136100000Y-112608000D02*
X136100000Y-110912000D01*
G75*
G02*
X136312000Y-110700000I212000J0D01*
G01*
X138008000Y-110700000D01*
G75*
G02*
X138220000Y-110912000I0J-212000D01*
G01*
X138220000Y-112608000D01*
G75*
G02*
X138008000Y-112820000I-212000J0D01*
G01*
X136312000Y-112820000D01*
G75*
G02*
X136100000Y-112608000I0J212000D01*
G01*
G37*
G04 #@! TD.AperFunction*
G04 #@! TA.AperFunction,ComponentPad*
G36*
G01*
X136100000Y-110068000D02*
X136100000Y-108372000D01*
G75*
G02*
X136312000Y-108160000I212000J0D01*
G01*
X138008000Y-108160000D01*
G75*
G02*
X138220000Y-108372000I0J-212000D01*
G01*
X138220000Y-110068000D01*
G75*
G02*
X138008000Y-110280000I-212000J0D01*
G01*
X136312000Y-110280000D01*
G75*
G02*
X136100000Y-110068000I0J212000D01*
G01*
G37*
G04 #@! TD.AperFunction*
G04 #@! TA.AperFunction,ComponentPad*
G36*
G01*
X136100000Y-99908000D02*
X136100000Y-98212000D01*
G75*
G02*
X136312000Y-98000000I212000J0D01*
G01*
X138008000Y-98000000D01*
G75*
G02*
X138220000Y-98212000I0J-212000D01*
G01*
X138220000Y-99908000D01*
G75*
G02*
X138008000Y-100120000I-212000J0D01*
G01*
X136312000Y-100120000D01*
G75*
G02*
X136100000Y-99908000I0J212000D01*
G01*
G37*
G04 #@! TD.AperFunction*
G04 #@! TA.AperFunction,ComponentPad*
G36*
G01*
X136100000Y-102448000D02*
X136100000Y-100752000D01*
G75*
G02*
X136312000Y-100540000I212000J0D01*
G01*
X138008000Y-100540000D01*
G75*
G02*
X138220000Y-100752000I0J-212000D01*
G01*
X138220000Y-102448000D01*
G75*
G02*
X138008000Y-102660000I-212000J0D01*
G01*
X136312000Y-102660000D01*
G75*
G02*
X136100000Y-102448000I0J212000D01*
G01*
G37*
G04 #@! TD.AperFunction*
G04 #@! TA.AperFunction,ComponentPad*
G36*
G01*
X136100000Y-107528000D02*
X136100000Y-105832000D01*
G75*
G02*
X136312000Y-105620000I212000J0D01*
G01*
X138008000Y-105620000D01*
G75*
G02*
X138220000Y-105832000I0J-212000D01*
G01*
X138220000Y-107528000D01*
G75*
G02*
X138008000Y-107740000I-212000J0D01*
G01*
X136312000Y-107740000D01*
G75*
G02*
X136100000Y-107528000I0J212000D01*
G01*
G37*
G04 #@! TD.AperFunction*
G04 #@! TA.AperFunction,ComponentPad*
G36*
G01*
X136100000Y-97368000D02*
X136100000Y-95672000D01*
G75*
G02*
X136312000Y-95460000I212000J0D01*
G01*
X138008000Y-95460000D01*
G75*
G02*
X138220000Y-95672000I0J-212000D01*
G01*
X138220000Y-97368000D01*
G75*
G02*
X138008000Y-97580000I-212000J0D01*
G01*
X136312000Y-97580000D01*
G75*
G02*
X136100000Y-97368000I0J212000D01*
G01*
G37*
G04 #@! TD.AperFunction*
G04 #@! TA.AperFunction,ComponentPad*
G36*
G01*
X136100000Y-104988000D02*
X136100000Y-103292000D01*
G75*
G02*
X136312000Y-103080000I212000J0D01*
G01*
X138008000Y-103080000D01*
G75*
G02*
X138220000Y-103292000I0J-212000D01*
G01*
X138220000Y-104988000D01*
G75*
G02*
X138008000Y-105200000I-212000J0D01*
G01*
X136312000Y-105200000D01*
G75*
G02*
X136100000Y-104988000I0J212000D01*
G01*
G37*
G04 #@! TD.AperFunction*
G04 #@! TA.AperFunction,ComponentPad*
G36*
G01*
X138640000Y-94828000D02*
X138640000Y-93132000D01*
G75*
G02*
X138852000Y-92920000I212000J0D01*
G01*
X140548000Y-92920000D01*
G75*
G02*
X140760000Y-93132000I0J-212000D01*
G01*
X140760000Y-94828000D01*
G75*
G02*
X140548000Y-95040000I-212000J0D01*
G01*
X138852000Y-95040000D01*
G75*
G02*
X138640000Y-94828000I0J212000D01*
G01*
G37*
G04 #@! TD.AperFunction*
G04 #@! TA.AperFunction,ComponentPad*
G36*
G01*
X138640000Y-107528000D02*
X138640000Y-105832000D01*
G75*
G02*
X138852000Y-105620000I212000J0D01*
G01*
X140548000Y-105620000D01*
G75*
G02*
X140760000Y-105832000I0J-212000D01*
G01*
X140760000Y-107528000D01*
G75*
G02*
X140548000Y-107740000I-212000J0D01*
G01*
X138852000Y-107740000D01*
G75*
G02*
X138640000Y-107528000I0J212000D01*
G01*
G37*
G04 #@! TD.AperFunction*
G04 #@! TA.AperFunction,ComponentPad*
G36*
G01*
X138640000Y-97368000D02*
X138640000Y-95672000D01*
G75*
G02*
X138852000Y-95460000I212000J0D01*
G01*
X140548000Y-95460000D01*
G75*
G02*
X140760000Y-95672000I0J-212000D01*
G01*
X140760000Y-97368000D01*
G75*
G02*
X140548000Y-97580000I-212000J0D01*
G01*
X138852000Y-97580000D01*
G75*
G02*
X138640000Y-97368000I0J212000D01*
G01*
G37*
G04 #@! TD.AperFunction*
G04 #@! TA.AperFunction,ComponentPad*
G36*
G01*
X138640000Y-104988000D02*
X138640000Y-103292000D01*
G75*
G02*
X138852000Y-103080000I212000J0D01*
G01*
X140548000Y-103080000D01*
G75*
G02*
X140760000Y-103292000I0J-212000D01*
G01*
X140760000Y-104988000D01*
G75*
G02*
X140548000Y-105200000I-212000J0D01*
G01*
X138852000Y-105200000D01*
G75*
G02*
X138640000Y-104988000I0J212000D01*
G01*
G37*
G04 #@! TD.AperFunction*
G04 #@! TA.AperFunction,ComponentPad*
G36*
G01*
X138640000Y-102448000D02*
X138640000Y-100752000D01*
G75*
G02*
X138852000Y-100540000I212000J0D01*
G01*
X140548000Y-100540000D01*
G75*
G02*
X140760000Y-100752000I0J-212000D01*
G01*
X140760000Y-102448000D01*
G75*
G02*
X140548000Y-102660000I-212000J0D01*
G01*
X138852000Y-102660000D01*
G75*
G02*
X138640000Y-102448000I0J212000D01*
G01*
G37*
G04 #@! TD.AperFunction*
G04 #@! TA.AperFunction,ComponentPad*
G36*
G01*
X138640000Y-112608000D02*
X138640000Y-110912000D01*
G75*
G02*
X138852000Y-110700000I212000J0D01*
G01*
X140548000Y-110700000D01*
G75*
G02*
X140760000Y-110912000I0J-212000D01*
G01*
X140760000Y-112608000D01*
G75*
G02*
X140548000Y-112820000I-212000J0D01*
G01*
X138852000Y-112820000D01*
G75*
G02*
X138640000Y-112608000I0J212000D01*
G01*
G37*
G04 #@! TD.AperFunction*
G04 #@! TA.AperFunction,ComponentPad*
G36*
G01*
X138640000Y-110068000D02*
X138640000Y-108372000D01*
G75*
G02*
X138852000Y-108160000I212000J0D01*
G01*
X140548000Y-108160000D01*
G75*
G02*
X140760000Y-108372000I0J-212000D01*
G01*
X140760000Y-110068000D01*
G75*
G02*
X140548000Y-110280000I-212000J0D01*
G01*
X138852000Y-110280000D01*
G75*
G02*
X138640000Y-110068000I0J212000D01*
G01*
G37*
G04 #@! TD.AperFunction*
G04 #@! TA.AperFunction,ComponentPad*
G36*
G01*
X138640000Y-99908000D02*
X138640000Y-98212000D01*
G75*
G02*
X138852000Y-98000000I212000J0D01*
G01*
X140548000Y-98000000D01*
G75*
G02*
X140760000Y-98212000I0J-212000D01*
G01*
X140760000Y-99908000D01*
G75*
G02*
X140548000Y-100120000I-212000J0D01*
G01*
X138852000Y-100120000D01*
G75*
G02*
X138640000Y-99908000I0J212000D01*
G01*
G37*
G04 #@! TD.AperFunction*
G04 #@! TA.AperFunction,ComponentPad*
G36*
G01*
X141180000Y-102448000D02*
X141180000Y-100752000D01*
G75*
G02*
X141392000Y-100540000I212000J0D01*
G01*
X143088000Y-100540000D01*
G75*
G02*
X143300000Y-100752000I0J-212000D01*
G01*
X143300000Y-102448000D01*
G75*
G02*
X143088000Y-102660000I-212000J0D01*
G01*
X141392000Y-102660000D01*
G75*
G02*
X141180000Y-102448000I0J212000D01*
G01*
G37*
G04 #@! TD.AperFunction*
G04 #@! TA.AperFunction,ComponentPad*
G36*
G01*
X141180000Y-112608000D02*
X141180000Y-110912000D01*
G75*
G02*
X141392000Y-110700000I212000J0D01*
G01*
X143088000Y-110700000D01*
G75*
G02*
X143300000Y-110912000I0J-212000D01*
G01*
X143300000Y-112608000D01*
G75*
G02*
X143088000Y-112820000I-212000J0D01*
G01*
X141392000Y-112820000D01*
G75*
G02*
X141180000Y-112608000I0J212000D01*
G01*
G37*
G04 #@! TD.AperFunction*
G04 #@! TA.AperFunction,ComponentPad*
G36*
G01*
X141180000Y-110068000D02*
X141180000Y-108372000D01*
G75*
G02*
X141392000Y-108160000I212000J0D01*
G01*
X143088000Y-108160000D01*
G75*
G02*
X143300000Y-108372000I0J-212000D01*
G01*
X143300000Y-110068000D01*
G75*
G02*
X143088000Y-110280000I-212000J0D01*
G01*
X141392000Y-110280000D01*
G75*
G02*
X141180000Y-110068000I0J212000D01*
G01*
G37*
G04 #@! TD.AperFunction*
G04 #@! TA.AperFunction,ComponentPad*
G36*
G01*
X141180000Y-99908000D02*
X141180000Y-98212000D01*
G75*
G02*
X141392000Y-98000000I212000J0D01*
G01*
X143088000Y-98000000D01*
G75*
G02*
X143300000Y-98212000I0J-212000D01*
G01*
X143300000Y-99908000D01*
G75*
G02*
X143088000Y-100120000I-212000J0D01*
G01*
X141392000Y-100120000D01*
G75*
G02*
X141180000Y-99908000I0J212000D01*
G01*
G37*
G04 #@! TD.AperFunction*
G04 #@! TA.AperFunction,ComponentPad*
G36*
G01*
X141180000Y-94828000D02*
X141180000Y-93132000D01*
G75*
G02*
X141392000Y-92920000I212000J0D01*
G01*
X143088000Y-92920000D01*
G75*
G02*
X143300000Y-93132000I0J-212000D01*
G01*
X143300000Y-94828000D01*
G75*
G02*
X143088000Y-95040000I-212000J0D01*
G01*
X141392000Y-95040000D01*
G75*
G02*
X141180000Y-94828000I0J212000D01*
G01*
G37*
G04 #@! TD.AperFunction*
G04 #@! TA.AperFunction,ComponentPad*
G36*
G01*
X141180000Y-107528000D02*
X141180000Y-105832000D01*
G75*
G02*
X141392000Y-105620000I212000J0D01*
G01*
X143088000Y-105620000D01*
G75*
G02*
X143300000Y-105832000I0J-212000D01*
G01*
X143300000Y-107528000D01*
G75*
G02*
X143088000Y-107740000I-212000J0D01*
G01*
X141392000Y-107740000D01*
G75*
G02*
X141180000Y-107528000I0J212000D01*
G01*
G37*
G04 #@! TD.AperFunction*
G04 #@! TA.AperFunction,ComponentPad*
G36*
G01*
X141180000Y-97368000D02*
X141180000Y-95672000D01*
G75*
G02*
X141392000Y-95460000I212000J0D01*
G01*
X143088000Y-95460000D01*
G75*
G02*
X143300000Y-95672000I0J-212000D01*
G01*
X143300000Y-97368000D01*
G75*
G02*
X143088000Y-97580000I-212000J0D01*
G01*
X141392000Y-97580000D01*
G75*
G02*
X141180000Y-97368000I0J212000D01*
G01*
G37*
G04 #@! TD.AperFunction*
G04 #@! TA.AperFunction,ComponentPad*
G36*
G01*
X141180000Y-104988000D02*
X141180000Y-103292000D01*
G75*
G02*
X141392000Y-103080000I212000J0D01*
G01*
X143088000Y-103080000D01*
G75*
G02*
X143300000Y-103292000I0J-212000D01*
G01*
X143300000Y-104988000D01*
G75*
G02*
X143088000Y-105200000I-212000J0D01*
G01*
X141392000Y-105200000D01*
G75*
G02*
X141180000Y-104988000I0J212000D01*
G01*
G37*
G04 #@! TD.AperFunction*
G04 #@! TA.AperFunction,ComponentPad*
G36*
G01*
X143720000Y-102448000D02*
X143720000Y-100752000D01*
G75*
G02*
X143932000Y-100540000I212000J0D01*
G01*
X145628000Y-100540000D01*
G75*
G02*
X145840000Y-100752000I0J-212000D01*
G01*
X145840000Y-102448000D01*
G75*
G02*
X145628000Y-102660000I-212000J0D01*
G01*
X143932000Y-102660000D01*
G75*
G02*
X143720000Y-102448000I0J212000D01*
G01*
G37*
G04 #@! TD.AperFunction*
G04 #@! TA.AperFunction,ComponentPad*
G36*
G01*
X143720000Y-112608000D02*
X143720000Y-110912000D01*
G75*
G02*
X143932000Y-110700000I212000J0D01*
G01*
X145628000Y-110700000D01*
G75*
G02*
X145840000Y-110912000I0J-212000D01*
G01*
X145840000Y-112608000D01*
G75*
G02*
X145628000Y-112820000I-212000J0D01*
G01*
X143932000Y-112820000D01*
G75*
G02*
X143720000Y-112608000I0J212000D01*
G01*
G37*
G04 #@! TD.AperFunction*
G04 #@! TA.AperFunction,ComponentPad*
G36*
G01*
X143720000Y-110068000D02*
X143720000Y-108372000D01*
G75*
G02*
X143932000Y-108160000I212000J0D01*
G01*
X145628000Y-108160000D01*
G75*
G02*
X145840000Y-108372000I0J-212000D01*
G01*
X145840000Y-110068000D01*
G75*
G02*
X145628000Y-110280000I-212000J0D01*
G01*
X143932000Y-110280000D01*
G75*
G02*
X143720000Y-110068000I0J212000D01*
G01*
G37*
G04 #@! TD.AperFunction*
G04 #@! TA.AperFunction,ComponentPad*
G36*
G01*
X143720000Y-99908000D02*
X143720000Y-98212000D01*
G75*
G02*
X143932000Y-98000000I212000J0D01*
G01*
X145628000Y-98000000D01*
G75*
G02*
X145840000Y-98212000I0J-212000D01*
G01*
X145840000Y-99908000D01*
G75*
G02*
X145628000Y-100120000I-212000J0D01*
G01*
X143932000Y-100120000D01*
G75*
G02*
X143720000Y-99908000I0J212000D01*
G01*
G37*
G04 #@! TD.AperFunction*
G04 #@! TA.AperFunction,ComponentPad*
G36*
G01*
X143720000Y-94828000D02*
X143720000Y-93132000D01*
G75*
G02*
X143932000Y-92920000I212000J0D01*
G01*
X145628000Y-92920000D01*
G75*
G02*
X145840000Y-93132000I0J-212000D01*
G01*
X145840000Y-94828000D01*
G75*
G02*
X145628000Y-95040000I-212000J0D01*
G01*
X143932000Y-95040000D01*
G75*
G02*
X143720000Y-94828000I0J212000D01*
G01*
G37*
G04 #@! TD.AperFunction*
G04 #@! TA.AperFunction,ComponentPad*
G36*
G01*
X143720000Y-107528000D02*
X143720000Y-105832000D01*
G75*
G02*
X143932000Y-105620000I212000J0D01*
G01*
X145628000Y-105620000D01*
G75*
G02*
X145840000Y-105832000I0J-212000D01*
G01*
X145840000Y-107528000D01*
G75*
G02*
X145628000Y-107740000I-212000J0D01*
G01*
X143932000Y-107740000D01*
G75*
G02*
X143720000Y-107528000I0J212000D01*
G01*
G37*
G04 #@! TD.AperFunction*
G04 #@! TA.AperFunction,ComponentPad*
G36*
G01*
X143720000Y-97368000D02*
X143720000Y-95672000D01*
G75*
G02*
X143932000Y-95460000I212000J0D01*
G01*
X145628000Y-95460000D01*
G75*
G02*
X145840000Y-95672000I0J-212000D01*
G01*
X145840000Y-97368000D01*
G75*
G02*
X145628000Y-97580000I-212000J0D01*
G01*
X143932000Y-97580000D01*
G75*
G02*
X143720000Y-97368000I0J212000D01*
G01*
G37*
G04 #@! TD.AperFunction*
G04 #@! TA.AperFunction,ComponentPad*
G36*
G01*
X143720000Y-104988000D02*
X143720000Y-103292000D01*
G75*
G02*
X143932000Y-103080000I212000J0D01*
G01*
X145628000Y-103080000D01*
G75*
G02*
X145840000Y-103292000I0J-212000D01*
G01*
X145840000Y-104988000D01*
G75*
G02*
X145628000Y-105200000I-212000J0D01*
G01*
X143932000Y-105200000D01*
G75*
G02*
X143720000Y-104988000I0J212000D01*
G01*
G37*
G04 #@! TD.AperFunction*
G04 #@! TA.AperFunction,ComponentPad*
G36*
G01*
X146260000Y-102448000D02*
X146260000Y-100752000D01*
G75*
G02*
X146472000Y-100540000I212000J0D01*
G01*
X148168000Y-100540000D01*
G75*
G02*
X148380000Y-100752000I0J-212000D01*
G01*
X148380000Y-102448000D01*
G75*
G02*
X148168000Y-102660000I-212000J0D01*
G01*
X146472000Y-102660000D01*
G75*
G02*
X146260000Y-102448000I0J212000D01*
G01*
G37*
G04 #@! TD.AperFunction*
G04 #@! TA.AperFunction,ComponentPad*
G36*
G01*
X146260000Y-112608000D02*
X146260000Y-110912000D01*
G75*
G02*
X146472000Y-110700000I212000J0D01*
G01*
X148168000Y-110700000D01*
G75*
G02*
X148380000Y-110912000I0J-212000D01*
G01*
X148380000Y-112608000D01*
G75*
G02*
X148168000Y-112820000I-212000J0D01*
G01*
X146472000Y-112820000D01*
G75*
G02*
X146260000Y-112608000I0J212000D01*
G01*
G37*
G04 #@! TD.AperFunction*
G04 #@! TA.AperFunction,ComponentPad*
G36*
G01*
X146260000Y-110068000D02*
X146260000Y-108372000D01*
G75*
G02*
X146472000Y-108160000I212000J0D01*
G01*
X148168000Y-108160000D01*
G75*
G02*
X148380000Y-108372000I0J-212000D01*
G01*
X148380000Y-110068000D01*
G75*
G02*
X148168000Y-110280000I-212000J0D01*
G01*
X146472000Y-110280000D01*
G75*
G02*
X146260000Y-110068000I0J212000D01*
G01*
G37*
G04 #@! TD.AperFunction*
G04 #@! TA.AperFunction,ComponentPad*
G36*
G01*
X146260000Y-99908000D02*
X146260000Y-98212000D01*
G75*
G02*
X146472000Y-98000000I212000J0D01*
G01*
X148168000Y-98000000D01*
G75*
G02*
X148380000Y-98212000I0J-212000D01*
G01*
X148380000Y-99908000D01*
G75*
G02*
X148168000Y-100120000I-212000J0D01*
G01*
X146472000Y-100120000D01*
G75*
G02*
X146260000Y-99908000I0J212000D01*
G01*
G37*
G04 #@! TD.AperFunction*
G04 #@! TA.AperFunction,ComponentPad*
G36*
G01*
X146260000Y-94828000D02*
X146260000Y-93132000D01*
G75*
G02*
X146472000Y-92920000I212000J0D01*
G01*
X148168000Y-92920000D01*
G75*
G02*
X148380000Y-93132000I0J-212000D01*
G01*
X148380000Y-94828000D01*
G75*
G02*
X148168000Y-95040000I-212000J0D01*
G01*
X146472000Y-95040000D01*
G75*
G02*
X146260000Y-94828000I0J212000D01*
G01*
G37*
G04 #@! TD.AperFunction*
G04 #@! TA.AperFunction,ComponentPad*
G36*
G01*
X146260000Y-107528000D02*
X146260000Y-105832000D01*
G75*
G02*
X146472000Y-105620000I212000J0D01*
G01*
X148168000Y-105620000D01*
G75*
G02*
X148380000Y-105832000I0J-212000D01*
G01*
X148380000Y-107528000D01*
G75*
G02*
X148168000Y-107740000I-212000J0D01*
G01*
X146472000Y-107740000D01*
G75*
G02*
X146260000Y-107528000I0J212000D01*
G01*
G37*
G04 #@! TD.AperFunction*
G04 #@! TA.AperFunction,ComponentPad*
G36*
G01*
X146260000Y-97368000D02*
X146260000Y-95672000D01*
G75*
G02*
X146472000Y-95460000I212000J0D01*
G01*
X148168000Y-95460000D01*
G75*
G02*
X148380000Y-95672000I0J-212000D01*
G01*
X148380000Y-97368000D01*
G75*
G02*
X148168000Y-97580000I-212000J0D01*
G01*
X146472000Y-97580000D01*
G75*
G02*
X146260000Y-97368000I0J212000D01*
G01*
G37*
G04 #@! TD.AperFunction*
G04 #@! TA.AperFunction,ComponentPad*
G36*
G01*
X146260000Y-104988000D02*
X146260000Y-103292000D01*
G75*
G02*
X146472000Y-103080000I212000J0D01*
G01*
X148168000Y-103080000D01*
G75*
G02*
X148380000Y-103292000I0J-212000D01*
G01*
X148380000Y-104988000D01*
G75*
G02*
X148168000Y-105200000I-212000J0D01*
G01*
X146472000Y-105200000D01*
G75*
G02*
X146260000Y-104988000I0J212000D01*
G01*
G37*
G04 #@! TD.AperFunction*
G04 #@! TA.AperFunction,ComponentPad*
G36*
G01*
X148800000Y-112608000D02*
X148800000Y-110912000D01*
G75*
G02*
X149012000Y-110700000I212000J0D01*
G01*
X150708000Y-110700000D01*
G75*
G02*
X150920000Y-110912000I0J-212000D01*
G01*
X150920000Y-112608000D01*
G75*
G02*
X150708000Y-112820000I-212000J0D01*
G01*
X149012000Y-112820000D01*
G75*
G02*
X148800000Y-112608000I0J212000D01*
G01*
G37*
G04 #@! TD.AperFunction*
G04 #@! TA.AperFunction,ComponentPad*
G36*
G01*
X148800000Y-110068000D02*
X148800000Y-108372000D01*
G75*
G02*
X149012000Y-108160000I212000J0D01*
G01*
X150708000Y-108160000D01*
G75*
G02*
X150920000Y-108372000I0J-212000D01*
G01*
X150920000Y-110068000D01*
G75*
G02*
X150708000Y-110280000I-212000J0D01*
G01*
X149012000Y-110280000D01*
G75*
G02*
X148800000Y-110068000I0J212000D01*
G01*
G37*
G04 #@! TD.AperFunction*
G04 #@! TA.AperFunction,ComponentPad*
G36*
G01*
X148800000Y-99908000D02*
X148800000Y-98212000D01*
G75*
G02*
X149012000Y-98000000I212000J0D01*
G01*
X150708000Y-98000000D01*
G75*
G02*
X150920000Y-98212000I0J-212000D01*
G01*
X150920000Y-99908000D01*
G75*
G02*
X150708000Y-100120000I-212000J0D01*
G01*
X149012000Y-100120000D01*
G75*
G02*
X148800000Y-99908000I0J212000D01*
G01*
G37*
G04 #@! TD.AperFunction*
G04 #@! TA.AperFunction,ComponentPad*
G36*
G01*
X148800000Y-94828000D02*
X148800000Y-93132000D01*
G75*
G02*
X149012000Y-92920000I212000J0D01*
G01*
X150708000Y-92920000D01*
G75*
G02*
X150920000Y-93132000I0J-212000D01*
G01*
X150920000Y-94828000D01*
G75*
G02*
X150708000Y-95040000I-212000J0D01*
G01*
X149012000Y-95040000D01*
G75*
G02*
X148800000Y-94828000I0J212000D01*
G01*
G37*
G04 #@! TD.AperFunction*
G04 #@! TA.AperFunction,ComponentPad*
G36*
G01*
X148800000Y-97368000D02*
X148800000Y-95672000D01*
G75*
G02*
X149012000Y-95460000I212000J0D01*
G01*
X150708000Y-95460000D01*
G75*
G02*
X150920000Y-95672000I0J-212000D01*
G01*
X150920000Y-97368000D01*
G75*
G02*
X150708000Y-97580000I-212000J0D01*
G01*
X149012000Y-97580000D01*
G75*
G02*
X148800000Y-97368000I0J212000D01*
G01*
G37*
G04 #@! TD.AperFunction*
G04 #@! TA.AperFunction,ComponentPad*
G36*
G01*
X148800000Y-104988000D02*
X148800000Y-103292000D01*
G75*
G02*
X149012000Y-103080000I212000J0D01*
G01*
X150708000Y-103080000D01*
G75*
G02*
X150920000Y-103292000I0J-212000D01*
G01*
X150920000Y-104988000D01*
G75*
G02*
X150708000Y-105200000I-212000J0D01*
G01*
X149012000Y-105200000D01*
G75*
G02*
X148800000Y-104988000I0J212000D01*
G01*
G37*
G04 #@! TD.AperFunction*
G04 #@! TA.AperFunction,ComponentPad*
G36*
G01*
X148800000Y-102448000D02*
X148800000Y-100752000D01*
G75*
G02*
X149012000Y-100540000I212000J0D01*
G01*
X150708000Y-100540000D01*
G75*
G02*
X150920000Y-100752000I0J-212000D01*
G01*
X150920000Y-102448000D01*
G75*
G02*
X150708000Y-102660000I-212000J0D01*
G01*
X149012000Y-102660000D01*
G75*
G02*
X148800000Y-102448000I0J212000D01*
G01*
G37*
G04 #@! TD.AperFunction*
G04 #@! TA.AperFunction,ComponentPad*
G36*
G01*
X148800000Y-107528000D02*
X148800000Y-105832000D01*
G75*
G02*
X149012000Y-105620000I212000J0D01*
G01*
X150708000Y-105620000D01*
G75*
G02*
X150920000Y-105832000I0J-212000D01*
G01*
X150920000Y-107528000D01*
G75*
G02*
X150708000Y-107740000I-212000J0D01*
G01*
X149012000Y-107740000D01*
G75*
G02*
X148800000Y-107528000I0J212000D01*
G01*
G37*
G04 #@! TD.AperFunction*
G04 #@! TA.AperFunction,ComponentPad*
G36*
G01*
X151340000Y-97368000D02*
X151340000Y-95672000D01*
G75*
G02*
X151552000Y-95460000I212000J0D01*
G01*
X153248000Y-95460000D01*
G75*
G02*
X153460000Y-95672000I0J-212000D01*
G01*
X153460000Y-97368000D01*
G75*
G02*
X153248000Y-97580000I-212000J0D01*
G01*
X151552000Y-97580000D01*
G75*
G02*
X151340000Y-97368000I0J212000D01*
G01*
G37*
G04 #@! TD.AperFunction*
G04 #@! TA.AperFunction,ComponentPad*
G36*
G01*
X151340000Y-107528000D02*
X151340000Y-105832000D01*
G75*
G02*
X151552000Y-105620000I212000J0D01*
G01*
X153248000Y-105620000D01*
G75*
G02*
X153460000Y-105832000I0J-212000D01*
G01*
X153460000Y-107528000D01*
G75*
G02*
X153248000Y-107740000I-212000J0D01*
G01*
X151552000Y-107740000D01*
G75*
G02*
X151340000Y-107528000I0J212000D01*
G01*
G37*
G04 #@! TD.AperFunction*
G04 #@! TA.AperFunction,ComponentPad*
G36*
G01*
X151340000Y-112608000D02*
X151340000Y-110912000D01*
G75*
G02*
X151552000Y-110700000I212000J0D01*
G01*
X153248000Y-110700000D01*
G75*
G02*
X153460000Y-110912000I0J-212000D01*
G01*
X153460000Y-112608000D01*
G75*
G02*
X153248000Y-112820000I-212000J0D01*
G01*
X151552000Y-112820000D01*
G75*
G02*
X151340000Y-112608000I0J212000D01*
G01*
G37*
G04 #@! TD.AperFunction*
G04 #@! TA.AperFunction,ComponentPad*
G36*
G01*
X151340000Y-110068000D02*
X151340000Y-108372000D01*
G75*
G02*
X151552000Y-108160000I212000J0D01*
G01*
X153248000Y-108160000D01*
G75*
G02*
X153460000Y-108372000I0J-212000D01*
G01*
X153460000Y-110068000D01*
G75*
G02*
X153248000Y-110280000I-212000J0D01*
G01*
X151552000Y-110280000D01*
G75*
G02*
X151340000Y-110068000I0J212000D01*
G01*
G37*
G04 #@! TD.AperFunction*
G04 #@! TA.AperFunction,ComponentPad*
G36*
G01*
X151340000Y-99908000D02*
X151340000Y-98212000D01*
G75*
G02*
X151552000Y-98000000I212000J0D01*
G01*
X153248000Y-98000000D01*
G75*
G02*
X153460000Y-98212000I0J-212000D01*
G01*
X153460000Y-99908000D01*
G75*
G02*
X153248000Y-100120000I-212000J0D01*
G01*
X151552000Y-100120000D01*
G75*
G02*
X151340000Y-99908000I0J212000D01*
G01*
G37*
G04 #@! TD.AperFunction*
G04 #@! TA.AperFunction,ComponentPad*
G36*
G01*
X151340000Y-94828000D02*
X151340000Y-93132000D01*
G75*
G02*
X151552000Y-92920000I212000J0D01*
G01*
X153248000Y-92920000D01*
G75*
G02*
X153460000Y-93132000I0J-212000D01*
G01*
X153460000Y-94828000D01*
G75*
G02*
X153248000Y-95040000I-212000J0D01*
G01*
X151552000Y-95040000D01*
G75*
G02*
X151340000Y-94828000I0J212000D01*
G01*
G37*
G04 #@! TD.AperFunction*
G04 #@! TA.AperFunction,ComponentPad*
G36*
G01*
X151340000Y-104988000D02*
X151340000Y-103292000D01*
G75*
G02*
X151552000Y-103080000I212000J0D01*
G01*
X153248000Y-103080000D01*
G75*
G02*
X153460000Y-103292000I0J-212000D01*
G01*
X153460000Y-104988000D01*
G75*
G02*
X153248000Y-105200000I-212000J0D01*
G01*
X151552000Y-105200000D01*
G75*
G02*
X151340000Y-104988000I0J212000D01*
G01*
G37*
G04 #@! TD.AperFunction*
G04 #@! TA.AperFunction,ComponentPad*
G36*
G01*
X151340000Y-102448000D02*
X151340000Y-100752000D01*
G75*
G02*
X151552000Y-100540000I212000J0D01*
G01*
X153248000Y-100540000D01*
G75*
G02*
X153460000Y-100752000I0J-212000D01*
G01*
X153460000Y-102448000D01*
G75*
G02*
X153248000Y-102660000I-212000J0D01*
G01*
X151552000Y-102660000D01*
G75*
G02*
X151340000Y-102448000I0J212000D01*
G01*
G37*
G04 #@! TD.AperFunction*
G04 #@! TA.AperFunction,ComponentPad*
G36*
G01*
X153880000Y-99908000D02*
X153880000Y-98212000D01*
G75*
G02*
X154092000Y-98000000I212000J0D01*
G01*
X155788000Y-98000000D01*
G75*
G02*
X156000000Y-98212000I0J-212000D01*
G01*
X156000000Y-99908000D01*
G75*
G02*
X155788000Y-100120000I-212000J0D01*
G01*
X154092000Y-100120000D01*
G75*
G02*
X153880000Y-99908000I0J212000D01*
G01*
G37*
G04 #@! TD.AperFunction*
G04 #@! TA.AperFunction,ComponentPad*
G36*
G01*
X153880000Y-94828000D02*
X153880000Y-93132000D01*
G75*
G02*
X154092000Y-92920000I212000J0D01*
G01*
X155788000Y-92920000D01*
G75*
G02*
X156000000Y-93132000I0J-212000D01*
G01*
X156000000Y-94828000D01*
G75*
G02*
X155788000Y-95040000I-212000J0D01*
G01*
X154092000Y-95040000D01*
G75*
G02*
X153880000Y-94828000I0J212000D01*
G01*
G37*
G04 #@! TD.AperFunction*
G04 #@! TA.AperFunction,ComponentPad*
G36*
G01*
X153880000Y-102448000D02*
X153880000Y-100752000D01*
G75*
G02*
X154092000Y-100540000I212000J0D01*
G01*
X155788000Y-100540000D01*
G75*
G02*
X156000000Y-100752000I0J-212000D01*
G01*
X156000000Y-102448000D01*
G75*
G02*
X155788000Y-102660000I-212000J0D01*
G01*
X154092000Y-102660000D01*
G75*
G02*
X153880000Y-102448000I0J212000D01*
G01*
G37*
G04 #@! TD.AperFunction*
G04 #@! TA.AperFunction,ComponentPad*
G36*
G01*
X153880000Y-97368000D02*
X153880000Y-95672000D01*
G75*
G02*
X154092000Y-95460000I212000J0D01*
G01*
X155788000Y-95460000D01*
G75*
G02*
X156000000Y-95672000I0J-212000D01*
G01*
X156000000Y-97368000D01*
G75*
G02*
X155788000Y-97580000I-212000J0D01*
G01*
X154092000Y-97580000D01*
G75*
G02*
X153880000Y-97368000I0J212000D01*
G01*
G37*
G04 #@! TD.AperFunction*
G04 #@! TA.AperFunction,ComponentPad*
G36*
G01*
X153880000Y-104988000D02*
X153880000Y-103292000D01*
G75*
G02*
X154092000Y-103080000I212000J0D01*
G01*
X155788000Y-103080000D01*
G75*
G02*
X156000000Y-103292000I0J-212000D01*
G01*
X156000000Y-104988000D01*
G75*
G02*
X155788000Y-105200000I-212000J0D01*
G01*
X154092000Y-105200000D01*
G75*
G02*
X153880000Y-104988000I0J212000D01*
G01*
G37*
G04 #@! TD.AperFunction*
G04 #@! TA.AperFunction,ComponentPad*
G36*
G01*
X153880000Y-112608000D02*
X153880000Y-110912000D01*
G75*
G02*
X154092000Y-110700000I212000J0D01*
G01*
X155788000Y-110700000D01*
G75*
G02*
X156000000Y-110912000I0J-212000D01*
G01*
X156000000Y-112608000D01*
G75*
G02*
X155788000Y-112820000I-212000J0D01*
G01*
X154092000Y-112820000D01*
G75*
G02*
X153880000Y-112608000I0J212000D01*
G01*
G37*
G04 #@! TD.AperFunction*
G04 #@! TA.AperFunction,ComponentPad*
G36*
G01*
X153880000Y-110068000D02*
X153880000Y-108372000D01*
G75*
G02*
X154092000Y-108160000I212000J0D01*
G01*
X155788000Y-108160000D01*
G75*
G02*
X156000000Y-108372000I0J-212000D01*
G01*
X156000000Y-110068000D01*
G75*
G02*
X155788000Y-110280000I-212000J0D01*
G01*
X154092000Y-110280000D01*
G75*
G02*
X153880000Y-110068000I0J212000D01*
G01*
G37*
G04 #@! TD.AperFunction*
G04 #@! TA.AperFunction,ComponentPad*
G36*
G01*
X153880000Y-107528000D02*
X153880000Y-105832000D01*
G75*
G02*
X154092000Y-105620000I212000J0D01*
G01*
X155788000Y-105620000D01*
G75*
G02*
X156000000Y-105832000I0J-212000D01*
G01*
X156000000Y-107528000D01*
G75*
G02*
X155788000Y-107740000I-212000J0D01*
G01*
X154092000Y-107740000D01*
G75*
G02*
X153880000Y-107528000I0J212000D01*
G01*
G37*
G04 #@! TD.AperFunction*
G04 #@! TA.AperFunction,ComponentPad*
G36*
G01*
X156420000Y-104988000D02*
X156420000Y-103292000D01*
G75*
G02*
X156632000Y-103080000I212000J0D01*
G01*
X158328000Y-103080000D01*
G75*
G02*
X158540000Y-103292000I0J-212000D01*
G01*
X158540000Y-104988000D01*
G75*
G02*
X158328000Y-105200000I-212000J0D01*
G01*
X156632000Y-105200000D01*
G75*
G02*
X156420000Y-104988000I0J212000D01*
G01*
G37*
G04 #@! TD.AperFunction*
G04 #@! TA.AperFunction,ComponentPad*
G36*
G01*
X156420000Y-97368000D02*
X156420000Y-95672000D01*
G75*
G02*
X156632000Y-95460000I212000J0D01*
G01*
X158328000Y-95460000D01*
G75*
G02*
X158540000Y-95672000I0J-212000D01*
G01*
X158540000Y-97368000D01*
G75*
G02*
X158328000Y-97580000I-212000J0D01*
G01*
X156632000Y-97580000D01*
G75*
G02*
X156420000Y-97368000I0J212000D01*
G01*
G37*
G04 #@! TD.AperFunction*
G04 #@! TA.AperFunction,ComponentPad*
G36*
G01*
X156420000Y-112608000D02*
X156420000Y-110912000D01*
G75*
G02*
X156632000Y-110700000I212000J0D01*
G01*
X158328000Y-110700000D01*
G75*
G02*
X158540000Y-110912000I0J-212000D01*
G01*
X158540000Y-112608000D01*
G75*
G02*
X158328000Y-112820000I-212000J0D01*
G01*
X156632000Y-112820000D01*
G75*
G02*
X156420000Y-112608000I0J212000D01*
G01*
G37*
G04 #@! TD.AperFunction*
G04 #@! TA.AperFunction,ComponentPad*
G36*
G01*
X156420000Y-110068000D02*
X156420000Y-108372000D01*
G75*
G02*
X156632000Y-108160000I212000J0D01*
G01*
X158328000Y-108160000D01*
G75*
G02*
X158540000Y-108372000I0J-212000D01*
G01*
X158540000Y-110068000D01*
G75*
G02*
X158328000Y-110280000I-212000J0D01*
G01*
X156632000Y-110280000D01*
G75*
G02*
X156420000Y-110068000I0J212000D01*
G01*
G37*
G04 #@! TD.AperFunction*
G04 #@! TA.AperFunction,ComponentPad*
G36*
G01*
X156420000Y-107528000D02*
X156420000Y-105832000D01*
G75*
G02*
X156632000Y-105620000I212000J0D01*
G01*
X158328000Y-105620000D01*
G75*
G02*
X158540000Y-105832000I0J-212000D01*
G01*
X158540000Y-107528000D01*
G75*
G02*
X158328000Y-107740000I-212000J0D01*
G01*
X156632000Y-107740000D01*
G75*
G02*
X156420000Y-107528000I0J212000D01*
G01*
G37*
G04 #@! TD.AperFunction*
G04 #@! TA.AperFunction,ComponentPad*
G36*
G01*
X156420000Y-99908000D02*
X156420000Y-98212000D01*
G75*
G02*
X156632000Y-98000000I212000J0D01*
G01*
X158328000Y-98000000D01*
G75*
G02*
X158540000Y-98212000I0J-212000D01*
G01*
X158540000Y-99908000D01*
G75*
G02*
X158328000Y-100120000I-212000J0D01*
G01*
X156632000Y-100120000D01*
G75*
G02*
X156420000Y-99908000I0J212000D01*
G01*
G37*
G04 #@! TD.AperFunction*
G04 #@! TA.AperFunction,ComponentPad*
G36*
G01*
X156420000Y-94828000D02*
X156420000Y-93132000D01*
G75*
G02*
X156632000Y-92920000I212000J0D01*
G01*
X158328000Y-92920000D01*
G75*
G02*
X158540000Y-93132000I0J-212000D01*
G01*
X158540000Y-94828000D01*
G75*
G02*
X158328000Y-95040000I-212000J0D01*
G01*
X156632000Y-95040000D01*
G75*
G02*
X156420000Y-94828000I0J212000D01*
G01*
G37*
G04 #@! TD.AperFunction*
G04 #@! TA.AperFunction,ComponentPad*
G36*
G01*
X156420000Y-102448000D02*
X156420000Y-100752000D01*
G75*
G02*
X156632000Y-100540000I212000J0D01*
G01*
X158328000Y-100540000D01*
G75*
G02*
X158540000Y-100752000I0J-212000D01*
G01*
X158540000Y-102448000D01*
G75*
G02*
X158328000Y-102660000I-212000J0D01*
G01*
X156632000Y-102660000D01*
G75*
G02*
X156420000Y-102448000I0J212000D01*
G01*
G37*
G04 #@! TD.AperFunction*
G04 #@! TA.AperFunction,ComponentPad*
G36*
G01*
X158960000Y-110068000D02*
X158960000Y-108372000D01*
G75*
G02*
X159172000Y-108160000I212000J0D01*
G01*
X160868000Y-108160000D01*
G75*
G02*
X161080000Y-108372000I0J-212000D01*
G01*
X161080000Y-110068000D01*
G75*
G02*
X160868000Y-110280000I-212000J0D01*
G01*
X159172000Y-110280000D01*
G75*
G02*
X158960000Y-110068000I0J212000D01*
G01*
G37*
G04 #@! TD.AperFunction*
G04 #@! TA.AperFunction,ComponentPad*
G36*
G01*
X158960000Y-107528000D02*
X158960000Y-105832000D01*
G75*
G02*
X159172000Y-105620000I212000J0D01*
G01*
X160868000Y-105620000D01*
G75*
G02*
X161080000Y-105832000I0J-212000D01*
G01*
X161080000Y-107528000D01*
G75*
G02*
X160868000Y-107740000I-212000J0D01*
G01*
X159172000Y-107740000D01*
G75*
G02*
X158960000Y-107528000I0J212000D01*
G01*
G37*
G04 #@! TD.AperFunction*
G04 #@! TA.AperFunction,ComponentPad*
G36*
G01*
X158960000Y-99908000D02*
X158960000Y-98212000D01*
G75*
G02*
X159172000Y-98000000I212000J0D01*
G01*
X160868000Y-98000000D01*
G75*
G02*
X161080000Y-98212000I0J-212000D01*
G01*
X161080000Y-99908000D01*
G75*
G02*
X160868000Y-100120000I-212000J0D01*
G01*
X159172000Y-100120000D01*
G75*
G02*
X158960000Y-99908000I0J212000D01*
G01*
G37*
G04 #@! TD.AperFunction*
G04 #@! TA.AperFunction,ComponentPad*
G36*
G01*
X158960000Y-94828000D02*
X158960000Y-93132000D01*
G75*
G02*
X159172000Y-92920000I212000J0D01*
G01*
X160868000Y-92920000D01*
G75*
G02*
X161080000Y-93132000I0J-212000D01*
G01*
X161080000Y-94828000D01*
G75*
G02*
X160868000Y-95040000I-212000J0D01*
G01*
X159172000Y-95040000D01*
G75*
G02*
X158960000Y-94828000I0J212000D01*
G01*
G37*
G04 #@! TD.AperFunction*
G04 #@! TA.AperFunction,ComponentPad*
G36*
G01*
X158960000Y-102448000D02*
X158960000Y-100752000D01*
G75*
G02*
X159172000Y-100540000I212000J0D01*
G01*
X160868000Y-100540000D01*
G75*
G02*
X161080000Y-100752000I0J-212000D01*
G01*
X161080000Y-102448000D01*
G75*
G02*
X160868000Y-102660000I-212000J0D01*
G01*
X159172000Y-102660000D01*
G75*
G02*
X158960000Y-102448000I0J212000D01*
G01*
G37*
G04 #@! TD.AperFunction*
G04 #@! TA.AperFunction,ComponentPad*
G36*
G01*
X158960000Y-97368000D02*
X158960000Y-95672000D01*
G75*
G02*
X159172000Y-95460000I212000J0D01*
G01*
X160868000Y-95460000D01*
G75*
G02*
X161080000Y-95672000I0J-212000D01*
G01*
X161080000Y-97368000D01*
G75*
G02*
X160868000Y-97580000I-212000J0D01*
G01*
X159172000Y-97580000D01*
G75*
G02*
X158960000Y-97368000I0J212000D01*
G01*
G37*
G04 #@! TD.AperFunction*
G04 #@! TA.AperFunction,ComponentPad*
G36*
G01*
X158960000Y-112608000D02*
X158960000Y-110912000D01*
G75*
G02*
X159172000Y-110700000I212000J0D01*
G01*
X160868000Y-110700000D01*
G75*
G02*
X161080000Y-110912000I0J-212000D01*
G01*
X161080000Y-112608000D01*
G75*
G02*
X160868000Y-112820000I-212000J0D01*
G01*
X159172000Y-112820000D01*
G75*
G02*
X158960000Y-112608000I0J212000D01*
G01*
G37*
G04 #@! TD.AperFunction*
G04 #@! TA.AperFunction,ComponentPad*
G36*
G01*
X158960000Y-104988000D02*
X158960000Y-103292000D01*
G75*
G02*
X159172000Y-103080000I212000J0D01*
G01*
X160868000Y-103080000D01*
G75*
G02*
X161080000Y-103292000I0J-212000D01*
G01*
X161080000Y-104988000D01*
G75*
G02*
X160868000Y-105200000I-212000J0D01*
G01*
X159172000Y-105200000D01*
G75*
G02*
X158960000Y-104988000I0J212000D01*
G01*
G37*
G04 #@! TD.AperFunction*
G04 #@! TA.AperFunction,ComponentPad*
G36*
G01*
X161500000Y-104988000D02*
X161500000Y-103292000D01*
G75*
G02*
X161712000Y-103080000I212000J0D01*
G01*
X163408000Y-103080000D01*
G75*
G02*
X163620000Y-103292000I0J-212000D01*
G01*
X163620000Y-104988000D01*
G75*
G02*
X163408000Y-105200000I-212000J0D01*
G01*
X161712000Y-105200000D01*
G75*
G02*
X161500000Y-104988000I0J212000D01*
G01*
G37*
G04 #@! TD.AperFunction*
G04 #@! TA.AperFunction,ComponentPad*
G36*
G01*
X161500000Y-102448000D02*
X161500000Y-100752000D01*
G75*
G02*
X161712000Y-100540000I212000J0D01*
G01*
X163408000Y-100540000D01*
G75*
G02*
X163620000Y-100752000I0J-212000D01*
G01*
X163620000Y-102448000D01*
G75*
G02*
X163408000Y-102660000I-212000J0D01*
G01*
X161712000Y-102660000D01*
G75*
G02*
X161500000Y-102448000I0J212000D01*
G01*
G37*
G04 #@! TD.AperFunction*
G04 #@! TA.AperFunction,ComponentPad*
G36*
G01*
X161500000Y-97368000D02*
X161500000Y-95672000D01*
G75*
G02*
X161712000Y-95460000I212000J0D01*
G01*
X163408000Y-95460000D01*
G75*
G02*
X163620000Y-95672000I0J-212000D01*
G01*
X163620000Y-97368000D01*
G75*
G02*
X163408000Y-97580000I-212000J0D01*
G01*
X161712000Y-97580000D01*
G75*
G02*
X161500000Y-97368000I0J212000D01*
G01*
G37*
G04 #@! TD.AperFunction*
G04 #@! TA.AperFunction,ComponentPad*
G36*
G01*
X161500000Y-112608000D02*
X161500000Y-110912000D01*
G75*
G02*
X161712000Y-110700000I212000J0D01*
G01*
X163408000Y-110700000D01*
G75*
G02*
X163620000Y-110912000I0J-212000D01*
G01*
X163620000Y-112608000D01*
G75*
G02*
X163408000Y-112820000I-212000J0D01*
G01*
X161712000Y-112820000D01*
G75*
G02*
X161500000Y-112608000I0J212000D01*
G01*
G37*
G04 #@! TD.AperFunction*
G04 #@! TA.AperFunction,ComponentPad*
G36*
G01*
X161500000Y-110068000D02*
X161500000Y-108372000D01*
G75*
G02*
X161712000Y-108160000I212000J0D01*
G01*
X163408000Y-108160000D01*
G75*
G02*
X163620000Y-108372000I0J-212000D01*
G01*
X163620000Y-110068000D01*
G75*
G02*
X163408000Y-110280000I-212000J0D01*
G01*
X161712000Y-110280000D01*
G75*
G02*
X161500000Y-110068000I0J212000D01*
G01*
G37*
G04 #@! TD.AperFunction*
G04 #@! TA.AperFunction,ComponentPad*
G36*
G01*
X161500000Y-107528000D02*
X161500000Y-105832000D01*
G75*
G02*
X161712000Y-105620000I212000J0D01*
G01*
X163408000Y-105620000D01*
G75*
G02*
X163620000Y-105832000I0J-212000D01*
G01*
X163620000Y-107528000D01*
G75*
G02*
X163408000Y-107740000I-212000J0D01*
G01*
X161712000Y-107740000D01*
G75*
G02*
X161500000Y-107528000I0J212000D01*
G01*
G37*
G04 #@! TD.AperFunction*
G04 #@! TA.AperFunction,ComponentPad*
G36*
G01*
X161500000Y-99908000D02*
X161500000Y-98212000D01*
G75*
G02*
X161712000Y-98000000I212000J0D01*
G01*
X163408000Y-98000000D01*
G75*
G02*
X163620000Y-98212000I0J-212000D01*
G01*
X163620000Y-99908000D01*
G75*
G02*
X163408000Y-100120000I-212000J0D01*
G01*
X161712000Y-100120000D01*
G75*
G02*
X161500000Y-99908000I0J212000D01*
G01*
G37*
G04 #@! TD.AperFunction*
G04 #@! TA.AperFunction,ComponentPad*
G36*
G01*
X161500000Y-94828000D02*
X161500000Y-93132000D01*
G75*
G02*
X161712000Y-92920000I212000J0D01*
G01*
X163408000Y-92920000D01*
G75*
G02*
X163620000Y-93132000I0J-212000D01*
G01*
X163620000Y-94828000D01*
G75*
G02*
X163408000Y-95040000I-212000J0D01*
G01*
X161712000Y-95040000D01*
G75*
G02*
X161500000Y-94828000I0J212000D01*
G01*
G37*
G04 #@! TD.AperFunction*
G04 #@! TA.AperFunction,ComponentPad*
G36*
G01*
X164040000Y-125308000D02*
X164040000Y-123612000D01*
G75*
G02*
X164252000Y-123400000I212000J0D01*
G01*
X165948000Y-123400000D01*
G75*
G02*
X166160000Y-123612000I0J-212000D01*
G01*
X166160000Y-125308000D01*
G75*
G02*
X165948000Y-125520000I-212000J0D01*
G01*
X164252000Y-125520000D01*
G75*
G02*
X164040000Y-125308000I0J212000D01*
G01*
G37*
G04 #@! TD.AperFunction*
G04 #@! TA.AperFunction,ComponentPad*
G36*
G01*
X164040000Y-122768000D02*
X164040000Y-121072000D01*
G75*
G02*
X164252000Y-120860000I212000J0D01*
G01*
X165948000Y-120860000D01*
G75*
G02*
X166160000Y-121072000I0J-212000D01*
G01*
X166160000Y-122768000D01*
G75*
G02*
X165948000Y-122980000I-212000J0D01*
G01*
X164252000Y-122980000D01*
G75*
G02*
X164040000Y-122768000I0J212000D01*
G01*
G37*
G04 #@! TD.AperFunction*
G04 #@! TA.AperFunction,ComponentPad*
G36*
G01*
X164040000Y-127848000D02*
X164040000Y-126152000D01*
G75*
G02*
X164252000Y-125940000I212000J0D01*
G01*
X165948000Y-125940000D01*
G75*
G02*
X166160000Y-126152000I0J-212000D01*
G01*
X166160000Y-127848000D01*
G75*
G02*
X165948000Y-128060000I-212000J0D01*
G01*
X164252000Y-128060000D01*
G75*
G02*
X164040000Y-127848000I0J212000D01*
G01*
G37*
G04 #@! TD.AperFunction*
G04 #@! TA.AperFunction,ComponentPad*
G36*
G01*
X164040000Y-120228000D02*
X164040000Y-118532000D01*
G75*
G02*
X164252000Y-118320000I212000J0D01*
G01*
X165948000Y-118320000D01*
G75*
G02*
X166160000Y-118532000I0J-212000D01*
G01*
X166160000Y-120228000D01*
G75*
G02*
X165948000Y-120440000I-212000J0D01*
G01*
X164252000Y-120440000D01*
G75*
G02*
X164040000Y-120228000I0J212000D01*
G01*
G37*
G04 #@! TD.AperFunction*
G04 #@! TA.AperFunction,ComponentPad*
G36*
G01*
X164040000Y-115148000D02*
X164040000Y-113452000D01*
G75*
G02*
X164252000Y-113240000I212000J0D01*
G01*
X165948000Y-113240000D01*
G75*
G02*
X166160000Y-113452000I0J-212000D01*
G01*
X166160000Y-115148000D01*
G75*
G02*
X165948000Y-115360000I-212000J0D01*
G01*
X164252000Y-115360000D01*
G75*
G02*
X164040000Y-115148000I0J212000D01*
G01*
G37*
G04 #@! TD.AperFunction*
G04 #@! TA.AperFunction,ComponentPad*
G36*
G01*
X164040000Y-112608000D02*
X164040000Y-110912000D01*
G75*
G02*
X164252000Y-110700000I212000J0D01*
G01*
X165948000Y-110700000D01*
G75*
G02*
X166160000Y-110912000I0J-212000D01*
G01*
X166160000Y-112608000D01*
G75*
G02*
X165948000Y-112820000I-212000J0D01*
G01*
X164252000Y-112820000D01*
G75*
G02*
X164040000Y-112608000I0J212000D01*
G01*
G37*
G04 #@! TD.AperFunction*
G04 #@! TA.AperFunction,ComponentPad*
G36*
G01*
X164040000Y-117688000D02*
X164040000Y-115992000D01*
G75*
G02*
X164252000Y-115780000I212000J0D01*
G01*
X165948000Y-115780000D01*
G75*
G02*
X166160000Y-115992000I0J-212000D01*
G01*
X166160000Y-117688000D01*
G75*
G02*
X165948000Y-117900000I-212000J0D01*
G01*
X164252000Y-117900000D01*
G75*
G02*
X164040000Y-117688000I0J212000D01*
G01*
G37*
G04 #@! TD.AperFunction*
G04 #@! TA.AperFunction,ComponentPad*
G36*
G01*
X164040000Y-110068000D02*
X164040000Y-108372000D01*
G75*
G02*
X164252000Y-108160000I212000J0D01*
G01*
X165948000Y-108160000D01*
G75*
G02*
X166160000Y-108372000I0J-212000D01*
G01*
X166160000Y-110068000D01*
G75*
G02*
X165948000Y-110280000I-212000J0D01*
G01*
X164252000Y-110280000D01*
G75*
G02*
X164040000Y-110068000I0J212000D01*
G01*
G37*
G04 #@! TD.AperFunction*
G04 #@! TA.AperFunction,ComponentPad*
G36*
G01*
X164040000Y-107528000D02*
X164040000Y-105832000D01*
G75*
G02*
X164252000Y-105620000I212000J0D01*
G01*
X165948000Y-105620000D01*
G75*
G02*
X166160000Y-105832000I0J-212000D01*
G01*
X166160000Y-107528000D01*
G75*
G02*
X165948000Y-107740000I-212000J0D01*
G01*
X164252000Y-107740000D01*
G75*
G02*
X164040000Y-107528000I0J212000D01*
G01*
G37*
G04 #@! TD.AperFunction*
G04 #@! TA.AperFunction,ComponentPad*
G36*
G01*
X164040000Y-99908000D02*
X164040000Y-98212000D01*
G75*
G02*
X164252000Y-98000000I212000J0D01*
G01*
X165948000Y-98000000D01*
G75*
G02*
X166160000Y-98212000I0J-212000D01*
G01*
X166160000Y-99908000D01*
G75*
G02*
X165948000Y-100120000I-212000J0D01*
G01*
X164252000Y-100120000D01*
G75*
G02*
X164040000Y-99908000I0J212000D01*
G01*
G37*
G04 #@! TD.AperFunction*
G04 #@! TA.AperFunction,ComponentPad*
G36*
G01*
X164040000Y-102448000D02*
X164040000Y-100752000D01*
G75*
G02*
X164252000Y-100540000I212000J0D01*
G01*
X165948000Y-100540000D01*
G75*
G02*
X166160000Y-100752000I0J-212000D01*
G01*
X166160000Y-102448000D01*
G75*
G02*
X165948000Y-102660000I-212000J0D01*
G01*
X164252000Y-102660000D01*
G75*
G02*
X164040000Y-102448000I0J212000D01*
G01*
G37*
G04 #@! TD.AperFunction*
G04 #@! TA.AperFunction,ComponentPad*
G36*
G01*
X164040000Y-104988000D02*
X164040000Y-103292000D01*
G75*
G02*
X164252000Y-103080000I212000J0D01*
G01*
X165948000Y-103080000D01*
G75*
G02*
X166160000Y-103292000I0J-212000D01*
G01*
X166160000Y-104988000D01*
G75*
G02*
X165948000Y-105200000I-212000J0D01*
G01*
X164252000Y-105200000D01*
G75*
G02*
X164040000Y-104988000I0J212000D01*
G01*
G37*
G04 #@! TD.AperFunction*
G04 #@! TA.AperFunction,ComponentPad*
G36*
G01*
X164040000Y-97368000D02*
X164040000Y-95672000D01*
G75*
G02*
X164252000Y-95460000I212000J0D01*
G01*
X165948000Y-95460000D01*
G75*
G02*
X166160000Y-95672000I0J-212000D01*
G01*
X166160000Y-97368000D01*
G75*
G02*
X165948000Y-97580000I-212000J0D01*
G01*
X164252000Y-97580000D01*
G75*
G02*
X164040000Y-97368000I0J212000D01*
G01*
G37*
G04 #@! TD.AperFunction*
G04 #@! TA.AperFunction,ComponentPad*
G36*
G01*
X164040000Y-94828000D02*
X164040000Y-93132000D01*
G75*
G02*
X164252000Y-92920000I212000J0D01*
G01*
X165948000Y-92920000D01*
G75*
G02*
X166160000Y-93132000I0J-212000D01*
G01*
X166160000Y-94828000D01*
G75*
G02*
X165948000Y-95040000I-212000J0D01*
G01*
X164252000Y-95040000D01*
G75*
G02*
X164040000Y-94828000I0J212000D01*
G01*
G37*
G04 #@! TD.AperFunction*
G04 #@! TA.AperFunction,ComponentPad*
G36*
G01*
X125940000Y-94722000D02*
X125940000Y-93238000D01*
G75*
G02*
X126258000Y-92920000I318000J0D01*
G01*
X127742000Y-92920000D01*
G75*
G02*
X128060000Y-93238000I0J-318000D01*
G01*
X128060000Y-94722000D01*
G75*
G02*
X127742000Y-95040000I-318000J0D01*
G01*
X126258000Y-95040000D01*
G75*
G02*
X125940000Y-94722000I0J318000D01*
G01*
G37*
G04 #@! TD.AperFunction*
G04 #@! TA.AperFunction,ComponentPad*
G36*
G01*
X123400000Y-94722000D02*
X123400000Y-93238000D01*
G75*
G02*
X123718000Y-92920000I318000J0D01*
G01*
X127322000Y-92920000D01*
G75*
G02*
X127640000Y-93238000I0J-318000D01*
G01*
X127640000Y-94722000D01*
G75*
G02*
X127322000Y-95040000I-318000J0D01*
G01*
X123718000Y-95040000D01*
G75*
G02*
X123400000Y-94722000I0J318000D01*
G01*
G37*
G04 #@! TD.AperFunction*
G04 #@! TA.AperFunction,ComponentPad*
G36*
G01*
X171660000Y-130282000D02*
X171660000Y-128798000D01*
G75*
G02*
X171978000Y-128480000I318000J0D01*
G01*
X175582000Y-128480000D01*
G75*
G02*
X175900000Y-128798000I0J-318000D01*
G01*
X175900000Y-130282000D01*
G75*
G02*
X175582000Y-130600000I-318000J0D01*
G01*
X171978000Y-130600000D01*
G75*
G02*
X171660000Y-130282000I0J318000D01*
G01*
G37*
G04 #@! TD.AperFunction*
G04 #@! TA.AperFunction,ComponentPad*
G36*
G01*
X174200000Y-130282000D02*
X174200000Y-128798000D01*
G75*
G02*
X174518000Y-128480000I318000J0D01*
G01*
X176002000Y-128480000D01*
G75*
G02*
X176320000Y-128798000I0J-318000D01*
G01*
X176320000Y-130282000D01*
G75*
G02*
X176002000Y-130600000I-318000J0D01*
G01*
X174518000Y-130600000D01*
G75*
G02*
X174200000Y-130282000I0J318000D01*
G01*
G37*
G04 #@! TD.AperFunction*
G04 #@! TA.AperFunction,ComponentPad*
G36*
G01*
X174200000Y-127742000D02*
X174200000Y-126258000D01*
G75*
G02*
X174518000Y-125940000I318000J0D01*
G01*
X176002000Y-125940000D01*
G75*
G02*
X176320000Y-126258000I0J-318000D01*
G01*
X176320000Y-127742000D01*
G75*
G02*
X176002000Y-128060000I-318000J0D01*
G01*
X174518000Y-128060000D01*
G75*
G02*
X174200000Y-127742000I0J318000D01*
G01*
G37*
G04 #@! TD.AperFunction*
G04 #@! TA.AperFunction,ComponentPad*
G36*
G01*
X171660000Y-127742000D02*
X171660000Y-126258000D01*
G75*
G02*
X171978000Y-125940000I318000J0D01*
G01*
X175582000Y-125940000D01*
G75*
G02*
X175900000Y-126258000I0J-318000D01*
G01*
X175900000Y-127742000D01*
G75*
G02*
X175582000Y-128060000I-318000J0D01*
G01*
X171978000Y-128060000D01*
G75*
G02*
X171660000Y-127742000I0J318000D01*
G01*
G37*
G04 #@! TD.AperFunction*
G04 #@! TA.AperFunction,ComponentPad*
G36*
G01*
X171660000Y-117582000D02*
X171660000Y-116098000D01*
G75*
G02*
X171978000Y-115780000I318000J0D01*
G01*
X175582000Y-115780000D01*
G75*
G02*
X175900000Y-116098000I0J-318000D01*
G01*
X175900000Y-117582000D01*
G75*
G02*
X175582000Y-117900000I-318000J0D01*
G01*
X171978000Y-117900000D01*
G75*
G02*
X171660000Y-117582000I0J318000D01*
G01*
G37*
G04 #@! TD.AperFunction*
G04 #@! TA.AperFunction,ComponentPad*
G36*
G01*
X174200000Y-117582000D02*
X174200000Y-116098000D01*
G75*
G02*
X174518000Y-115780000I318000J0D01*
G01*
X176002000Y-115780000D01*
G75*
G02*
X176320000Y-116098000I0J-318000D01*
G01*
X176320000Y-117582000D01*
G75*
G02*
X176002000Y-117900000I-318000J0D01*
G01*
X174518000Y-117900000D01*
G75*
G02*
X174200000Y-117582000I0J318000D01*
G01*
G37*
G04 #@! TD.AperFunction*
G04 #@! TA.AperFunction,ComponentPad*
G36*
G01*
X174200000Y-115042000D02*
X174200000Y-113558000D01*
G75*
G02*
X174518000Y-113240000I318000J0D01*
G01*
X176002000Y-113240000D01*
G75*
G02*
X176320000Y-113558000I0J-318000D01*
G01*
X176320000Y-115042000D01*
G75*
G02*
X176002000Y-115360000I-318000J0D01*
G01*
X174518000Y-115360000D01*
G75*
G02*
X174200000Y-115042000I0J318000D01*
G01*
G37*
G04 #@! TD.AperFunction*
G04 #@! TA.AperFunction,ComponentPad*
G36*
G01*
X171660000Y-115042000D02*
X171660000Y-113558000D01*
G75*
G02*
X171978000Y-113240000I318000J0D01*
G01*
X175582000Y-113240000D01*
G75*
G02*
X175900000Y-113558000I0J-318000D01*
G01*
X175900000Y-115042000D01*
G75*
G02*
X175582000Y-115360000I-318000J0D01*
G01*
X171978000Y-115360000D01*
G75*
G02*
X171660000Y-115042000I0J318000D01*
G01*
G37*
G04 #@! TD.AperFunction*
G04 #@! TA.AperFunction,ComponentPad*
G36*
G01*
X171660000Y-125202000D02*
X171660000Y-123718000D01*
G75*
G02*
X171978000Y-123400000I318000J0D01*
G01*
X175582000Y-123400000D01*
G75*
G02*
X175900000Y-123718000I0J-318000D01*
G01*
X175900000Y-125202000D01*
G75*
G02*
X175582000Y-125520000I-318000J0D01*
G01*
X171978000Y-125520000D01*
G75*
G02*
X171660000Y-125202000I0J318000D01*
G01*
G37*
G04 #@! TD.AperFunction*
G04 #@! TA.AperFunction,ComponentPad*
G36*
G01*
X174200000Y-125202000D02*
X174200000Y-123718000D01*
G75*
G02*
X174518000Y-123400000I318000J0D01*
G01*
X176002000Y-123400000D01*
G75*
G02*
X176320000Y-123718000I0J-318000D01*
G01*
X176320000Y-125202000D01*
G75*
G02*
X176002000Y-125520000I-318000J0D01*
G01*
X174518000Y-125520000D01*
G75*
G02*
X174200000Y-125202000I0J318000D01*
G01*
G37*
G04 #@! TD.AperFunction*
G04 #@! TA.AperFunction,ComponentPad*
G36*
G01*
X171660000Y-87102000D02*
X171660000Y-85618000D01*
G75*
G02*
X171978000Y-85300000I318000J0D01*
G01*
X175582000Y-85300000D01*
G75*
G02*
X175900000Y-85618000I0J-318000D01*
G01*
X175900000Y-87102000D01*
G75*
G02*
X175582000Y-87420000I-318000J0D01*
G01*
X171978000Y-87420000D01*
G75*
G02*
X171660000Y-87102000I0J318000D01*
G01*
G37*
G04 #@! TD.AperFunction*
G04 #@! TA.AperFunction,ComponentPad*
G36*
G01*
X174200000Y-87102000D02*
X174200000Y-85618000D01*
G75*
G02*
X174518000Y-85300000I318000J0D01*
G01*
X176002000Y-85300000D01*
G75*
G02*
X176320000Y-85618000I0J-318000D01*
G01*
X176320000Y-87102000D01*
G75*
G02*
X176002000Y-87420000I-318000J0D01*
G01*
X174518000Y-87420000D01*
G75*
G02*
X174200000Y-87102000I0J318000D01*
G01*
G37*
G04 #@! TD.AperFunction*
G04 #@! TA.AperFunction,ComponentPad*
G36*
G01*
X171660000Y-97262000D02*
X171660000Y-95778000D01*
G75*
G02*
X171978000Y-95460000I318000J0D01*
G01*
X175582000Y-95460000D01*
G75*
G02*
X175900000Y-95778000I0J-318000D01*
G01*
X175900000Y-97262000D01*
G75*
G02*
X175582000Y-97580000I-318000J0D01*
G01*
X171978000Y-97580000D01*
G75*
G02*
X171660000Y-97262000I0J318000D01*
G01*
G37*
G04 #@! TD.AperFunction*
G04 #@! TA.AperFunction,ComponentPad*
G36*
G01*
X174200000Y-97262000D02*
X174200000Y-95778000D01*
G75*
G02*
X174518000Y-95460000I318000J0D01*
G01*
X176002000Y-95460000D01*
G75*
G02*
X176320000Y-95778000I0J-318000D01*
G01*
X176320000Y-97262000D01*
G75*
G02*
X176002000Y-97580000I-318000J0D01*
G01*
X174518000Y-97580000D01*
G75*
G02*
X174200000Y-97262000I0J318000D01*
G01*
G37*
G04 #@! TD.AperFunction*
G04 #@! TA.AperFunction,ComponentPad*
G36*
G01*
X174200000Y-109962000D02*
X174200000Y-108478000D01*
G75*
G02*
X174518000Y-108160000I318000J0D01*
G01*
X176002000Y-108160000D01*
G75*
G02*
X176320000Y-108478000I0J-318000D01*
G01*
X176320000Y-109962000D01*
G75*
G02*
X176002000Y-110280000I-318000J0D01*
G01*
X174518000Y-110280000D01*
G75*
G02*
X174200000Y-109962000I0J318000D01*
G01*
G37*
G04 #@! TD.AperFunction*
G04 #@! TA.AperFunction,ComponentPad*
G36*
G01*
X171660000Y-109962000D02*
X171660000Y-108478000D01*
G75*
G02*
X171978000Y-108160000I318000J0D01*
G01*
X175582000Y-108160000D01*
G75*
G02*
X175900000Y-108478000I0J-318000D01*
G01*
X175900000Y-109962000D01*
G75*
G02*
X175582000Y-110280000I-318000J0D01*
G01*
X171978000Y-110280000D01*
G75*
G02*
X171660000Y-109962000I0J318000D01*
G01*
G37*
G04 #@! TD.AperFunction*
G04 #@! TA.AperFunction,ComponentPad*
G36*
G01*
X171660000Y-107422000D02*
X171660000Y-105938000D01*
G75*
G02*
X171978000Y-105620000I318000J0D01*
G01*
X175582000Y-105620000D01*
G75*
G02*
X175900000Y-105938000I0J-318000D01*
G01*
X175900000Y-107422000D01*
G75*
G02*
X175582000Y-107740000I-318000J0D01*
G01*
X171978000Y-107740000D01*
G75*
G02*
X171660000Y-107422000I0J318000D01*
G01*
G37*
G04 #@! TD.AperFunction*
G04 #@! TA.AperFunction,ComponentPad*
G36*
G01*
X174200000Y-107422000D02*
X174200000Y-105938000D01*
G75*
G02*
X174518000Y-105620000I318000J0D01*
G01*
X176002000Y-105620000D01*
G75*
G02*
X176320000Y-105938000I0J-318000D01*
G01*
X176320000Y-107422000D01*
G75*
G02*
X176002000Y-107740000I-318000J0D01*
G01*
X174518000Y-107740000D01*
G75*
G02*
X174200000Y-107422000I0J318000D01*
G01*
G37*
G04 #@! TD.AperFunction*
G04 #@! TA.AperFunction,ComponentPad*
G36*
G01*
X174200000Y-99802000D02*
X174200000Y-98318000D01*
G75*
G02*
X174518000Y-98000000I318000J0D01*
G01*
X176002000Y-98000000D01*
G75*
G02*
X176320000Y-98318000I0J-318000D01*
G01*
X176320000Y-99802000D01*
G75*
G02*
X176002000Y-100120000I-318000J0D01*
G01*
X174518000Y-100120000D01*
G75*
G02*
X174200000Y-99802000I0J318000D01*
G01*
G37*
G04 #@! TD.AperFunction*
G04 #@! TA.AperFunction,ComponentPad*
G36*
G01*
X171660000Y-99802000D02*
X171660000Y-98318000D01*
G75*
G02*
X171978000Y-98000000I318000J0D01*
G01*
X175582000Y-98000000D01*
G75*
G02*
X175900000Y-98318000I0J-318000D01*
G01*
X175900000Y-99802000D01*
G75*
G02*
X175582000Y-100120000I-318000J0D01*
G01*
X171978000Y-100120000D01*
G75*
G02*
X171660000Y-99802000I0J318000D01*
G01*
G37*
G04 #@! TD.AperFunction*
G04 #@! TA.AperFunction,ComponentPad*
G36*
G01*
X174200000Y-94722000D02*
X174200000Y-93238000D01*
G75*
G02*
X174518000Y-92920000I318000J0D01*
G01*
X176002000Y-92920000D01*
G75*
G02*
X176320000Y-93238000I0J-318000D01*
G01*
X176320000Y-94722000D01*
G75*
G02*
X176002000Y-95040000I-318000J0D01*
G01*
X174518000Y-95040000D01*
G75*
G02*
X174200000Y-94722000I0J318000D01*
G01*
G37*
G04 #@! TD.AperFunction*
G04 #@! TA.AperFunction,ComponentPad*
G36*
G01*
X171660000Y-94722000D02*
X171660000Y-93238000D01*
G75*
G02*
X171978000Y-92920000I318000J0D01*
G01*
X175582000Y-92920000D01*
G75*
G02*
X175900000Y-93238000I0J-318000D01*
G01*
X175900000Y-94722000D01*
G75*
G02*
X175582000Y-95040000I-318000J0D01*
G01*
X171978000Y-95040000D01*
G75*
G02*
X171660000Y-94722000I0J318000D01*
G01*
G37*
G04 #@! TD.AperFunction*
G04 #@! TA.AperFunction,ComponentPad*
G36*
G01*
X174200000Y-89642000D02*
X174200000Y-88158000D01*
G75*
G02*
X174518000Y-87840000I318000J0D01*
G01*
X176002000Y-87840000D01*
G75*
G02*
X176320000Y-88158000I0J-318000D01*
G01*
X176320000Y-89642000D01*
G75*
G02*
X176002000Y-89960000I-318000J0D01*
G01*
X174518000Y-89960000D01*
G75*
G02*
X174200000Y-89642000I0J318000D01*
G01*
G37*
G04 #@! TD.AperFunction*
G04 #@! TA.AperFunction,ComponentPad*
G36*
G01*
X171660000Y-89642000D02*
X171660000Y-88158000D01*
G75*
G02*
X171978000Y-87840000I318000J0D01*
G01*
X175582000Y-87840000D01*
G75*
G02*
X175900000Y-88158000I0J-318000D01*
G01*
X175900000Y-89642000D01*
G75*
G02*
X175582000Y-89960000I-318000J0D01*
G01*
X171978000Y-89960000D01*
G75*
G02*
X171660000Y-89642000I0J318000D01*
G01*
G37*
G04 #@! TD.AperFunction*
G04 #@! TA.AperFunction,ComponentPad*
G36*
G01*
X171660000Y-102342000D02*
X171660000Y-100858000D01*
G75*
G02*
X171978000Y-100540000I318000J0D01*
G01*
X175582000Y-100540000D01*
G75*
G02*
X175900000Y-100858000I0J-318000D01*
G01*
X175900000Y-102342000D01*
G75*
G02*
X175582000Y-102660000I-318000J0D01*
G01*
X171978000Y-102660000D01*
G75*
G02*
X171660000Y-102342000I0J318000D01*
G01*
G37*
G04 #@! TD.AperFunction*
G04 #@! TA.AperFunction,ComponentPad*
G36*
G01*
X174200000Y-102342000D02*
X174200000Y-100858000D01*
G75*
G02*
X174518000Y-100540000I318000J0D01*
G01*
X176002000Y-100540000D01*
G75*
G02*
X176320000Y-100858000I0J-318000D01*
G01*
X176320000Y-102342000D01*
G75*
G02*
X176002000Y-102660000I-318000J0D01*
G01*
X174518000Y-102660000D01*
G75*
G02*
X174200000Y-102342000I0J318000D01*
G01*
G37*
G04 #@! TD.AperFunction*
G04 #@! TA.AperFunction,ComponentPad*
G36*
G01*
X174200000Y-104882000D02*
X174200000Y-103398000D01*
G75*
G02*
X174518000Y-103080000I318000J0D01*
G01*
X176002000Y-103080000D01*
G75*
G02*
X176320000Y-103398000I0J-318000D01*
G01*
X176320000Y-104882000D01*
G75*
G02*
X176002000Y-105200000I-318000J0D01*
G01*
X174518000Y-105200000D01*
G75*
G02*
X174200000Y-104882000I0J318000D01*
G01*
G37*
G04 #@! TD.AperFunction*
G04 #@! TA.AperFunction,ComponentPad*
G36*
G01*
X171660000Y-104882000D02*
X171660000Y-103398000D01*
G75*
G02*
X171978000Y-103080000I318000J0D01*
G01*
X175582000Y-103080000D01*
G75*
G02*
X175900000Y-103398000I0J-318000D01*
G01*
X175900000Y-104882000D01*
G75*
G02*
X175582000Y-105200000I-318000J0D01*
G01*
X171978000Y-105200000D01*
G75*
G02*
X171660000Y-104882000I0J318000D01*
G01*
G37*
G04 #@! TD.AperFunction*
G04 #@! TA.AperFunction,ComponentPad*
G36*
G01*
X171660000Y-92182000D02*
X171660000Y-90698000D01*
G75*
G02*
X171978000Y-90380000I318000J0D01*
G01*
X175582000Y-90380000D01*
G75*
G02*
X175900000Y-90698000I0J-318000D01*
G01*
X175900000Y-92182000D01*
G75*
G02*
X175582000Y-92500000I-318000J0D01*
G01*
X171978000Y-92500000D01*
G75*
G02*
X171660000Y-92182000I0J318000D01*
G01*
G37*
G04 #@! TD.AperFunction*
G04 #@! TA.AperFunction,ComponentPad*
G36*
G01*
X174200000Y-92182000D02*
X174200000Y-90698000D01*
G75*
G02*
X174518000Y-90380000I318000J0D01*
G01*
X176002000Y-90380000D01*
G75*
G02*
X176320000Y-90698000I0J-318000D01*
G01*
X176320000Y-92182000D01*
G75*
G02*
X176002000Y-92500000I-318000J0D01*
G01*
X174518000Y-92500000D01*
G75*
G02*
X174200000Y-92182000I0J318000D01*
G01*
G37*
G04 #@! TD.AperFunction*
G04 #@! TA.AperFunction,ComponentPad*
G36*
G01*
X171660000Y-135362000D02*
X171660000Y-133878000D01*
G75*
G02*
X171978000Y-133560000I318000J0D01*
G01*
X175582000Y-133560000D01*
G75*
G02*
X175900000Y-133878000I0J-318000D01*
G01*
X175900000Y-135362000D01*
G75*
G02*
X175582000Y-135680000I-318000J0D01*
G01*
X171978000Y-135680000D01*
G75*
G02*
X171660000Y-135362000I0J318000D01*
G01*
G37*
G04 #@! TD.AperFunction*
G04 #@! TA.AperFunction,ComponentPad*
G36*
G01*
X174200000Y-135362000D02*
X174200000Y-133878000D01*
G75*
G02*
X174518000Y-133560000I318000J0D01*
G01*
X176002000Y-133560000D01*
G75*
G02*
X176320000Y-133878000I0J-318000D01*
G01*
X176320000Y-135362000D01*
G75*
G02*
X176002000Y-135680000I-318000J0D01*
G01*
X174518000Y-135680000D01*
G75*
G02*
X174200000Y-135362000I0J318000D01*
G01*
G37*
G04 #@! TD.AperFunction*
G04 #@! TA.AperFunction,ComponentPad*
G36*
G01*
X174200000Y-122662000D02*
X174200000Y-121178000D01*
G75*
G02*
X174518000Y-120860000I318000J0D01*
G01*
X176002000Y-120860000D01*
G75*
G02*
X176320000Y-121178000I0J-318000D01*
G01*
X176320000Y-122662000D01*
G75*
G02*
X176002000Y-122980000I-318000J0D01*
G01*
X174518000Y-122980000D01*
G75*
G02*
X174200000Y-122662000I0J318000D01*
G01*
G37*
G04 #@! TD.AperFunction*
G04 #@! TA.AperFunction,ComponentPad*
G36*
G01*
X171660000Y-122662000D02*
X171660000Y-121178000D01*
G75*
G02*
X171978000Y-120860000I318000J0D01*
G01*
X175582000Y-120860000D01*
G75*
G02*
X175900000Y-121178000I0J-318000D01*
G01*
X175900000Y-122662000D01*
G75*
G02*
X175582000Y-122980000I-318000J0D01*
G01*
X171978000Y-122980000D01*
G75*
G02*
X171660000Y-122662000I0J318000D01*
G01*
G37*
G04 #@! TD.AperFunction*
G04 #@! TA.AperFunction,ComponentPad*
G36*
G01*
X174200000Y-132822000D02*
X174200000Y-131338000D01*
G75*
G02*
X174518000Y-131020000I318000J0D01*
G01*
X176002000Y-131020000D01*
G75*
G02*
X176320000Y-131338000I0J-318000D01*
G01*
X176320000Y-132822000D01*
G75*
G02*
X176002000Y-133140000I-318000J0D01*
G01*
X174518000Y-133140000D01*
G75*
G02*
X174200000Y-132822000I0J318000D01*
G01*
G37*
G04 #@! TD.AperFunction*
G04 #@! TA.AperFunction,ComponentPad*
G36*
G01*
X171660000Y-132822000D02*
X171660000Y-131338000D01*
G75*
G02*
X171978000Y-131020000I318000J0D01*
G01*
X175582000Y-131020000D01*
G75*
G02*
X175900000Y-131338000I0J-318000D01*
G01*
X175900000Y-132822000D01*
G75*
G02*
X175582000Y-133140000I-318000J0D01*
G01*
X171978000Y-133140000D01*
G75*
G02*
X171660000Y-132822000I0J318000D01*
G01*
G37*
G04 #@! TD.AperFunction*
G04 #@! TA.AperFunction,ComponentPad*
G36*
G01*
X171660000Y-120122000D02*
X171660000Y-118638000D01*
G75*
G02*
X171978000Y-118320000I318000J0D01*
G01*
X175582000Y-118320000D01*
G75*
G02*
X175900000Y-118638000I0J-318000D01*
G01*
X175900000Y-120122000D01*
G75*
G02*
X175582000Y-120440000I-318000J0D01*
G01*
X171978000Y-120440000D01*
G75*
G02*
X171660000Y-120122000I0J318000D01*
G01*
G37*
G04 #@! TD.AperFunction*
G04 #@! TA.AperFunction,ComponentPad*
G36*
G01*
X174200000Y-120122000D02*
X174200000Y-118638000D01*
G75*
G02*
X174518000Y-118320000I318000J0D01*
G01*
X176002000Y-118320000D01*
G75*
G02*
X176320000Y-118638000I0J-318000D01*
G01*
X176320000Y-120122000D01*
G75*
G02*
X176002000Y-120440000I-318000J0D01*
G01*
X174518000Y-120440000D01*
G75*
G02*
X174200000Y-120122000I0J318000D01*
G01*
G37*
G04 #@! TD.AperFunction*
G04 #@! TA.AperFunction,ComponentPad*
G36*
G01*
X171660000Y-112502000D02*
X171660000Y-111018000D01*
G75*
G02*
X171978000Y-110700000I318000J0D01*
G01*
X175582000Y-110700000D01*
G75*
G02*
X175900000Y-111018000I0J-318000D01*
G01*
X175900000Y-112502000D01*
G75*
G02*
X175582000Y-112820000I-318000J0D01*
G01*
X171978000Y-112820000D01*
G75*
G02*
X171660000Y-112502000I0J318000D01*
G01*
G37*
G04 #@! TD.AperFunction*
G04 #@! TA.AperFunction,ComponentPad*
G36*
G01*
X174200000Y-112502000D02*
X174200000Y-111018000D01*
G75*
G02*
X174518000Y-110700000I318000J0D01*
G01*
X176002000Y-110700000D01*
G75*
G02*
X176320000Y-111018000I0J-318000D01*
G01*
X176320000Y-112502000D01*
G75*
G02*
X176002000Y-112820000I-318000J0D01*
G01*
X174518000Y-112820000D01*
G75*
G02*
X174200000Y-112502000I0J318000D01*
G01*
G37*
G04 #@! TD.AperFunction*
G04 #@! TA.AperFunction,ComponentPad*
G36*
G01*
X169120000Y-87102000D02*
X169120000Y-85618000D01*
G75*
G02*
X169438000Y-85300000I318000J0D01*
G01*
X170922000Y-85300000D01*
G75*
G02*
X171240000Y-85618000I0J-318000D01*
G01*
X171240000Y-87102000D01*
G75*
G02*
X170922000Y-87420000I-318000J0D01*
G01*
X169438000Y-87420000D01*
G75*
G02*
X169120000Y-87102000I0J318000D01*
G01*
G37*
G04 #@! TD.AperFunction*
G04 #@! TA.AperFunction,ComponentPad*
G36*
G01*
X166580000Y-87102000D02*
X166580000Y-85618000D01*
G75*
G02*
X166898000Y-85300000I318000J0D01*
G01*
X170502000Y-85300000D01*
G75*
G02*
X170820000Y-85618000I0J-318000D01*
G01*
X170820000Y-87102000D01*
G75*
G02*
X170502000Y-87420000I-318000J0D01*
G01*
X166898000Y-87420000D01*
G75*
G02*
X166580000Y-87102000I0J318000D01*
G01*
G37*
G04 #@! TD.AperFunction*
G04 #@! TA.AperFunction,ComponentPad*
G36*
G01*
X169120000Y-135362000D02*
X169120000Y-133878000D01*
G75*
G02*
X169438000Y-133560000I318000J0D01*
G01*
X170922000Y-133560000D01*
G75*
G02*
X171240000Y-133878000I0J-318000D01*
G01*
X171240000Y-135362000D01*
G75*
G02*
X170922000Y-135680000I-318000J0D01*
G01*
X169438000Y-135680000D01*
G75*
G02*
X169120000Y-135362000I0J318000D01*
G01*
G37*
G04 #@! TD.AperFunction*
G04 #@! TA.AperFunction,ComponentPad*
G36*
G01*
X166580000Y-135362000D02*
X166580000Y-133878000D01*
G75*
G02*
X166898000Y-133560000I318000J0D01*
G01*
X170502000Y-133560000D01*
G75*
G02*
X170820000Y-133878000I0J-318000D01*
G01*
X170820000Y-135362000D01*
G75*
G02*
X170502000Y-135680000I-318000J0D01*
G01*
X166898000Y-135680000D01*
G75*
G02*
X166580000Y-135362000I0J318000D01*
G01*
G37*
G04 #@! TD.AperFunction*
G04 #@! TA.AperFunction,ComponentPad*
G36*
G01*
X166580000Y-132822000D02*
X166580000Y-131338000D01*
G75*
G02*
X166898000Y-131020000I318000J0D01*
G01*
X170502000Y-131020000D01*
G75*
G02*
X170820000Y-131338000I0J-318000D01*
G01*
X170820000Y-132822000D01*
G75*
G02*
X170502000Y-133140000I-318000J0D01*
G01*
X166898000Y-133140000D01*
G75*
G02*
X166580000Y-132822000I0J318000D01*
G01*
G37*
G04 #@! TD.AperFunction*
G04 #@! TA.AperFunction,ComponentPad*
G36*
G01*
X169120000Y-132822000D02*
X169120000Y-131338000D01*
G75*
G02*
X169438000Y-131020000I318000J0D01*
G01*
X170922000Y-131020000D01*
G75*
G02*
X171240000Y-131338000I0J-318000D01*
G01*
X171240000Y-132822000D01*
G75*
G02*
X170922000Y-133140000I-318000J0D01*
G01*
X169438000Y-133140000D01*
G75*
G02*
X169120000Y-132822000I0J318000D01*
G01*
G37*
G04 #@! TD.AperFunction*
G04 #@! TA.AperFunction,ComponentPad*
G36*
G01*
X169120000Y-130282000D02*
X169120000Y-128798000D01*
G75*
G02*
X169438000Y-128480000I318000J0D01*
G01*
X170922000Y-128480000D01*
G75*
G02*
X171240000Y-128798000I0J-318000D01*
G01*
X171240000Y-130282000D01*
G75*
G02*
X170922000Y-130600000I-318000J0D01*
G01*
X169438000Y-130600000D01*
G75*
G02*
X169120000Y-130282000I0J318000D01*
G01*
G37*
G04 #@! TD.AperFunction*
G04 #@! TA.AperFunction,ComponentPad*
G36*
G01*
X166580000Y-130282000D02*
X166580000Y-128798000D01*
G75*
G02*
X166898000Y-128480000I318000J0D01*
G01*
X170502000Y-128480000D01*
G75*
G02*
X170820000Y-128798000I0J-318000D01*
G01*
X170820000Y-130282000D01*
G75*
G02*
X170502000Y-130600000I-318000J0D01*
G01*
X166898000Y-130600000D01*
G75*
G02*
X166580000Y-130282000I0J318000D01*
G01*
G37*
G04 #@! TD.AperFunction*
G04 #@! TA.AperFunction,ComponentPad*
G36*
G01*
X166580000Y-127742000D02*
X166580000Y-126258000D01*
G75*
G02*
X166898000Y-125940000I318000J0D01*
G01*
X170502000Y-125940000D01*
G75*
G02*
X170820000Y-126258000I0J-318000D01*
G01*
X170820000Y-127742000D01*
G75*
G02*
X170502000Y-128060000I-318000J0D01*
G01*
X166898000Y-128060000D01*
G75*
G02*
X166580000Y-127742000I0J318000D01*
G01*
G37*
G04 #@! TD.AperFunction*
G04 #@! TA.AperFunction,ComponentPad*
G36*
G01*
X169120000Y-127742000D02*
X169120000Y-126258000D01*
G75*
G02*
X169438000Y-125940000I318000J0D01*
G01*
X170922000Y-125940000D01*
G75*
G02*
X171240000Y-126258000I0J-318000D01*
G01*
X171240000Y-127742000D01*
G75*
G02*
X170922000Y-128060000I-318000J0D01*
G01*
X169438000Y-128060000D01*
G75*
G02*
X169120000Y-127742000I0J318000D01*
G01*
G37*
G04 #@! TD.AperFunction*
G04 #@! TA.AperFunction,ComponentPad*
G36*
G01*
X169120000Y-125202000D02*
X169120000Y-123718000D01*
G75*
G02*
X169438000Y-123400000I318000J0D01*
G01*
X170922000Y-123400000D01*
G75*
G02*
X171240000Y-123718000I0J-318000D01*
G01*
X171240000Y-125202000D01*
G75*
G02*
X170922000Y-125520000I-318000J0D01*
G01*
X169438000Y-125520000D01*
G75*
G02*
X169120000Y-125202000I0J318000D01*
G01*
G37*
G04 #@! TD.AperFunction*
G04 #@! TA.AperFunction,ComponentPad*
G36*
G01*
X166580000Y-125202000D02*
X166580000Y-123718000D01*
G75*
G02*
X166898000Y-123400000I318000J0D01*
G01*
X170502000Y-123400000D01*
G75*
G02*
X170820000Y-123718000I0J-318000D01*
G01*
X170820000Y-125202000D01*
G75*
G02*
X170502000Y-125520000I-318000J0D01*
G01*
X166898000Y-125520000D01*
G75*
G02*
X166580000Y-125202000I0J318000D01*
G01*
G37*
G04 #@! TD.AperFunction*
G04 #@! TA.AperFunction,ComponentPad*
G36*
G01*
X169120000Y-120122000D02*
X169120000Y-118638000D01*
G75*
G02*
X169438000Y-118320000I318000J0D01*
G01*
X170922000Y-118320000D01*
G75*
G02*
X171240000Y-118638000I0J-318000D01*
G01*
X171240000Y-120122000D01*
G75*
G02*
X170922000Y-120440000I-318000J0D01*
G01*
X169438000Y-120440000D01*
G75*
G02*
X169120000Y-120122000I0J318000D01*
G01*
G37*
G04 #@! TD.AperFunction*
G04 #@! TA.AperFunction,ComponentPad*
G36*
G01*
X166580000Y-120122000D02*
X166580000Y-118638000D01*
G75*
G02*
X166898000Y-118320000I318000J0D01*
G01*
X170502000Y-118320000D01*
G75*
G02*
X170820000Y-118638000I0J-318000D01*
G01*
X170820000Y-120122000D01*
G75*
G02*
X170502000Y-120440000I-318000J0D01*
G01*
X166898000Y-120440000D01*
G75*
G02*
X166580000Y-120122000I0J318000D01*
G01*
G37*
G04 #@! TD.AperFunction*
G04 #@! TA.AperFunction,ComponentPad*
G36*
G01*
X166580000Y-122662000D02*
X166580000Y-121178000D01*
G75*
G02*
X166898000Y-120860000I318000J0D01*
G01*
X170502000Y-120860000D01*
G75*
G02*
X170820000Y-121178000I0J-318000D01*
G01*
X170820000Y-122662000D01*
G75*
G02*
X170502000Y-122980000I-318000J0D01*
G01*
X166898000Y-122980000D01*
G75*
G02*
X166580000Y-122662000I0J318000D01*
G01*
G37*
G04 #@! TD.AperFunction*
G04 #@! TA.AperFunction,ComponentPad*
G36*
G01*
X169120000Y-122662000D02*
X169120000Y-121178000D01*
G75*
G02*
X169438000Y-120860000I318000J0D01*
G01*
X170922000Y-120860000D01*
G75*
G02*
X171240000Y-121178000I0J-318000D01*
G01*
X171240000Y-122662000D01*
G75*
G02*
X170922000Y-122980000I-318000J0D01*
G01*
X169438000Y-122980000D01*
G75*
G02*
X169120000Y-122662000I0J318000D01*
G01*
G37*
G04 #@! TD.AperFunction*
G04 #@! TA.AperFunction,ComponentPad*
G36*
G01*
X166580000Y-89642000D02*
X166580000Y-88158000D01*
G75*
G02*
X166898000Y-87840000I318000J0D01*
G01*
X170502000Y-87840000D01*
G75*
G02*
X170820000Y-88158000I0J-318000D01*
G01*
X170820000Y-89642000D01*
G75*
G02*
X170502000Y-89960000I-318000J0D01*
G01*
X166898000Y-89960000D01*
G75*
G02*
X166580000Y-89642000I0J318000D01*
G01*
G37*
G04 #@! TD.AperFunction*
G04 #@! TA.AperFunction,ComponentPad*
G36*
G01*
X169120000Y-89642000D02*
X169120000Y-88158000D01*
G75*
G02*
X169438000Y-87840000I318000J0D01*
G01*
X170922000Y-87840000D01*
G75*
G02*
X171240000Y-88158000I0J-318000D01*
G01*
X171240000Y-89642000D01*
G75*
G02*
X170922000Y-89960000I-318000J0D01*
G01*
X169438000Y-89960000D01*
G75*
G02*
X169120000Y-89642000I0J318000D01*
G01*
G37*
G04 #@! TD.AperFunction*
G04 #@! TA.AperFunction,ComponentPad*
G36*
G01*
X169120000Y-92182000D02*
X169120000Y-90698000D01*
G75*
G02*
X169438000Y-90380000I318000J0D01*
G01*
X170922000Y-90380000D01*
G75*
G02*
X171240000Y-90698000I0J-318000D01*
G01*
X171240000Y-92182000D01*
G75*
G02*
X170922000Y-92500000I-318000J0D01*
G01*
X169438000Y-92500000D01*
G75*
G02*
X169120000Y-92182000I0J318000D01*
G01*
G37*
G04 #@! TD.AperFunction*
G04 #@! TA.AperFunction,ComponentPad*
G36*
G01*
X166580000Y-92182000D02*
X166580000Y-90698000D01*
G75*
G02*
X166898000Y-90380000I318000J0D01*
G01*
X170502000Y-90380000D01*
G75*
G02*
X170820000Y-90698000I0J-318000D01*
G01*
X170820000Y-92182000D01*
G75*
G02*
X170502000Y-92500000I-318000J0D01*
G01*
X166898000Y-92500000D01*
G75*
G02*
X166580000Y-92182000I0J318000D01*
G01*
G37*
G04 #@! TD.AperFunction*
G04 #@! TA.AperFunction,ComponentPad*
G36*
G01*
X166580000Y-94722000D02*
X166580000Y-93238000D01*
G75*
G02*
X166898000Y-92920000I318000J0D01*
G01*
X170502000Y-92920000D01*
G75*
G02*
X170820000Y-93238000I0J-318000D01*
G01*
X170820000Y-94722000D01*
G75*
G02*
X170502000Y-95040000I-318000J0D01*
G01*
X166898000Y-95040000D01*
G75*
G02*
X166580000Y-94722000I0J318000D01*
G01*
G37*
G04 #@! TD.AperFunction*
G04 #@! TA.AperFunction,ComponentPad*
G36*
G01*
X169120000Y-94722000D02*
X169120000Y-93238000D01*
G75*
G02*
X169438000Y-92920000I318000J0D01*
G01*
X170922000Y-92920000D01*
G75*
G02*
X171240000Y-93238000I0J-318000D01*
G01*
X171240000Y-94722000D01*
G75*
G02*
X170922000Y-95040000I-318000J0D01*
G01*
X169438000Y-95040000D01*
G75*
G02*
X169120000Y-94722000I0J318000D01*
G01*
G37*
G04 #@! TD.AperFunction*
G04 #@! TA.AperFunction,ComponentPad*
G36*
G01*
X169120000Y-102342000D02*
X169120000Y-100858000D01*
G75*
G02*
X169438000Y-100540000I318000J0D01*
G01*
X170922000Y-100540000D01*
G75*
G02*
X171240000Y-100858000I0J-318000D01*
G01*
X171240000Y-102342000D01*
G75*
G02*
X170922000Y-102660000I-318000J0D01*
G01*
X169438000Y-102660000D01*
G75*
G02*
X169120000Y-102342000I0J318000D01*
G01*
G37*
G04 #@! TD.AperFunction*
G04 #@! TA.AperFunction,ComponentPad*
G36*
G01*
X166580000Y-102342000D02*
X166580000Y-100858000D01*
G75*
G02*
X166898000Y-100540000I318000J0D01*
G01*
X170502000Y-100540000D01*
G75*
G02*
X170820000Y-100858000I0J-318000D01*
G01*
X170820000Y-102342000D01*
G75*
G02*
X170502000Y-102660000I-318000J0D01*
G01*
X166898000Y-102660000D01*
G75*
G02*
X166580000Y-102342000I0J318000D01*
G01*
G37*
G04 #@! TD.AperFunction*
G04 #@! TA.AperFunction,ComponentPad*
G36*
G01*
X166580000Y-99802000D02*
X166580000Y-98318000D01*
G75*
G02*
X166898000Y-98000000I318000J0D01*
G01*
X170502000Y-98000000D01*
G75*
G02*
X170820000Y-98318000I0J-318000D01*
G01*
X170820000Y-99802000D01*
G75*
G02*
X170502000Y-100120000I-318000J0D01*
G01*
X166898000Y-100120000D01*
G75*
G02*
X166580000Y-99802000I0J318000D01*
G01*
G37*
G04 #@! TD.AperFunction*
G04 #@! TA.AperFunction,ComponentPad*
G36*
G01*
X169120000Y-99802000D02*
X169120000Y-98318000D01*
G75*
G02*
X169438000Y-98000000I318000J0D01*
G01*
X170922000Y-98000000D01*
G75*
G02*
X171240000Y-98318000I0J-318000D01*
G01*
X171240000Y-99802000D01*
G75*
G02*
X170922000Y-100120000I-318000J0D01*
G01*
X169438000Y-100120000D01*
G75*
G02*
X169120000Y-99802000I0J318000D01*
G01*
G37*
G04 #@! TD.AperFunction*
G04 #@! TA.AperFunction,ComponentPad*
G36*
G01*
X169120000Y-97262000D02*
X169120000Y-95778000D01*
G75*
G02*
X169438000Y-95460000I318000J0D01*
G01*
X170922000Y-95460000D01*
G75*
G02*
X171240000Y-95778000I0J-318000D01*
G01*
X171240000Y-97262000D01*
G75*
G02*
X170922000Y-97580000I-318000J0D01*
G01*
X169438000Y-97580000D01*
G75*
G02*
X169120000Y-97262000I0J318000D01*
G01*
G37*
G04 #@! TD.AperFunction*
G04 #@! TA.AperFunction,ComponentPad*
G36*
G01*
X166580000Y-97262000D02*
X166580000Y-95778000D01*
G75*
G02*
X166898000Y-95460000I318000J0D01*
G01*
X170502000Y-95460000D01*
G75*
G02*
X170820000Y-95778000I0J-318000D01*
G01*
X170820000Y-97262000D01*
G75*
G02*
X170502000Y-97580000I-318000J0D01*
G01*
X166898000Y-97580000D01*
G75*
G02*
X166580000Y-97262000I0J318000D01*
G01*
G37*
G04 #@! TD.AperFunction*
G04 #@! TA.AperFunction,ComponentPad*
G36*
G01*
X166580000Y-109962000D02*
X166580000Y-108478000D01*
G75*
G02*
X166898000Y-108160000I318000J0D01*
G01*
X170502000Y-108160000D01*
G75*
G02*
X170820000Y-108478000I0J-318000D01*
G01*
X170820000Y-109962000D01*
G75*
G02*
X170502000Y-110280000I-318000J0D01*
G01*
X166898000Y-110280000D01*
G75*
G02*
X166580000Y-109962000I0J318000D01*
G01*
G37*
G04 #@! TD.AperFunction*
G04 #@! TA.AperFunction,ComponentPad*
G36*
G01*
X169120000Y-109962000D02*
X169120000Y-108478000D01*
G75*
G02*
X169438000Y-108160000I318000J0D01*
G01*
X170922000Y-108160000D01*
G75*
G02*
X171240000Y-108478000I0J-318000D01*
G01*
X171240000Y-109962000D01*
G75*
G02*
X170922000Y-110280000I-318000J0D01*
G01*
X169438000Y-110280000D01*
G75*
G02*
X169120000Y-109962000I0J318000D01*
G01*
G37*
G04 #@! TD.AperFunction*
G04 #@! TA.AperFunction,ComponentPad*
G36*
G01*
X169120000Y-107422000D02*
X169120000Y-105938000D01*
G75*
G02*
X169438000Y-105620000I318000J0D01*
G01*
X170922000Y-105620000D01*
G75*
G02*
X171240000Y-105938000I0J-318000D01*
G01*
X171240000Y-107422000D01*
G75*
G02*
X170922000Y-107740000I-318000J0D01*
G01*
X169438000Y-107740000D01*
G75*
G02*
X169120000Y-107422000I0J318000D01*
G01*
G37*
G04 #@! TD.AperFunction*
G04 #@! TA.AperFunction,ComponentPad*
G36*
G01*
X166580000Y-107422000D02*
X166580000Y-105938000D01*
G75*
G02*
X166898000Y-105620000I318000J0D01*
G01*
X170502000Y-105620000D01*
G75*
G02*
X170820000Y-105938000I0J-318000D01*
G01*
X170820000Y-107422000D01*
G75*
G02*
X170502000Y-107740000I-318000J0D01*
G01*
X166898000Y-107740000D01*
G75*
G02*
X166580000Y-107422000I0J318000D01*
G01*
G37*
G04 #@! TD.AperFunction*
G04 #@! TA.AperFunction,ComponentPad*
G36*
G01*
X166580000Y-104882000D02*
X166580000Y-103398000D01*
G75*
G02*
X166898000Y-103080000I318000J0D01*
G01*
X170502000Y-103080000D01*
G75*
G02*
X170820000Y-103398000I0J-318000D01*
G01*
X170820000Y-104882000D01*
G75*
G02*
X170502000Y-105200000I-318000J0D01*
G01*
X166898000Y-105200000D01*
G75*
G02*
X166580000Y-104882000I0J318000D01*
G01*
G37*
G04 #@! TD.AperFunction*
G04 #@! TA.AperFunction,ComponentPad*
G36*
G01*
X169120000Y-104882000D02*
X169120000Y-103398000D01*
G75*
G02*
X169438000Y-103080000I318000J0D01*
G01*
X170922000Y-103080000D01*
G75*
G02*
X171240000Y-103398000I0J-318000D01*
G01*
X171240000Y-104882000D01*
G75*
G02*
X170922000Y-105200000I-318000J0D01*
G01*
X169438000Y-105200000D01*
G75*
G02*
X169120000Y-104882000I0J318000D01*
G01*
G37*
G04 #@! TD.AperFunction*
G04 #@! TA.AperFunction,ComponentPad*
G36*
G01*
X169120000Y-112502000D02*
X169120000Y-111018000D01*
G75*
G02*
X169438000Y-110700000I318000J0D01*
G01*
X170922000Y-110700000D01*
G75*
G02*
X171240000Y-111018000I0J-318000D01*
G01*
X171240000Y-112502000D01*
G75*
G02*
X170922000Y-112820000I-318000J0D01*
G01*
X169438000Y-112820000D01*
G75*
G02*
X169120000Y-112502000I0J318000D01*
G01*
G37*
G04 #@! TD.AperFunction*
G04 #@! TA.AperFunction,ComponentPad*
G36*
G01*
X166580000Y-112502000D02*
X166580000Y-111018000D01*
G75*
G02*
X166898000Y-110700000I318000J0D01*
G01*
X170502000Y-110700000D01*
G75*
G02*
X170820000Y-111018000I0J-318000D01*
G01*
X170820000Y-112502000D01*
G75*
G02*
X170502000Y-112820000I-318000J0D01*
G01*
X166898000Y-112820000D01*
G75*
G02*
X166580000Y-112502000I0J318000D01*
G01*
G37*
G04 #@! TD.AperFunction*
G04 #@! TA.AperFunction,ComponentPad*
G36*
G01*
X166580000Y-115042000D02*
X166580000Y-113558000D01*
G75*
G02*
X166898000Y-113240000I318000J0D01*
G01*
X170502000Y-113240000D01*
G75*
G02*
X170820000Y-113558000I0J-318000D01*
G01*
X170820000Y-115042000D01*
G75*
G02*
X170502000Y-115360000I-318000J0D01*
G01*
X166898000Y-115360000D01*
G75*
G02*
X166580000Y-115042000I0J318000D01*
G01*
G37*
G04 #@! TD.AperFunction*
G04 #@! TA.AperFunction,ComponentPad*
G36*
G01*
X169120000Y-115042000D02*
X169120000Y-113558000D01*
G75*
G02*
X169438000Y-113240000I318000J0D01*
G01*
X170922000Y-113240000D01*
G75*
G02*
X171240000Y-113558000I0J-318000D01*
G01*
X171240000Y-115042000D01*
G75*
G02*
X170922000Y-115360000I-318000J0D01*
G01*
X169438000Y-115360000D01*
G75*
G02*
X169120000Y-115042000I0J318000D01*
G01*
G37*
G04 #@! TD.AperFunction*
G04 #@! TA.AperFunction,ComponentPad*
G36*
G01*
X169120000Y-117582000D02*
X169120000Y-116098000D01*
G75*
G02*
X169438000Y-115780000I318000J0D01*
G01*
X170922000Y-115780000D01*
G75*
G02*
X171240000Y-116098000I0J-318000D01*
G01*
X171240000Y-117582000D01*
G75*
G02*
X170922000Y-117900000I-318000J0D01*
G01*
X169438000Y-117900000D01*
G75*
G02*
X169120000Y-117582000I0J318000D01*
G01*
G37*
G04 #@! TD.AperFunction*
G04 #@! TA.AperFunction,ComponentPad*
G36*
G01*
X166580000Y-117582000D02*
X166580000Y-116098000D01*
G75*
G02*
X166898000Y-115780000I318000J0D01*
G01*
X170502000Y-115780000D01*
G75*
G02*
X170820000Y-116098000I0J-318000D01*
G01*
X170820000Y-117582000D01*
G75*
G02*
X170502000Y-117900000I-318000J0D01*
G01*
X166898000Y-117900000D01*
G75*
G02*
X166580000Y-117582000I0J318000D01*
G01*
G37*
G04 #@! TD.AperFunction*
D10*
X151130000Y-77470000D03*
M02*
