M48
; DRILL file {KiCad 5.1.6-c6e7f7d~87~ubuntu18.04.1} date Thu Aug  6 18:50:22 2020
; FORMAT={-:-/ absolute / inch / decimal}
; #@! TF.CreationDate,2020-08-06T18:50:22+02:00
; #@! TF.GenerationSoftware,Kicad,Pcbnew,5.1.6-c6e7f7d~87~ubuntu18.04.1
; #@! TF.FileFunction,Plated,1,2,PTH
FMAT,2
INCH
T1C0.0236
T2C0.0394
%
G90
G05
T1
X5.45Y-5.4
X5.4Y-5.6
X5.5Y-5.5
X5.5Y-5.55
X5.45Y-5.45
X5.5Y-5.6
X5.6Y-5.5
X5.55Y-5.4
X5.2Y-5.55
X5.55Y-5.55
X5.6Y-5.45
X5.25Y-5.6
X5.1Y-5.5
X5.15Y-5.55
X5.15Y-5.5
X5.25Y-5.4
X5.2Y-5.45
X5.35Y-5.4
X5.35Y-5.55
X5.4Y-5.5
X5.35Y-5.6
X5.4Y-5.55
X5.35Y-5.45
X5.45Y-5.5
X5.65Y-5.45
X5.6Y-5.6
X5.65Y-5.5
X5.6Y-5.4
X5.1Y-5.45
X5.3Y-5.45
X5.6Y-5.55
X5.3Y-5.5
X5.15Y-5.4
X5.2Y-5.4
X5.25Y-5.55
X5.25Y-5.45
X5.3Y-5.6
X5.5Y-5.4
X5.45Y-5.6
X5.1Y-5.4
X5.4Y-5.4
X5.45Y-5.55
X5.35Y-5.5
X5.55Y-5.45
X5.5Y-5.45
X5.4Y-5.45
X5.65Y-5.6
X5.55Y-5.5
X5.65Y-5.4
X5.1Y-5.55
X5.3Y-5.55
X5.65Y-5.55
X5.15Y-5.6
X5.3Y-5.4
X5.1Y-5.6
X5.2Y-5.6
X5.15Y-5.45
X5.25Y-5.5
X5.2Y-5.5
X5.55Y-5.6
T2
X5.8Y-5.2
X5.1Y-5.0
X6.1Y-4.1
X6.2Y-5.2
X5.4Y-4.4
X6.8Y-4.6
X6.9Y-4.6
X5.2Y-3.6
X6.0Y-5.2
X5.8Y-4.6
X5.1Y-5.2
X6.3Y-3.7
X6.8Y-3.4
X6.9Y-3.4
X5.3Y-4.8
X6.3Y-5.1
X5.2Y-4.8
X6.1Y-4.5
X5.4Y-5.2
X5.1Y-4.6
X6.1Y-3.7
X6.5Y-5.3
X5.1Y-4.1
X5.7Y-4.1
X6.0Y-5.1
X5.7Y-4.9
X6.3Y-4.4
X6.8Y-4.1
X6.9Y-4.1
X5.5Y-5.1
X6.3Y-4.3
X6.4Y-5.3
X5.2Y-4.7
X6.2Y-4.7
X5.3Y-4.4
X6.2Y-4.4
X6.8Y-4.8
X6.9Y-4.8
X6.6Y-3.8
X6.7Y-3.8
X5.6Y-3.6
X6.8Y-3.9
X6.9Y-3.9
X5.7Y-5.1
X6.8Y-5.1
X6.9Y-5.1
X5.1Y-4.4
X5.9Y-4.6
X5.8Y-4.3
X5.3Y-5.3
X5.7Y-3.7
X5.7Y-4.6
X5.6Y-3.8
X6.0Y-4.0
X6.6Y-4.6
X6.7Y-4.6
X5.6Y-5.3
X6.2Y-4.5
X4.9Y-4.1
X5.0Y-4.1
X5.3Y-4.0
X6.2Y-3.9
X5.7Y-3.6
X5.2Y-3.9
X5.9Y-3.7
X6.1Y-4.2
X6.1Y-3.5
X5.9Y-4.9
X4.9Y-3.8
X5.0Y-3.8
X5.8Y-4.2
X6.8Y-3.7
X6.9Y-3.7
X5.4Y-3.5
X5.8Y-4.9
X6.4Y-4.3
X6.4Y-3.4
X5.8Y-3.4
X6.1Y-3.4
X6.4Y-4.8
X4.9Y-5.06
X5.0Y-5.06
X5.7Y-4.4
X6.0Y-3.9
X4.9Y-5.16
X5.0Y-5.16
X5.9Y-4.0
X5.9Y-5.1
X5.2Y-3.7
X5.9Y-4.4
X6.5Y-4.4
X5.2Y-3.5
X4.9Y-4.86
X5.0Y-4.86
X6.4Y-3.7
X6.8Y-4.4
X6.9Y-4.4
X6.6Y-4.1
X6.7Y-4.1
X5.7Y-3.5
X5.5Y-4.8
X6.4Y-4.5
X6.4Y-4.0
X6.1Y-4.9
X6.3Y-4.5
X6.6Y-5.2
X6.7Y-5.2
X5.3Y-3.4
X6.0Y-4.2
X4.9Y-3.7
X5.0Y-3.7
X6.1Y-5.3
X6.0Y-4.6
X6.6Y-4.9
X6.7Y-4.9
X5.6Y-5.0
X6.5Y-5.0
X5.5Y-5.0
X5.5Y-4.1
X6.6Y-3.5
X6.7Y-3.5
X5.6Y-3.5
X5.4Y-5.0
X5.4Y-4.2
X6.5Y-3.4
X6.3Y-3.6
X6.3Y-4.8
X5.3Y-4.1
X5.8Y-3.6
X5.6Y-5.1
X6.5Y-4.1
X5.3Y-4.9
X6.0Y-4.9
X5.6Y-3.7
X5.6Y-4.8
X5.5Y-4.3
X5.5Y-3.7
X6.8Y-4.5
X6.9Y-4.5
X4.9Y-3.6
X5.4Y-4.8
X5.4Y-4.3
X6.0Y-3.6
X6.5Y-4.2
X6.5Y-3.6
X5.3Y-4.6
X5.6Y-4.4
X5.3Y-3.6
X6.4Y-5.2
X5.2Y-4.6
X5.8Y-5.1
X5.1Y-4.7
X6.1Y-4.0
X5.4Y-5.1
X5.1Y-4.0
X6.6Y-4.0
X6.7Y-4.0
X5.5Y-5.2
X5.8Y-4.8
X6.3Y-4.1
X5.2Y-5.1
X6.3Y-4.2
X6.8Y-5.2
X6.9Y-5.2
X6.6Y-4.3
X6.7Y-4.3
X5.3Y-5.2
X5.2Y-4.9
X6.2Y-4.9
X5.3Y-4.3
X6.2Y-4.3
X6.4Y-3.6
X6.3Y-5.3
X5.1Y-4.9
X6.1Y-4.4
X6.2Y-5.1
X5.1Y-4.3
X5.9Y-5.0
X4.9Y-4.3
X5.0Y-4.3
X6.5Y-5.2
X5.1Y-3.8
X5.8Y-5.0
X5.7Y-4.2
X6.8Y-3.8
X6.9Y-3.8
X5.1Y-5.1
X5.7Y-5.0
X4.9Y-4.0
X5.0Y-4.0
X6.3Y-4.0
X5.6Y-5.2
X6.2Y-4.6
X5.3Y-4.2
X6.2Y-3.7
X6.1Y-4.6
X5.2Y-4.2
X5.2Y-4.0
X5.9Y-3.8
X6.2Y-4.1
X6.8Y-3.5
X6.9Y-3.5
X6.3Y-3.5
X5.2Y-3.8
X5.8Y-3.8
X5.7Y-3.4
X5.8Y-3.5
X5.9Y-4.8
X4.9Y-4.96
X5.0Y-4.96
X5.8Y-4.0
X6.4Y-4.2
X6.8Y-3.6
X6.9Y-3.6
X5.7Y-4.3
X5.7Y-4.8
X6.0Y-3.7
X5.9Y-3.4
X5.1Y-3.4
X6.2Y-3.4
X6.0Y-3.4
X5.9Y-4.2
X4.9Y-4.76
X5.0Y-4.76
X5.2Y-4.4
X5.9Y-4.3
X6.5Y-4.6
X6.6Y-3.4
X6.7Y-3.4
X6.6Y-4.4
X6.7Y-4.4
X6.0Y-3.5
X5.8Y-3.9
X6.5Y-4.9
X5.9Y-3.5
X5.5Y-4.5
X6.4Y-4.6
X6.4Y-3.8
X6.6Y-5.1
X6.7Y-5.1
X6.3Y-4.6
X5.6Y-4.1
X5.4Y-3.4
X6.0Y-4.4
X6.6Y-4.7
X6.7Y-4.7
X6.1Y-5.2
X6.1Y-5.0
X4.9Y-5.36
X5.0Y-5.36
X5.7Y-5.3
X5.6Y-4.7
X6.5Y-4.7
X6.6Y-3.6
X6.7Y-3.6
X5.5Y-4.0
X6.4Y-3.5
X5.4Y-4.7
X6.4Y-5.0
X5.4Y-3.8
X4.9Y-3.4
X6.3Y-5.0
X4.9Y-4.66
X5.0Y-4.66
X5.4Y-3.7
X5.3Y-5.1
X6.5Y-3.8
X5.9Y-5.3
X6.0Y-4.8
X5.6Y-4.2
X5.6Y-4.5
X5.5Y-3.9
X5.5Y-4.2
X5.0Y-3.6
X5.4Y-4.5
X5.4Y-3.9
X5.5Y-3.6
X5.9Y-3.6
X6.5Y-3.9
X5.3Y-5.0
X6.0Y-5.0
X5.6Y-4.3
X6.4Y-5.1
X5.2Y-5.0
X5.5Y-4.7
X5.8Y-5.3
X5.1Y-4.5
X6.1Y-3.8
X6.6Y-3.9
X6.7Y-3.9
X6.8Y-4.2
X6.9Y-4.2
X6.2Y-5.3
X6.2Y-3.6
X6.0Y-5.3
X5.8Y-4.5
X6.4Y-4.1
X6.8Y-5.0
X6.9Y-5.0
X6.6Y-4.2
X6.7Y-4.2
X5.1Y-5.3
X6.3Y-3.9
X5.2Y-4.5
X6.2Y-4.8
X5.3Y-3.9
X6.2Y-4.2
X6.8Y-4.9
X6.9Y-4.9
X5.1Y-3.6
X6.3Y-5.2
X5.1Y-4.8
X4.9Y-4.2
X5.0Y-4.2
X6.1Y-4.3
X5.4Y-5.3
X5.1Y-4.2
X5.9Y-4.7
X6.1Y-3.9
X6.8Y-4.3
X6.9Y-4.3
X6.5Y-5.1
X5.1Y-3.7
X5.7Y-3.8
X5.5Y-5.3
X5.7Y-4.7
X6.3Y-3.8
X5.2Y-5.2
X6.2Y-4.0
X6.8Y-4.0
X6.9Y-4.0
X6.2Y-5.0
X5.3Y-3.7
X5.9Y-4.1
X6.2Y-3.8
X5.3Y-3.5
X6.8Y-5.3
X6.9Y-5.3
X6.2Y-3.5
X5.1Y-3.9
X5.9Y-4.5
X5.8Y-4.4
X6.4Y-3.9
X5.7Y-3.9
X6.8Y-4.7
X6.9Y-4.7
X5.7Y-4.5
X6.0Y-4.1
X5.2Y-5.3
X6.6Y-4.5
X6.7Y-4.5
X5.2Y-4.3
X5.9Y-3.9
X6.5Y-4.3
X5.6Y-3.4
X5.0Y-3.4
X5.5Y-3.4
X5.5Y-3.5
X5.8Y-3.7
X6.5Y-4.8
X6.6Y-5.0
X6.7Y-5.0
X6.5Y-3.5
X5.5Y-4.6
X5.8Y-4.7
X6.1Y-4.8
X4.9Y-3.9
X5.0Y-3.9
X6.4Y-4.4
X6.4Y-4.9
X5.7Y-4.0
X6.6Y-4.8
X6.7Y-4.8
X6.0Y-4.3
X6.1Y-5.1
X6.6Y-3.7
X6.7Y-3.7
X5.7Y-5.2
X4.9Y-5.26
X5.0Y-5.26
X5.2Y-4.1
X5.8Y-4.1
X6.5Y-4.5
X5.5Y-4.4
X5.1Y-3.5
X5.4Y-4.9
X6.4Y-4.7
X4.9Y-4.56
X5.0Y-4.56
X5.4Y-4.1
X6.1Y-4.7
X4.9Y-3.5
X5.3Y-4.5
X6.3Y-4.7
X6.3Y-3.4
X4.9Y-4.4
X5.0Y-4.4
X6.0Y-3.8
X6.5Y-3.7
X6.6Y-5.3
X6.7Y-5.3
X5.9Y-5.2
X6.0Y-4.5
X5.6Y-4.6
X5.6Y-4.0
X4.9Y-5.46
X5.0Y-5.46
X5.5Y-3.8
X5.0Y-3.5
X5.4Y-4.6
X5.4Y-4.0
X5.2Y-3.4
X6.1Y-3.6
X6.3Y-4.9
X5.3Y-3.8
X5.4Y-3.6
X6.5Y-4.0
X5.3Y-4.7
X5.6Y-4.9
X6.0Y-4.7
X5.6Y-3.9
X5.5Y-4.9
T0
M30
